{"glyphs":{"0":{"ha":681,"x_min":47,"x_max":633,"o":"m 220 669 q 196 611 220 669 q 172 406 172 554 q 220 143 172 257 q 340 29 268 29 q 460 143 413 29 q 508 406 508 257 q 460 669 508 554 q 340 783 413 783 q 220 669 268 783 m 126 108 q 86 168 126 108 q 47 406 47 229 q 126 704 47 582 q 340 826 204 826 q 555 704 476 826 q 633 406 633 582 q 555 108 633 229 q 340 -14 476 -14 q 126 108 204 -14 z "},"1":{"ha":681,"x_min":149,"x_max":618,"o":"m 447 813 l 447 85 q 503 42 447 56 q 618 29 558 29 l 618 0 l 149 0 l 149 29 q 264 42 208 29 q 319 85 319 56 l 319 617 q 172 515 261 582 l 163 539 l 410 813 l 447 813 z "},"2":{"ha":681,"x_min":56,"x_max":625,"o":"m 56 0 q 97 59 56 15 q 196 161 138 103 q 312 286 254 219 q 410 431 369 353 q 451 575 451 508 q 416 691 451 639 q 314 743 381 743 q 214 729 257 743 q 149 696 171 715 q 114 657 128 676 q 92 624 100 638 q 81 610 85 610 q 69 624 69 610 q 83 669 69 639 q 125 737 97 700 q 207 800 153 774 q 329 826 261 826 q 523 759 458 826 q 588 593 588 692 q 531 452 588 536 q 405 299 474 368 q 279 169 336 229 q 222 97 222 110 l 515 97 q 597 185 572 122 l 625 185 l 572 0 l 56 0 z "},"3":{"ha":681,"x_min":67,"x_max":614,"o":"m 294 404 q 276 410 285 404 q 268 422 268 415 q 278 432 268 428 q 403 499 350 454 q 457 619 457 544 q 418 710 457 676 q 308 743 379 743 q 211 726 251 743 q 156 689 171 710 q 131 651 142 668 q 115 635 121 635 q 104 649 104 635 q 117 690 104 664 q 153 749 129 717 q 223 803 178 781 q 324 826 268 826 q 517 779 457 826 q 576 638 576 732 q 442 460 576 538 q 562 376 510 443 q 614 239 614 308 q 602 142 614 185 q 560 63 590 100 q 472 6 531 26 q 328 -14 413 -14 q 219 0 271 -14 q 136 33 168 14 q 85 72 104 53 q 67 100 67 90 q 77 158 67 142 q 117 175 88 175 q 140 160 131 175 q 160 123 150 144 q 185 80 169 101 q 235 43 200 58 q 319 28 269 28 q 499 211 499 28 q 488 290 499 247 q 443 372 476 333 q 363 411 410 411 q 327 408 346 411 q 294 404 308 404 z "},"4":{"ha":681,"x_min":54,"x_max":621,"o":"m 508 813 l 508 286 l 621 286 l 621 244 l 508 244 l 508 57 q 596 29 521 29 l 596 0 l 296 0 l 296 29 q 383 57 371 29 l 383 244 l 54 244 l 436 813 l 508 813 m 383 286 l 383 660 l 131 286 l 383 286 z "},"5":{"ha":681,"x_min":67,"x_max":614,"o":"m 197 538 q 517 462 421 538 q 614 272 614 386 q 601 171 614 218 q 561 80 589 124 q 478 11 533 36 q 344 -14 422 -14 q 190 10 258 -14 q 94 60 122 35 q 67 100 67 85 q 77 158 67 142 q 117 175 88 175 q 140 160 131 175 q 158 123 149 144 q 185 80 168 101 q 240 43 201 58 q 336 28 279 28 q 416 50 382 28 q 467 108 450 72 q 491 177 483 143 q 499 244 499 211 q 142 483 499 483 l 188 813 l 575 813 l 542 715 l 222 715 l 197 538 z "},"6":{"ha":681,"x_min":74,"x_max":607,"o":"m 346 467 q 207 435 256 467 q 199 311 199 376 q 241 99 199 167 q 349 31 283 31 q 445 98 408 31 q 482 272 482 165 q 472 360 482 319 q 428 434 461 401 q 346 467 396 467 m 214 481 q 343 514 271 514 q 550 449 493 514 q 607 261 607 383 q 539 60 607 133 q 349 -14 471 -14 q 145 76 217 -14 q 74 311 74 167 q 114 528 74 428 q 216 692 154 629 q 343 793 278 756 q 465 838 408 831 l 482 813 q 310 701 379 786 q 214 481 240 617 z "},"7":{"ha":681,"x_min":81,"x_max":600,"o":"m 251 15 q 312 245 251 86 q 433 545 372 404 q 494 715 494 686 l 190 715 q 108 628 133 690 l 81 628 l 133 813 l 600 813 q 538 641 600 792 q 413 305 475 490 q 351 15 351 119 q 335 -6 351 1 q 300 -14 318 -14 q 251 15 251 -14 z "},"8":{"ha":681,"x_min":76,"x_max":604,"o":"m 382 450 q 499 646 499 514 q 461 747 499 711 q 368 782 424 782 q 215 636 215 782 q 242 572 215 606 q 297 515 268 538 q 382 450 325 492 m 425 418 q 557 297 510 354 q 604 171 604 239 q 531 39 604 92 q 340 -14 457 -14 q 146 40 215 -14 q 76 182 76 93 q 246 418 76 325 q 93 646 93 538 q 160 774 93 722 q 342 826 228 826 q 528 776 465 826 q 592 635 592 725 q 425 418 592 503 m 289 385 q 169 171 169 314 q 214 72 169 113 q 314 31 258 31 q 438 72 393 31 q 482 181 482 113 q 479 203 482 192 q 469 227 476 215 q 453 249 461 239 q 433 272 446 258 q 410 294 419 285 q 381 317 400 303 q 352 338 363 331 q 320 362 342 346 q 289 385 299 378 z "},"9":{"ha":681,"x_min":74,"x_max":607,"o":"m 335 346 q 474 378 425 346 q 482 501 482 436 q 440 714 482 646 q 332 782 397 782 q 235 715 272 782 q 199 540 199 647 q 209 452 199 493 q 252 378 219 411 q 335 346 285 346 m 467 332 q 338 299 410 299 q 131 364 188 299 q 74 551 74 429 q 142 753 74 679 q 332 826 210 826 q 535 735 464 826 q 607 501 607 644 q 567 284 607 385 q 465 120 526 183 q 338 19 403 57 q 215 -25 272 -18 l 199 0 q 371 111 301 26 q 467 332 440 196 z "}," ":{"ha":333,"x_min":0,"x_max":0,"o":""},"!":{"ha":326,"x_min":81,"x_max":247,"o":"m 106 12 q 93 25 106 12 q 81 71 81 38 q 103 131 81 104 q 163 158 126 158 q 221 133 194 158 q 247 75 247 108 q 224 14 247 42 q 164 -14 200 -14 q 106 12 132 -14 m 194 353 q 163 258 183 258 q 131 353 142 258 q 110 571 126 379 q 94 813 94 763 q 113 859 94 843 q 163 875 132 875 q 212 859 193 875 q 231 813 231 843 q 215 569 231 763 q 194 353 199 376 z "},"\"":{"ha":461,"x_min":57,"x_max":404,"o":"m 163 697 q 119 567 140 567 q 76 697 99 567 q 57 861 57 833 q 119 924 57 924 q 182 861 182 924 q 163 697 182 824 m 385 697 q 342 567 363 567 q 299 697 321 567 q 279 861 279 833 q 342 924 279 924 q 404 861 404 924 q 385 697 404 824 z "},"#":{"ha":675,"x_min":46,"x_max":629,"o":"m 608 319 l 608 272 l 449 272 l 411 0 l 363 0 l 400 272 l 226 272 l 189 0 l 140 0 l 178 272 l 46 272 l 46 319 l 185 319 l 210 494 l 67 494 l 67 542 l 217 542 l 254 813 l 303 813 l 265 542 l 439 542 l 476 813 l 525 813 l 488 542 l 629 542 l 629 494 l 481 494 l 456 319 l 608 319 m 233 319 l 407 319 l 432 494 l 258 494 l 233 319 z "},"$":{"ha":632,"x_min":68,"x_max":589,"o":"m 333 490 q 408 448 386 461 q 472 403 429 435 q 535 348 515 372 q 572 285 554 324 q 589 206 589 247 q 513 45 589 103 q 333 -14 438 -12 l 333 -50 l 292 -50 l 292 -12 q 177 12 233 -7 q 94 47 121 31 l 68 64 l 68 193 l 99 193 q 292 35 125 47 l 292 356 q 213 403 238 388 q 147 454 189 419 q 88 527 106 489 q 69 611 69 565 q 135 758 69 693 q 292 826 201 824 l 292 861 l 333 861 l 333 825 q 426 801 381 819 q 494 767 472 782 l 515 750 l 515 636 l 485 636 q 439 731 476 692 q 333 778 401 769 l 333 490 m 292 515 l 292 779 q 203 737 233 776 q 174 656 174 697 q 203 581 174 613 q 292 515 233 550 m 333 332 l 333 33 q 475 167 475 38 q 439 256 475 219 q 333 332 403 292 z "},"%":{"ha":756,"x_min":43,"x_max":713,"o":"m 640 785 l 172 28 l 117 28 l 585 785 l 640 785 m 148 732 q 138 713 148 732 q 128 647 128 694 q 148 563 128 600 q 192 525 168 525 q 235 563 215 525 q 256 647 256 601 q 235 732 256 694 q 192 769 215 769 q 148 732 168 769 m 88 527 q 66 552 88 527 q 43 647 43 576 q 88 767 43 718 q 192 817 133 817 q 295 767 250 817 q 340 647 340 718 q 295 527 340 576 q 192 478 250 478 q 88 527 133 478 m 520 250 q 510 231 520 250 q 500 165 500 213 q 520 81 500 118 q 564 43 540 43 q 608 81 588 43 q 628 165 628 118 q 608 250 628 213 q 564 288 588 288 q 520 250 540 288 m 460 45 q 438 70 460 45 q 415 165 415 94 q 460 285 415 236 q 564 335 506 335 q 667 285 622 335 q 713 165 713 236 q 667 45 713 94 q 564 -4 622 -4 q 460 45 506 -4 z "},"&":{"ha":840,"x_min":28,"x_max":796,"o":"m 396 778 q 338 747 351 778 q 324 647 324 715 q 357 496 324 592 q 463 651 463 571 q 445 740 463 703 q 396 778 428 778 m 786 479 l 786 450 q 699 424 707 450 q 565 125 635 219 q 664 61 625 61 q 737 71 717 61 q 779 113 757 81 l 796 99 q 744 16 776 46 q 653 -14 713 -14 q 496 50 574 -14 q 313 -14 417 -14 q 28 176 28 -14 q 46 256 28 219 q 103 326 64 293 q 173 380 143 360 q 258 433 203 400 q 210 658 210 568 q 368 826 210 826 q 478 778 436 826 q 521 668 521 731 q 483 549 521 600 q 376 444 444 497 q 536 161 442 283 q 643 428 585 239 q 558 450 629 450 l 558 479 l 786 479 m 464 79 q 282 374 360 183 q 167 208 167 286 q 364 44 167 44 q 464 79 418 44 z "},"'":{"ha":239,"x_min":57,"x_max":182,"o":"m 163 697 q 119 567 140 567 q 76 697 99 567 q 57 861 57 833 q 119 924 57 924 q 182 861 182 924 q 163 697 182 824 z "},"(":{"ha":338,"x_min":56,"x_max":279,"o":"m 244 -54 q 56 438 56 181 q 244 929 56 694 q 267 944 257 944 q 279 929 279 944 q 276 917 279 925 q 263 886 275 914 q 247 849 250 858 q 232 812 243 840 q 216 767 221 783 q 203 719 211 750 q 190 660 194 688 q 181 596 186 632 q 174 520 176 560 q 172 438 172 481 q 175 333 172 382 q 186 240 178 283 q 200 167 194 196 q 219 99 206 138 q 238 48 233 61 q 259 -2 243 35 q 276 -42 275 -39 q 279 -54 279 -50 q 267 -69 279 -69 q 244 -54 257 -69 z "},")":{"ha":338,"x_min":58,"x_max":282,"o":"m 93 929 q 282 438 282 694 q 93 -54 282 181 q 71 -69 81 -69 q 58 -54 58 -69 q 61 -42 58 -50 q 75 -11 63 -39 q 91 26 88 17 q 106 63 94 35 q 122 108 117 92 q 135 156 126 125 q 147 215 143 188 q 156 279 151 243 q 163 355 161 315 q 165 438 165 394 q 163 542 165 493 q 151 635 160 592 q 138 708 143 679 q 118 776 132 738 q 99 827 104 814 q 78 877 94 840 q 61 917 63 914 q 58 929 58 925 q 71 944 58 944 q 93 929 81 944 z "},"*":{"ha":500,"x_min":61,"x_max":438,"o":"m 178 497 q 130 518 153 497 q 107 561 107 539 q 115 588 107 575 q 167 619 124 599 q 225 642 210 640 q 213 668 213 653 q 213 672 213 669 q 214 676 214 675 q 165 661 203 669 q 104 653 126 653 q 72 667 83 653 q 61 701 61 682 q 78 751 61 729 q 117 774 94 774 q 131 771 119 774 q 177 733 144 767 q 215 683 210 699 q 246 704 225 701 q 211 756 235 713 q 188 813 188 799 q 205 848 188 835 q 249 861 222 861 q 292 848 275 861 q 310 813 310 835 q 286 756 310 799 q 251 704 263 713 q 282 682 274 701 q 319 731 285 694 q 368 771 354 767 q 383 774 379 774 q 421 752 404 774 q 438 703 438 731 q 426 668 438 683 q 394 653 415 653 q 332 661 371 653 q 283 676 293 669 q 285 668 285 674 q 272 642 285 654 q 332 620 288 642 q 385 588 376 599 q 393 563 393 575 q 369 518 393 539 q 319 497 346 497 q 285 515 297 497 q 272 560 278 524 q 267 622 267 596 q 268 638 267 635 q 249 632 261 632 q 231 636 239 632 q 232 619 232 632 q 214 515 232 539 q 178 497 200 497 z "},"+":{"ha":561,"x_min":54,"x_max":507,"o":"m 311 411 l 311 215 l 250 215 l 250 411 l 54 411 l 54 472 l 250 472 l 250 668 l 311 668 l 311 472 l 507 472 l 507 411 l 311 411 z "},",":{"ha":319,"x_min":69,"x_max":261,"o":"m 140 -8 q 90 10 110 -8 q 69 60 69 28 q 96 118 69 97 q 149 139 122 139 q 230 95 199 139 q 261 -8 261 51 q 89 -179 261 -125 l 89 -140 q 160 -102 124 -136 q 197 -25 197 -68 q 194 5 197 0 q 183 10 192 10 q 167 1 179 10 q 140 -8 156 -8 z "},"-":{"ha":539,"x_min":86,"x_max":453,"o":"m 86 472 l 453 472 l 453 411 l 86 411 l 86 472 z "},".":{"ha":306,"x_min":69,"x_max":236,"o":"m 95 12 q 82 25 95 12 q 69 71 69 38 q 92 131 69 104 q 151 158 115 158 q 210 133 183 158 q 236 75 236 108 q 213 14 236 42 q 153 -14 189 -14 q 95 12 121 -14 z "},"/":{"ha":636,"x_min":28,"x_max":608,"o":"m 28 -14 l 568 850 l 608 825 l 68 -39 l 28 -14 z "},":":{"ha":339,"x_min":86,"x_max":253,"o":"m 112 470 q 99 483 112 470 q 86 529 86 496 q 109 590 86 563 q 168 617 132 617 q 226 592 200 617 q 253 533 253 567 q 229 472 253 500 q 169 444 206 444 q 112 470 138 444 m 112 12 q 99 25 112 12 q 86 71 86 38 q 109 131 86 104 q 168 158 132 158 q 226 133 200 158 q 253 75 253 108 q 229 14 253 42 q 169 -14 206 -14 q 112 12 138 -14 z "},";":{"ha":364,"x_min":89,"x_max":281,"o":"m 124 470 q 111 483 124 470 q 99 529 99 496 q 122 590 99 563 q 181 617 144 617 q 239 592 213 617 q 265 533 265 567 q 242 472 265 500 q 182 444 218 444 q 124 470 150 444 m 160 -8 q 109 10 129 -8 q 89 60 89 28 q 115 118 89 97 q 168 139 142 139 q 249 95 218 139 q 281 -8 281 51 q 108 -179 281 -125 l 108 -140 q 180 -102 143 -136 q 217 -25 217 -68 q 214 5 217 0 q 203 10 211 10 q 187 1 199 10 q 160 -8 175 -8 z "},"<":{"ha":646,"x_min":42,"x_max":553,"o":"m 42 472 l 553 711 l 553 656 l 94 442 l 553 228 l 553 172 l 42 411 l 42 472 z "},"=":{"ha":672,"x_min":90,"x_max":582,"o":"m 90 389 l 582 389 l 582 328 l 90 328 l 90 389 m 90 556 l 582 556 l 582 494 l 90 494 l 90 556 z "},">":{"ha":646,"x_min":93,"x_max":604,"o":"m 604 411 l 93 172 l 93 228 l 551 442 l 93 656 l 93 711 l 604 472 l 604 411 z "},"?":{"ha":547,"x_min":40,"x_max":503,"o":"m 195 12 q 182 25 195 12 q 169 71 169 38 q 192 131 169 104 q 251 158 215 158 q 310 133 283 158 q 336 75 336 108 q 313 14 336 42 q 253 -14 289 -14 q 195 12 221 -14 m 232 278 q 255 381 232 331 q 305 467 278 432 q 355 556 332 503 q 378 667 378 610 q 347 794 378 754 q 246 833 317 833 q 158 801 193 833 q 124 735 124 769 q 134 699 124 718 q 144 665 144 681 q 131 631 144 644 q 99 618 118 618 q 58 635 75 618 q 40 689 40 653 q 97 817 40 760 q 260 875 154 875 q 445 809 388 875 q 503 660 503 743 q 466 548 503 606 q 385 449 429 490 q 305 361 342 408 q 268 278 268 314 q 262 265 268 271 q 250 258 256 258 q 238 265 244 258 q 232 278 232 271 z "},"@":{"ha":869,"x_min":61,"x_max":822,"o":"m 344 221 q 263 261 292 221 q 235 360 235 301 q 298 529 235 451 q 431 607 361 607 q 535 518 513 607 l 554 592 l 628 592 l 546 282 q 544 274 544 279 q 576 253 544 253 q 658 299 622 253 q 708 393 694 346 q 722 469 722 440 q 701 624 722 561 q 640 717 679 688 q 560 757 600 746 q 469 768 521 768 q 224 669 329 768 q 119 400 119 571 q 178 205 119 290 q 314 80 236 119 q 469 40 392 40 q 587 60 532 40 q 674 101 642 79 q 737 160 706 122 q 776 212 768 197 q 800 253 785 226 l 822 242 q 688 56 771 125 q 461 -14 604 -14 q 185 102 310 -14 q 61 394 61 218 q 181 709 61 592 q 464 826 300 826 q 690 737 600 826 q 781 481 781 647 q 766 398 781 443 q 724 308 751 353 q 649 233 697 263 q 543 203 601 203 q 496 219 518 203 q 474 274 474 236 q 475 296 474 288 q 344 221 414 221 m 507 469 q 489 538 507 510 q 436 565 471 565 q 340 506 385 565 q 296 375 296 446 q 314 308 296 335 q 367 281 332 281 q 463 339 418 281 q 507 469 507 397 z "},"A":{"ha":758,"x_min":-11,"x_max":771,"o":"m 467 0 l 467 29 q 547 46 531 29 l 469 258 l 203 258 l 131 54 q 217 29 144 29 l 217 0 l -11 0 l -11 29 q 76 58 67 29 l 346 813 l 413 813 l 682 58 q 771 29 692 29 l 771 0 l 467 0 m 335 628 l 219 304 l 453 304 l 335 628 z "},"B":{"ha":775,"x_min":58,"x_max":725,"o":"m 274 403 l 274 47 l 392 47 q 586 236 586 47 q 538 352 586 301 q 375 403 489 403 l 274 403 m 274 765 l 274 443 l 331 443 q 525 619 525 443 q 314 765 525 765 l 274 765 m 58 0 l 58 29 q 146 57 133 29 l 146 756 q 58 783 133 783 l 58 813 l 314 813 q 576 756 488 813 q 664 621 664 699 q 517 429 664 479 q 673 352 621 406 q 725 238 725 299 q 641 66 725 132 q 392 0 557 0 l 58 0 z "},"C":{"ha":781,"x_min":58,"x_max":744,"o":"m 481 779 q 282 681 361 779 q 203 425 203 582 q 286 138 203 242 q 486 33 369 33 q 624 81 556 33 q 711 183 692 129 l 744 167 q 644 38 713 90 q 458 -14 575 -14 q 166 106 274 -14 q 58 394 58 226 q 183 708 58 589 q 479 826 307 826 q 572 806 519 826 q 633 785 625 785 q 650 813 650 785 l 682 813 l 696 636 l 665 636 q 610 739 656 699 q 481 779 565 779 z "},"D":{"ha":849,"x_min":58,"x_max":788,"o":"m 58 0 l 58 29 q 146 57 133 29 l 146 756 q 58 783 133 783 l 58 813 l 378 813 q 675 701 563 813 q 788 408 788 589 q 678 114 788 228 q 394 0 568 0 l 58 0 m 274 772 l 274 47 l 394 47 q 481 67 439 47 q 563 128 524 88 q 625 240 601 168 q 649 407 649 313 q 567 680 649 588 q 378 772 486 772 l 274 772 z "},"E":{"ha":704,"x_min":58,"x_max":681,"o":"m 58 0 l 58 29 q 146 57 133 29 l 146 756 q 58 783 133 783 l 58 813 l 618 813 l 618 678 l 589 678 q 561 765 589 753 l 274 765 l 274 446 l 468 446 q 496 533 496 458 l 525 533 l 525 311 l 496 311 q 468 399 496 386 l 274 399 l 274 47 l 590 47 q 653 135 625 63 l 681 135 l 647 0 l 58 0 z "},"F":{"ha":653,"x_min":58,"x_max":618,"o":"m 58 0 l 58 29 q 146 57 133 29 l 146 756 q 58 783 133 783 l 58 813 l 618 813 l 618 678 l 589 678 q 561 765 589 753 l 274 765 l 274 446 l 468 446 q 496 533 496 458 l 525 533 l 525 311 l 496 311 q 468 399 496 386 l 274 399 l 274 57 q 361 29 286 29 l 361 0 l 58 0 z "},"G":{"ha":857,"x_min":56,"x_max":835,"o":"m 492 779 q 286 667 372 779 q 200 397 200 556 q 225 228 200 301 q 292 113 250 154 q 379 53 333 72 q 472 33 425 33 q 619 60 550 33 l 619 344 q 532 372 607 372 l 532 401 l 835 401 l 835 372 q 747 344 760 372 l 747 111 q 652 26 724 67 q 469 -14 581 -14 q 169 107 283 -14 q 56 394 56 228 q 186 707 56 588 q 490 826 317 826 q 590 806 531 826 q 658 785 650 785 q 675 813 675 785 l 707 813 l 721 636 l 690 636 q 629 738 682 697 q 492 779 576 779 z "},"H":{"ha":903,"x_min":58,"x_max":844,"o":"m 58 0 l 58 29 q 146 57 133 29 l 146 756 q 58 783 133 783 l 58 813 l 361 813 l 361 783 q 274 756 286 783 l 274 446 l 629 446 l 629 756 q 542 783 617 783 l 542 813 l 844 813 l 844 783 q 757 756 769 783 l 757 57 q 844 29 769 29 l 844 0 l 542 0 l 542 29 q 629 57 617 29 l 629 399 l 274 399 l 274 57 q 361 29 286 29 l 361 0 l 58 0 z "},"I":{"ha":419,"x_min":58,"x_max":361,"o":"m 58 0 l 58 29 q 146 57 133 29 l 146 756 q 58 783 133 783 l 58 813 l 361 813 l 361 783 q 274 756 286 783 l 274 57 q 361 29 286 29 l 361 0 l 58 0 z "},"J":{"ha":572,"x_min":10,"x_max":536,"o":"m 449 239 q 438 149 449 190 q 402 69 426 107 q 331 8 378 31 q 218 -14 283 -14 q 65 26 119 -14 q 10 111 10 65 q 26 162 10 143 q 69 181 43 181 q 113 168 94 181 q 132 132 132 156 q 97 74 132 85 q 204 36 135 36 q 258 48 236 36 q 293 78 281 60 q 312 133 306 97 q 319 201 318 168 q 321 289 321 233 l 321 756 q 233 783 308 783 l 233 813 l 536 813 l 536 783 q 449 756 461 783 l 449 239 z "},"K":{"ha":804,"x_min":58,"x_max":814,"o":"m 58 0 l 58 29 q 146 57 133 29 l 146 756 q 58 783 133 783 l 58 813 l 358 813 l 358 783 q 271 756 283 783 l 271 57 q 358 29 283 29 l 358 0 l 58 0 m 543 0 l 543 29 q 594 33 575 29 l 278 436 l 618 774 q 547 783 599 783 l 547 813 l 765 813 l 765 783 q 679 751 707 783 l 400 475 l 726 51 q 814 29 749 29 l 814 0 l 543 0 z "},"L":{"ha":688,"x_min":58,"x_max":681,"o":"m 58 0 l 58 29 q 146 57 133 29 l 146 756 q 58 783 133 783 l 58 813 l 361 813 l 361 783 q 274 756 286 783 l 274 47 l 590 47 q 653 135 625 63 l 681 135 l 647 0 l 58 0 z "},"M":{"ha":1117,"x_min":58,"x_max":1058,"o":"m 58 0 l 58 29 q 146 57 133 29 l 146 756 q 58 783 133 783 l 58 813 l 261 813 l 557 167 l 853 813 l 1058 813 l 1058 783 q 971 756 983 783 l 971 57 q 1058 29 983 29 l 1058 0 l 756 0 l 756 29 q 843 57 831 29 l 843 681 l 532 0 l 511 0 l 193 689 l 193 57 q 281 29 206 29 l 281 0 l 58 0 z "},"N":{"ha":885,"x_min":58,"x_max":839,"o":"m 58 0 l 58 29 q 146 57 133 29 l 146 756 q 58 783 133 783 l 58 813 l 244 813 l 704 244 l 704 756 q 617 783 692 783 l 617 813 l 839 813 l 839 783 q 751 756 764 783 l 751 0 l 739 0 l 193 690 l 193 57 q 281 29 206 29 l 281 0 l 58 0 z "},"O":{"ha":890,"x_min":61,"x_max":831,"o":"m 200 417 q 226 241 200 325 q 310 95 251 157 q 451 33 369 33 q 590 92 533 33 q 669 228 646 150 q 692 394 692 307 q 665 570 692 485 q 580 717 639 656 q 440 779 521 779 q 330 746 378 779 q 255 658 282 713 q 214 542 228 603 q 200 417 200 481 m 61 406 q 169 703 61 579 q 446 826 278 826 q 722 703 614 826 q 831 406 831 579 q 722 109 831 232 q 446 -14 613 -14 q 169 108 276 -14 q 61 406 61 231 z "},"P":{"ha":747,"x_min":58,"x_max":722,"o":"m 58 0 l 58 29 q 146 57 133 29 l 146 756 q 58 783 133 783 l 58 813 l 372 813 q 633 747 543 813 q 722 601 722 682 q 639 433 722 497 q 389 369 556 369 l 274 369 l 274 57 q 361 29 286 29 l 361 0 l 58 0 m 274 765 l 274 417 l 389 417 q 540 459 496 417 q 583 600 583 501 q 372 765 583 765 l 274 765 z "},"Q":{"ha":890,"x_min":61,"x_max":929,"o":"m 61 406 q 169 703 61 579 q 446 826 278 826 q 722 703 614 826 q 831 406 831 579 q 787 206 831 299 q 665 57 743 114 q 684 21 671 46 q 703 -15 697 -4 q 722 -44 710 -26 q 744 -70 735 -62 q 768 -85 754 -78 q 797 -92 782 -92 q 858 -76 831 -92 q 897 -44 886 -60 l 908 -28 l 929 -43 q 924 -53 928 -47 q 909 -77 921 -60 q 883 -108 897 -94 q 846 -131 869 -121 q 797 -142 822 -142 q 653 -102 706 -142 q 565 6 601 -62 q 446 -14 507 -14 q 169 108 276 -14 q 61 406 61 231 m 321 85 q 451 33 376 33 q 542 54 503 33 q 501 120 521 99 q 453 142 482 142 q 321 85 375 142 m 619 126 q 692 394 692 231 q 665 570 692 485 q 580 717 639 656 q 440 779 521 779 q 330 746 378 779 q 255 658 282 713 q 214 542 228 603 q 200 417 200 481 q 297 108 200 222 q 461 203 360 203 q 619 126 557 203 z "},"R":{"ha":807,"x_min":58,"x_max":817,"o":"m 58 0 l 58 29 q 146 57 133 29 l 146 756 q 58 783 133 783 l 58 813 l 372 813 q 633 750 544 813 q 722 607 722 688 q 676 473 722 531 q 540 389 631 415 l 725 58 q 817 29 739 29 l 817 0 l 757 0 q 631 11 660 0 q 572 72 601 22 l 404 369 l 274 369 l 274 57 q 361 29 286 29 l 361 0 l 58 0 m 274 765 l 274 417 l 389 417 q 542 460 500 417 q 583 606 583 503 q 537 724 583 682 q 372 765 490 765 l 274 765 z "},"S":{"ha":664,"x_min":71,"x_max":619,"o":"m 346 -14 q 207 7 278 -14 q 133 28 136 28 q 114 19 125 28 q 103 0 103 11 l 71 0 l 71 193 l 101 193 q 184 72 117 110 q 338 33 251 33 q 458 67 411 33 q 506 167 506 100 q 492 222 506 197 q 452 269 479 247 q 400 305 425 290 q 335 341 375 319 q 275 375 296 363 q 203 422 226 406 q 142 469 179 438 q 89 536 106 501 q 72 611 72 571 q 147 760 72 693 q 315 826 222 826 q 415 806 356 826 q 483 785 475 785 q 500 813 500 785 l 532 813 l 546 636 l 515 636 q 454 738 507 697 q 317 779 401 779 q 215 738 253 779 q 176 656 176 697 q 189 606 176 629 q 228 564 201 583 q 278 530 254 544 q 341 494 301 515 q 401 461 381 474 q 483 410 458 426 q 548 358 508 393 q 603 287 588 324 q 619 206 619 250 q 536 44 619 103 q 346 -14 453 -14 z "},"T":{"ha":747,"x_min":25,"x_max":722,"o":"m 25 813 l 722 813 l 722 678 l 693 678 q 665 765 693 753 l 438 765 l 438 57 q 525 29 450 29 l 525 0 l 222 0 l 222 29 q 310 57 297 29 l 310 765 l 82 765 q 54 678 54 753 l 25 678 l 25 813 z "},"U":{"ha":858,"x_min":35,"x_max":824,"o":"m 469 33 q 626 111 563 33 q 689 317 689 189 l 689 756 q 601 783 676 783 l 601 813 l 824 813 l 824 783 q 736 756 749 783 l 736 344 q 656 75 736 164 q 456 -14 576 -14 q 122 344 122 -14 l 122 756 q 35 783 110 783 l 35 813 l 338 813 l 338 783 q 250 756 263 783 l 250 325 q 311 110 250 188 q 469 33 372 33 z "},"V":{"ha":756,"x_min":-14,"x_max":768,"o":"m 290 813 l 290 783 q 210 767 226 783 l 422 185 l 626 758 q 540 783 613 783 l 540 813 l 768 813 l 768 783 q 683 761 690 783 l 411 0 l 344 0 l 75 754 q -14 783 64 783 l -14 813 l 290 813 z "},"W":{"ha":1168,"x_min":-14,"x_max":1181,"o":"m 703 813 l 703 783 q 622 767 639 783 l 835 185 l 1039 758 q 953 783 1025 783 l 953 813 l 1181 813 l 1181 783 q 1093 754 1103 783 l 824 0 l 757 0 l 583 485 l 411 0 l 344 0 l 75 754 q -14 783 64 783 l -14 813 l 290 813 l 290 783 q 210 767 226 783 l 422 186 l 556 563 l 488 754 q 399 783 478 783 l 399 813 l 703 813 z "},"X":{"ha":721,"x_min":8,"x_max":726,"o":"m 313 813 l 313 783 q 232 767 247 783 l 383 501 l 549 761 q 464 783 535 783 l 464 813 l 692 813 l 692 783 q 608 760 624 783 l 411 453 l 638 58 q 726 29 653 29 l 726 0 l 422 0 l 422 29 q 503 46 488 29 l 338 336 l 154 51 q 239 29 168 29 l 239 0 l 11 0 l 11 29 q 100 60 81 29 l 308 385 l 97 756 q 8 783 82 783 l 8 813 l 313 813 z "},"Y":{"ha":782,"x_min":-12,"x_max":790,"o":"m 292 813 l 292 783 q 211 767 226 783 l 426 390 l 649 758 q 563 783 633 783 l 563 813 l 790 813 l 790 783 q 711 765 732 783 l 461 350 l 461 57 q 549 29 474 29 l 549 0 l 246 0 l 246 29 q 333 57 321 29 l 333 306 l 76 756 q -12 783 57 783 l -12 813 l 292 813 z "},"Z":{"ha":694,"x_min":24,"x_max":660,"o":"m 624 0 l 24 0 l 465 771 l 128 771 q 100 683 100 758 l 71 683 l 71 813 l 631 813 l 189 42 l 567 42 q 631 133 610 60 l 660 133 l 624 0 z "},"[":{"ha":400,"x_min":103,"x_max":375,"o":"m 214 804 l 214 -167 l 375 -167 l 375 -217 l 103 -217 l 103 854 l 375 854 l 375 804 l 214 804 z "},"\\":{"ha":636,"x_min":28,"x_max":608,"o":"m 608 -14 l 568 -39 l 28 825 l 68 850 l 608 -14 z "},"]":{"ha":400,"x_min":25,"x_max":297,"o":"m 186 -167 l 186 804 l 25 804 l 25 854 l 297 854 l 297 -217 l 25 -217 l 25 -167 l 186 -167 z "},"^":{"ha":633,"x_min":69,"x_max":564,"o":"m 335 750 l 564 478 l 517 439 l 317 678 l 117 439 l 69 478 l 297 750 l 335 750 z "},"_":{"ha":622,"x_min":58,"x_max":564,"o":"m 58 -69 l 564 -69 l 564 -131 l 58 -131 l 58 -69 z "},"`":{"ha":417,"x_min":83,"x_max":333,"o":"m 231 919 l 333 694 l 297 694 l 83 919 l 231 919 z "},"a":{"ha":671,"x_min":44,"x_max":683,"o":"m 156 508 q 190 494 175 508 q 204 451 204 481 q 185 415 204 428 q 142 403 167 403 q 99 422 115 403 q 82 472 82 440 q 142 585 82 544 q 311 625 201 625 q 501 561 440 625 q 561 392 561 497 l 561 117 q 576 51 561 72 q 611 31 590 31 q 644 40 629 31 q 658 64 658 50 l 683 64 q 655 7 683 25 q 556 -11 626 -11 q 457 46 486 -11 q 253 -14 375 -14 q 44 156 44 -14 q 70 221 44 192 q 144 269 96 250 q 236 301 193 289 q 344 327 279 313 q 436 350 408 342 q 406 521 436 467 q 297 575 375 575 q 156 508 172 575 m 444 81 q 436 156 436 111 l 436 319 q 384 304 421 314 q 324 288 347 294 q 269 267 301 281 q 219 239 238 253 q 188 202 201 225 q 174 153 174 179 q 199 60 174 86 q 276 33 225 33 q 444 81 368 33 z "},"b":{"ha":747,"x_min":7,"x_max":693,"o":"m 94 776 q 7 783 8 783 l 7 815 q 110 845 33 815 q 219 875 188 875 l 219 565 q 410 631 288 631 q 501 615 456 631 q 591 565 546 599 q 665 464 636 531 q 693 308 693 397 q 606 69 693 153 q 379 -14 519 -14 q 214 39 279 -14 q 94 -14 138 -14 l 94 776 m 219 518 l 219 82 q 371 33 275 33 q 504 106 447 33 q 561 308 561 179 q 515 507 561 431 q 396 583 469 583 q 219 518 279 583 z "},"c":{"ha":665,"x_min":54,"x_max":629,"o":"m 378 583 q 239 518 292 583 q 186 342 186 453 q 252 131 186 224 q 401 39 318 39 q 596 131 522 39 l 629 114 q 524 17 589 47 q 354 -14 460 -14 q 253 2 301 -14 q 157 55 204 18 q 82 164 110 92 q 54 336 54 236 q 140 541 54 457 q 364 625 225 625 q 533 588 474 625 q 593 478 593 550 q 576 427 593 446 q 533 408 560 408 q 490 421 508 408 q 471 457 471 433 q 485 500 471 486 q 519 514 500 514 q 378 583 501 583 z "},"d":{"ha":746,"x_min":54,"x_max":717,"o":"m 504 597 l 504 776 q 417 783 504 776 l 417 815 q 520 845 443 815 q 629 875 597 875 l 629 85 l 717 78 l 717 46 q 613 16 690 46 q 504 -14 536 -14 l 504 32 q 338 -14 438 -14 q 247 2 292 -14 q 156 52 201 18 q 83 153 111 86 q 54 308 54 219 q 141 547 54 464 q 368 631 228 631 q 504 597 447 631 m 504 554 q 376 583 454 583 q 243 510 300 583 q 186 308 186 436 q 235 128 186 224 q 351 33 285 33 q 504 78 443 33 l 504 554 z "},"e":{"ha":685,"x_min":54,"x_max":632,"o":"m 186 335 q 253 128 188 218 q 401 39 319 39 q 596 131 522 39 l 629 114 q 524 17 589 47 q 354 -14 460 -14 q 253 2 301 -14 q 157 55 204 18 q 82 164 110 92 q 54 336 54 236 q 130 542 54 458 q 340 625 206 625 q 560 542 488 625 q 632 335 632 460 l 186 335 m 188 378 l 496 378 q 453 531 488 478 q 335 583 419 583 q 241 526 286 583 q 188 378 196 469 z "},"f":{"ha":376,"x_min":36,"x_max":461,"o":"m 461 793 q 445 756 461 769 q 404 742 429 742 q 369 756 381 742 q 355 788 357 771 q 342 819 353 804 q 310 833 332 833 q 266 793 283 833 q 249 678 249 753 l 249 611 l 335 611 l 335 569 l 249 569 l 249 57 q 336 29 261 29 l 336 0 l 36 0 l 36 29 q 124 57 111 29 l 124 569 l 54 569 l 54 611 l 124 611 l 124 658 q 171 824 124 772 q 296 875 218 875 q 419 850 378 875 q 461 793 461 825 z "},"g":{"ha":722,"x_min":54,"x_max":628,"o":"m 628 625 l 628 40 q 559 -190 628 -103 q 358 -278 490 -278 q 169 -237 240 -278 q 97 -153 97 -197 q 114 -102 97 -121 q 157 -83 131 -83 q 201 -96 182 -83 q 219 -132 219 -108 q 185 -190 219 -176 q 344 -228 222 -228 q 501 28 488 -228 q 338 -14 438 -14 q 247 1 292 -14 q 156 49 201 15 q 83 148 111 82 q 54 303 54 214 q 141 542 54 458 q 368 625 228 625 q 521 581 456 625 q 628 625 592 625 m 503 74 l 503 90 l 503 549 q 376 578 453 578 q 243 505 300 578 q 186 303 186 432 q 232 107 186 181 q 351 33 278 33 q 503 74 443 33 z "},"h":{"ha":764,"x_min":29,"x_max":739,"o":"m 29 0 l 29 29 q 117 57 104 29 l 117 776 q 29 783 31 783 l 29 815 q 133 845 56 815 q 242 875 210 875 l 242 561 q 407 625 317 625 q 595 582 539 625 q 651 433 651 539 l 651 57 q 739 29 664 29 l 739 0 l 439 0 l 439 29 q 526 57 514 29 l 526 443 q 399 578 526 578 q 242 517 311 578 l 242 57 q 329 29 254 29 l 329 0 l 29 0 z "},"i":{"ha":372,"x_min":43,"x_max":343,"o":"m 43 0 l 43 29 q 131 57 118 29 l 131 526 q 43 533 44 533 l 43 565 q 147 595 69 565 q 256 625 224 625 l 256 57 q 343 29 268 29 l 343 0 l 43 0 m 189 714 q 135 737 158 714 q 113 796 113 760 q 133 851 113 828 q 185 875 153 875 q 239 851 215 875 q 263 792 263 828 q 242 737 263 760 q 189 714 221 714 z "},"j":{"ha":338,"x_min":-124,"x_max":250,"o":"m 176 714 q 123 737 146 714 q 100 796 100 760 q 120 851 100 828 q 172 875 140 875 q 226 851 203 875 q 250 792 250 828 q 229 737 250 760 q 176 714 208 714 m 118 526 l 31 533 l 31 565 q 134 595 57 565 q 243 625 211 625 l 243 -61 q 190 -226 243 -174 q 57 -278 136 -278 q -124 -157 -124 -278 q -105 -117 -124 -132 q -64 -101 -86 -101 q -26 -117 -42 -101 q -10 -156 -10 -132 q -24 -189 -10 -175 q -4 -224 -24 -212 q 43 -236 15 -236 q 94 -195 71 -236 q 118 -81 118 -154 l 118 526 z "},"k":{"ha":696,"x_min":29,"x_max":701,"o":"m 29 0 l 29 29 q 117 57 104 29 l 117 776 q 29 783 31 783 l 29 815 q 133 845 56 815 q 242 875 210 875 l 242 57 q 329 29 254 29 l 329 0 l 29 0 m 431 0 l 431 29 q 483 33 464 29 l 251 353 l 497 574 q 429 582 476 582 l 429 611 l 647 611 l 647 582 q 572 564 596 582 l 375 388 l 614 56 q 701 29 633 29 l 701 0 l 431 0 z "},"l":{"ha":358,"x_min":29,"x_max":329,"o":"m 29 0 l 29 29 q 117 57 104 29 l 117 776 q 29 783 31 783 l 29 815 q 133 845 56 815 q 242 875 210 875 l 242 57 q 329 29 254 29 l 329 0 l 29 0 z "},"m":{"ha":1143,"x_min":43,"x_max":1118,"o":"m 43 0 l 43 29 q 131 57 118 29 l 131 526 q 43 533 44 533 l 43 565 q 147 595 69 565 q 256 625 224 625 l 256 563 q 410 625 329 625 q 624 544 576 625 q 797 625 701 625 q 1031 467 1031 625 l 1031 57 q 1118 29 1043 29 l 1118 0 l 818 0 l 818 29 q 906 57 893 29 l 906 415 q 879 542 906 506 q 789 578 853 578 q 638 511 707 578 q 643 467 643 493 l 643 57 q 731 29 656 29 l 731 0 l 431 0 l 431 29 q 518 57 506 29 l 518 415 q 492 542 518 506 q 401 578 465 578 q 256 517 322 578 l 256 57 q 343 29 268 29 l 343 0 l 43 0 z "},"n":{"ha":776,"x_min":43,"x_max":753,"o":"m 43 0 l 43 29 q 131 57 118 29 l 131 526 q 43 533 44 533 l 43 565 q 147 595 69 565 q 256 625 224 625 l 256 561 q 421 625 331 625 q 608 577 550 625 q 665 428 665 529 l 665 57 q 753 29 678 29 l 753 0 l 453 0 l 453 29 q 540 57 528 29 l 540 438 q 413 578 540 578 q 256 517 325 578 l 256 57 q 343 29 268 29 l 343 0 l 43 0 z "},"o":{"ha":757,"x_min":54,"x_max":703,"o":"m 188 344 q 248 107 188 186 q 403 28 308 28 q 524 95 478 28 q 569 268 569 163 q 351 582 569 582 q 233 512 278 582 q 188 344 188 442 m 385 -14 q 142 77 229 -14 q 54 317 54 168 q 133 538 54 451 q 375 625 213 625 q 621 538 539 625 q 703 300 703 451 q 624 76 703 165 q 385 -14 546 -14 z "},"p":{"ha":747,"x_min":31,"x_max":693,"o":"m 31 -267 l 31 -237 q 118 -210 106 -237 l 118 526 q 31 533 118 526 l 31 565 q 134 595 57 565 q 243 625 211 625 l 243 579 q 410 625 310 625 q 501 609 456 625 q 591 559 546 593 q 665 458 636 525 q 693 303 693 392 q 607 67 693 149 q 379 -14 521 -14 q 243 17 299 -14 l 243 -210 q 331 -237 256 -237 l 331 -267 l 31 -267 m 243 61 q 371 33 296 33 q 504 104 447 33 q 561 303 561 175 q 512 483 561 388 q 396 578 463 578 q 243 533 300 578 l 243 61 z "},"q":{"ha":726,"x_min":54,"x_max":719,"o":"m 419 -267 l 419 -237 q 507 -210 494 -237 l 507 32 q 338 -14 440 -14 q 247 1 292 -14 q 156 49 201 15 q 83 148 111 82 q 54 303 54 214 q 141 542 54 458 q 368 625 228 625 q 524 579 461 625 q 632 625 596 625 l 632 -210 q 719 -237 644 -237 l 719 -267 l 419 -267 m 507 76 l 507 546 q 376 578 457 578 q 243 505 300 578 q 186 303 186 432 q 232 107 186 181 q 351 33 278 33 q 507 76 447 33 z "},"r":{"ha":549,"x_min":43,"x_max":540,"o":"m 43 0 l 43 29 q 131 57 118 29 l 131 526 q 43 533 44 533 l 43 565 q 147 595 69 565 q 256 625 224 625 l 256 564 q 393 625 325 625 q 498 601 456 625 q 540 549 540 578 q 485 499 540 499 q 432 538 456 499 q 378 578 408 578 q 256 518 324 578 l 256 57 q 343 29 268 29 l 343 0 l 43 0 z "},"s":{"ha":563,"x_min":63,"x_max":517,"o":"m 288 28 q 373 53 326 28 q 419 128 419 78 q 254 267 419 208 q 188 293 214 281 q 132 328 163 306 q 86 382 101 350 q 71 457 71 414 q 128 580 71 535 q 265 625 185 625 q 362 604 313 625 q 418 583 411 583 q 435 611 435 583 l 467 611 l 467 444 l 436 444 q 380 543 428 503 q 269 583 332 583 q 195 563 225 583 q 165 506 165 542 q 174 467 165 485 q 190 440 182 450 q 222 417 199 429 q 256 399 244 404 q 299 383 268 394 q 342 368 331 372 q 465 290 414 340 q 517 172 517 239 q 449 37 517 88 q 276 -14 381 -14 q 179 10 226 -14 q 126 33 132 33 q 107 22 118 33 q 96 0 96 11 l 63 0 l 63 196 l 93 196 q 159 76 103 125 q 288 28 215 28 z "},"t":{"ha":463,"x_min":19,"x_max":442,"o":"m 250 813 l 250 611 l 369 611 l 369 569 l 250 569 l 250 128 q 265 62 250 85 q 322 39 281 39 q 373 63 347 39 q 408 131 399 88 l 442 114 q 275 -14 413 -14 q 117 139 117 -14 l 117 569 l 19 569 l 19 611 q 138 665 85 611 q 190 813 190 719 l 250 813 z "},"u":{"ha":764,"x_min":24,"x_max":733,"o":"m 646 85 q 733 78 646 85 l 733 46 q 630 16 707 46 q 521 -14 553 -14 l 521 50 q 356 -14 446 -14 q 169 34 226 -14 q 111 183 111 82 l 111 554 q 24 582 99 582 l 24 611 l 236 611 l 236 174 q 364 33 236 33 q 521 94 451 33 l 521 554 q 433 582 508 582 l 433 611 l 646 611 l 646 85 z "},"v":{"ha":671,"x_min":-7,"x_max":678,"o":"m 263 611 l 263 582 q 204 576 222 582 l 369 169 l 528 567 q 450 582 508 582 l 450 611 l 678 611 l 678 582 q 592 556 601 582 l 369 0 l 301 0 l 81 554 q -7 582 68 582 l -7 611 l 263 611 z "},"w":{"ha":1056,"x_min":-7,"x_max":1063,"o":"m 263 611 l 263 582 q 204 576 222 582 l 369 169 l 494 482 l 465 554 q 378 582 453 582 l 378 611 l 647 611 l 647 582 q 589 576 607 582 l 754 169 l 913 567 q 835 582 893 582 l 835 611 l 1063 611 l 1063 582 q 976 556 988 582 l 754 0 l 686 0 l 528 397 l 369 0 l 301 0 l 81 554 q -7 582 68 582 l -7 611 l 263 611 z "},"x":{"ha":649,"x_min":10,"x_max":650,"o":"m 608 611 l 608 582 q 515 556 536 582 l 379 353 l 564 56 q 650 29 579 29 l 650 0 l 381 0 l 381 29 q 433 33 414 29 l 304 242 l 168 39 q 238 29 186 29 l 238 0 l 10 0 l 10 29 q 104 58 83 29 l 267 300 l 106 560 q 24 582 92 582 l 24 611 l 293 611 l 293 582 q 239 578 260 582 l 342 411 l 450 572 q 381 582 432 582 l 381 611 l 608 611 z "},"y":{"ha":671,"x_min":-7,"x_max":678,"o":"m 263 611 l 263 582 q 204 576 222 582 l 369 169 l 528 567 q 450 582 508 582 l 450 611 l 678 611 l 678 582 q 592 557 603 582 l 313 -142 q 245 -237 286 -207 q 167 -267 204 -267 q 112 -249 132 -267 q 92 -206 92 -231 q 106 -168 92 -185 q 146 -151 121 -151 q 178 -163 161 -151 q 203 -175 194 -175 q 242 -150 232 -175 l 301 0 l 81 554 q -7 582 68 582 l -7 611 l 263 611 z "},"z":{"ha":590,"x_min":24,"x_max":549,"o":"m 538 0 l 24 0 l 392 569 l 125 569 q 97 482 97 557 l 68 482 l 68 611 l 549 611 l 181 42 l 481 42 q 508 129 508 54 l 538 129 l 538 0 z "},"{":{"ha":364,"x_min":31,"x_max":325,"o":"m 122 -85 q 128 69 122 -49 q 135 208 135 186 q 110 273 135 256 q 31 290 85 290 l 31 322 q 109 340 83 322 q 135 406 135 358 q 128 544 135 428 q 122 697 122 661 q 325 825 122 825 l 325 793 q 244 775 271 793 q 218 710 218 757 q 226 571 218 688 q 233 418 233 454 q 150 307 233 336 q 233 196 233 278 q 226 42 233 160 q 218 -97 218 -75 q 244 -162 218 -144 q 325 -179 271 -179 l 325 -212 q 122 -85 122 -212 z "},"|":{"ha":261,"x_min":106,"x_max":156,"o":"m 106 903 l 156 903 l 156 -42 l 106 -42 l 106 903 z "},"}":{"ha":364,"x_min":39,"x_max":333,"o":"m 242 697 q 235 544 242 661 q 229 404 229 426 q 254 340 229 357 q 333 322 279 322 l 333 290 q 255 272 281 290 q 229 207 229 254 q 235 68 229 185 q 242 -85 242 -49 q 39 -212 242 -212 l 39 -181 q 119 -162 93 -181 q 146 -97 146 -144 q 138 42 146 -75 q 131 194 131 158 q 214 306 131 276 q 131 417 131 335 q 138 570 131 453 q 146 710 146 688 q 119 774 146 757 q 39 792 93 792 l 39 825 q 242 697 242 825 z "},"~":{"ha":757,"x_min":83,"x_max":679,"o":"m 536 289 q 366 337 496 289 q 211 385 236 385 q 139 361 158 385 q 119 289 119 338 l 83 289 q 225 472 83 472 q 396 424 265 472 q 551 376 526 376 q 624 400 604 376 q 643 472 643 424 l 679 472 q 536 289 679 289 z "}," ":{"ha":333,"x_min":0,"x_max":0,"o":""},"¡":{"ha":324,"x_min":78,"x_max":244,"o":"m 219 710 q 232 698 219 710 q 244 651 244 685 q 222 591 244 618 q 163 564 199 564 q 104 589 131 564 q 78 647 78 614 q 101 708 78 681 q 161 736 125 736 q 219 710 193 736 m 131 369 q 163 464 142 464 q 194 369 183 464 q 215 151 199 343 q 231 -90 231 -40 q 212 -137 231 -121 q 163 -153 193 -153 q 113 -137 132 -153 q 94 -90 94 -121 q 110 153 94 -40 q 131 369 126 346 z "},"¢":{"ha":657,"x_min":43,"x_max":618,"o":"m 403 796 l 453 786 l 424 621 q 582 478 582 599 q 565 427 582 446 q 522 408 549 408 q 478 421 497 408 q 460 457 460 433 q 474 500 460 486 q 508 514 489 514 q 417 581 493 569 l 325 56 q 390 39 356 39 q 585 131 511 39 l 618 114 q 513 17 578 47 q 343 -14 449 -14 q 313 -12 322 -14 l 283 -178 l 232 -168 l 261 -4 q 105 101 167 19 q 43 336 43 182 q 128 541 43 457 q 353 625 214 625 l 372 625 l 403 796 m 278 89 l 365 583 q 228 517 281 582 q 175 342 175 451 q 203 200 175 268 q 278 89 232 132 z "},"£":{"ha":740,"x_min":40,"x_max":700,"o":"m 476 100 q 581 113 538 100 q 642 140 625 125 q 672 168 660 156 q 686 181 683 181 q 700 164 700 181 q 694 140 700 157 q 670 96 688 122 q 630 46 653 69 q 567 6 607 22 q 482 -11 528 -11 q 310 63 394 -11 q 179 -14 258 -14 q 76 24 111 -14 q 40 114 40 61 q 78 189 40 153 q 157 225 117 225 q 240 204 199 225 l 240 211 q 230 337 240 253 q 218 479 219 421 l 124 479 l 124 540 l 218 540 q 273 758 224 690 q 417 826 322 826 q 567 794 508 826 q 625 706 625 763 q 606 665 625 681 q 565 650 588 650 q 527 665 543 650 q 511 704 511 681 q 525 738 511 724 q 494 772 525 760 q 431 785 463 785 q 343 540 344 785 l 490 540 l 490 479 l 344 479 q 351 372 346 446 q 357 247 357 297 q 343 139 357 186 q 476 100 408 100 m 236 133 q 157 178 192 178 q 109 158 131 178 q 88 113 88 139 q 112 56 88 78 q 174 33 136 33 q 236 133 224 33 z "},"¤":{"ha":710,"x_min":74,"x_max":635,"o":"m 215 504 q 186 475 215 504 q 157 364 157 446 q 215 224 157 282 q 356 165 274 165 q 496 224 438 165 q 554 364 554 282 q 496 504 554 446 q 356 563 438 563 q 215 504 274 563 m 149 204 q 94 364 94 276 q 151 526 94 454 l 74 603 l 118 647 l 194 569 q 356 625 265 625 q 515 571 443 625 l 590 647 l 635 603 l 560 528 q 617 364 617 458 q 561 203 617 274 l 635 131 l 590 86 l 518 160 q 356 103 446 103 q 192 160 261 103 l 118 86 l 74 131 l 149 204 z "},"¥":{"ha":751,"x_min":33,"x_max":718,"o":"m 303 813 l 303 783 q 244 778 263 783 l 410 371 l 568 768 q 490 783 549 783 l 490 813 l 718 813 l 718 783 q 632 757 642 783 l 451 306 l 561 306 l 561 244 l 443 244 l 443 167 l 561 167 l 561 106 l 443 106 l 443 57 q 531 29 456 29 l 531 0 l 228 0 l 228 29 q 315 57 303 29 l 315 106 l 194 106 l 194 167 l 315 167 l 315 244 l 194 244 l 194 306 l 300 306 l 121 756 q 33 783 108 783 l 33 813 l 303 813 z "},"¦":{"ha":267,"x_min":108,"x_max":158,"o":"m 108 903 l 158 903 l 158 503 l 108 503 l 108 903 m 108 358 l 158 358 l 158 -42 l 108 -42 l 108 358 z "},"§":{"ha":569,"x_min":56,"x_max":514,"o":"m 431 636 q 396 651 411 636 q 381 686 381 667 q 358 764 381 728 q 299 800 336 800 q 197 717 197 800 q 247 632 197 689 q 356 519 296 575 q 465 394 415 463 q 514 275 514 325 q 378 58 514 104 q 478 -117 478 -39 q 415 -216 478 -171 q 260 -261 351 -261 q 144 -212 197 -261 q 92 -125 92 -162 q 104 -86 92 -103 q 139 -69 117 -69 q 174 -85 158 -69 q 189 -119 189 -100 q 211 -197 189 -161 q 271 -233 233 -233 q 372 -150 372 -233 q 323 -65 372 -122 q 214 48 274 -8 q 105 173 154 104 q 56 292 56 242 q 192 508 56 463 q 92 683 92 606 q 155 783 92 738 q 310 828 218 828 q 425 778 372 828 q 478 692 478 729 q 465 653 478 669 q 431 636 453 636 m 339 96 q 431 194 431 124 q 425 233 431 214 q 413 269 419 253 q 391 306 407 285 q 366 339 375 326 q 334 374 357 351 q 301 405 311 396 q 265 439 292 414 q 231 471 238 464 q 139 372 139 443 q 144 333 139 353 q 156 298 150 314 q 178 261 163 282 q 203 228 194 240 q 235 193 213 215 q 268 162 258 171 q 305 128 278 153 q 339 96 332 103 z "},"¨":{"ha":558,"x_min":83,"x_max":475,"o":"m 359 715 q 349 725 359 715 q 339 763 339 735 q 359 810 339 790 q 407 831 379 831 q 455 810 435 831 q 475 763 475 790 q 455 715 475 735 q 407 694 435 694 q 359 715 379 694 m 103 715 q 93 725 103 715 q 83 763 83 735 q 103 810 83 790 q 151 831 124 831 q 199 810 179 831 q 219 763 219 790 q 199 715 219 735 q 151 694 179 694 q 103 715 124 694 z "},"©":{"ha":890,"x_min":63,"x_max":829,"o":"m 201 617 q 151 566 201 617 q 100 372 100 515 q 201 128 100 229 q 446 26 303 26 q 690 128 589 26 q 792 372 792 229 q 690 617 792 515 q 446 718 589 718 q 201 617 303 718 m 175 101 q 119 158 175 101 q 63 372 63 214 q 175 643 63 531 q 446 756 288 756 q 717 643 604 756 q 829 372 829 531 q 717 101 829 214 q 446 -11 604 -11 q 175 101 288 -11 m 463 558 q 369 510 406 558 q 332 388 332 463 q 372 248 332 297 q 465 199 411 199 q 533 224 501 199 q 575 276 564 249 l 604 263 q 451 161 565 161 q 301 224 356 161 q 246 372 246 286 q 310 535 246 474 q 463 596 375 596 q 498 591 481 596 q 526 581 515 586 q 539 575 538 575 q 540 589 540 575 l 571 589 l 578 486 l 550 486 q 463 558 536 558 z "},"ª":{"ha":504,"x_min":89,"x_max":422,"o":"m 89 215 l 422 215 l 422 179 l 89 179 l 89 215 m 161 572 q 183 538 183 567 q 144 507 183 507 q 117 519 126 507 q 108 549 108 532 q 141 611 108 590 q 229 632 174 632 q 329 597 297 632 q 361 508 361 563 l 361 371 q 379 335 361 335 q 396 351 396 335 l 422 351 q 406 311 422 322 q 351 300 390 300 q 300 325 317 300 q 200 299 257 299 q 89 390 89 299 q 102 427 89 411 q 141 453 115 443 q 188 470 167 464 q 242 483 208 476 q 285 493 275 490 q 270 572 283 550 q 222 593 257 593 q 161 572 174 593 m 288 356 q 285 390 285 371 l 285 463 q 267 458 279 461 q 247 452 254 454 q 229 447 240 450 q 212 440 218 443 q 197 432 206 436 q 185 424 189 428 q 176 414 181 419 q 169 402 171 408 q 167 389 167 396 q 178 347 167 357 q 211 336 189 336 q 288 356 251 336 z "},"«":{"ha":607,"x_min":54,"x_max":519,"o":"m 72 450 l 297 581 l 297 544 l 176 415 l 297 286 l 297 250 l 72 381 q 54 415 54 390 q 72 450 54 440 m 294 450 l 519 581 l 519 544 l 399 415 l 519 286 l 519 250 l 294 381 q 276 415 276 390 q 294 450 276 440 z "},"¬":{"ha":589,"x_min":90,"x_max":496,"o":"m 438 411 l 90 411 l 90 472 l 496 472 l 496 289 l 438 289 l 438 411 z "},"­":{"ha":539,"x_min":86,"x_max":453,"o":"m 86 472 l 453 472 l 453 411 l 86 411 l 86 472 z "},"®":{"ha":890,"x_min":63,"x_max":829,"o":"m 201 617 q 151 566 201 617 q 100 372 100 515 q 201 128 100 229 q 446 26 303 26 q 690 128 589 26 q 792 372 792 229 q 690 617 792 515 q 446 718 589 718 q 201 617 303 718 m 175 101 q 119 158 175 101 q 63 372 63 214 q 175 643 63 531 q 446 756 288 756 q 717 643 604 756 q 829 372 829 531 q 717 101 829 214 q 446 -11 604 -11 q 175 101 288 -11 m 263 169 l 263 197 q 306 207 299 197 l 306 553 q 263 561 301 561 l 263 589 l 426 589 q 561 556 515 589 q 607 481 607 524 q 519 367 607 397 l 608 208 q 654 197 613 197 l 654 169 l 618 169 q 551 176 568 169 q 519 210 535 183 l 438 354 l 383 354 l 383 207 q 426 197 388 197 l 426 169 l 263 169 m 383 553 l 383 392 l 435 392 q 506 410 489 392 q 524 479 524 429 q 503 534 524 515 q 426 553 482 553 l 383 553 z "},"¯":{"ha":533,"x_min":83,"x_max":450,"o":"m 83 775 l 450 775 l 450 714 l 83 714 l 83 775 z "},"°":{"ha":433,"x_min":58,"x_max":375,"o":"m 145 788 q 130 773 145 788 q 115 717 115 758 q 145 646 115 675 q 217 617 175 617 q 288 646 258 617 q 318 717 318 675 q 288 788 318 758 q 217 818 258 818 q 145 788 175 818 m 105 606 q 82 630 105 606 q 58 717 58 653 q 106 828 58 781 q 217 875 153 875 q 328 828 281 875 q 375 717 375 781 q 328 606 375 653 q 217 560 282 560 q 105 606 151 560 z "},"±":{"ha":578,"x_min":90,"x_max":488,"o":"m 90 247 l 488 247 l 488 186 l 90 186 l 90 247 m 319 483 l 319 343 l 258 343 l 258 483 l 90 483 l 90 544 l 258 544 l 258 685 l 319 685 l 319 544 l 488 544 l 488 483 l 319 483 z "},"²":{"ha":500,"x_min":50,"x_max":449,"o":"m 365 467 q 418 526 401 481 l 449 526 l 410 389 l 50 389 l 50 396 q 92 453 50 413 q 184 539 133 494 q 276 646 235 583 q 318 761 318 708 q 295 823 318 799 q 231 847 272 847 q 151 833 182 847 q 110 803 119 819 q 91 772 100 786 q 74 758 82 758 q 60 774 60 758 q 108 863 60 810 q 242 917 156 917 q 378 878 335 917 q 422 774 422 840 q 370 660 422 725 q 252 536 318 596 q 179 467 186 476 l 365 467 z "},"³":{"ha":492,"x_min":51,"x_max":432,"o":"m 211 639 q 194 644 201 639 q 186 657 186 650 q 197 669 186 669 q 290 711 271 692 q 314 769 314 733 q 289 826 314 806 q 219 847 264 847 q 154 835 179 847 q 122 810 129 824 q 106 785 114 797 q 90 774 99 774 q 76 790 76 774 q 117 870 76 824 q 231 917 158 917 q 407 782 407 917 q 339 682 407 722 q 406 632 381 665 q 432 558 432 599 q 388 431 432 478 q 233 383 344 383 q 138 400 182 383 q 72 435 93 417 q 51 467 51 454 q 60 511 51 499 q 90 524 68 524 q 116 508 106 524 q 133 474 126 493 q 164 440 140 456 q 228 425 188 425 q 342 539 342 425 q 320 611 342 578 q 257 644 299 644 q 233 642 246 644 q 211 639 219 639 z "},"´":{"ha":417,"x_min":83,"x_max":333,"o":"m 186 919 l 333 919 l 119 694 l 83 694 l 186 919 z "},"µ":{"ha":806,"x_min":107,"x_max":772,"o":"m 650 611 l 650 115 q 665 49 650 71 q 700 28 679 28 q 733 38 718 28 q 747 63 747 49 l 772 63 q 743 4 772 22 q 644 -14 714 -14 q 532 85 553 -14 q 340 -14 451 -14 q 165 33 222 -14 l 165 -46 q 180 -111 165 -86 q 211 -145 194 -136 q 242 -172 228 -154 q 257 -215 257 -189 q 236 -262 257 -246 q 188 -278 215 -278 q 133 -256 158 -278 q 107 -186 107 -235 l 107 611 l 232 611 l 232 174 q 360 33 232 33 q 525 133 447 33 l 525 154 l 525 611 l 650 611 z "},"¶":{"ha":739,"x_min":42,"x_max":678,"o":"m 176 0 l 176 29 q 264 57 251 29 l 264 372 q 100 442 158 382 q 42 592 42 501 q 58 666 42 629 q 107 737 74 703 q 202 792 140 771 q 344 813 264 813 l 678 813 l 678 783 q 590 756 603 783 l 590 57 q 678 29 603 29 l 678 0 l 463 0 l 463 765 l 392 765 l 392 0 l 176 0 z "},"·":{"ha":317,"x_min":75,"x_max":242,"o":"m 101 359 q 88 372 101 359 q 75 418 75 385 q 98 478 75 451 q 157 506 121 506 q 215 481 189 506 q 242 422 242 456 q 218 361 242 389 q 158 333 194 333 q 101 359 126 333 z "},"¸":{"ha":422,"x_min":83,"x_max":339,"o":"m 172 17 l 225 17 l 200 -76 q 292 -99 244 -76 q 339 -169 339 -122 q 186 -276 339 -276 q 83 -267 140 -276 l 83 -243 q 118 -246 108 -246 q 194 -226 171 -246 q 218 -181 218 -206 q 133 -119 218 -119 l 172 17 z "},"¹":{"ha":336,"x_min":56,"x_max":281,"o":"m 56 706 q 80 749 60 714 q 113 806 100 785 q 143 854 125 826 q 174 896 161 882 q 196 910 188 910 l 221 910 l 221 435 q 281 421 228 421 l 281 389 l 64 389 l 64 421 q 122 435 114 421 l 122 736 q 79 693 113 731 l 56 706 z "},"º":{"ha":510,"x_min":86,"x_max":424,"o":"m 86 215 l 424 215 l 424 179 l 86 179 l 86 215 m 167 485 q 194 369 167 406 q 267 333 222 333 q 322 365 301 333 q 343 446 343 396 q 242 596 343 596 q 188 563 208 596 q 167 485 167 529 m 258 299 q 131 347 176 299 q 86 471 86 394 q 128 587 86 542 q 253 632 169 632 q 381 585 339 632 q 424 463 424 539 q 383 345 424 392 q 258 299 342 299 z "},"»":{"ha":607,"x_min":88,"x_max":553,"o":"m 313 381 l 88 250 l 88 286 l 208 415 l 88 544 l 88 581 l 313 450 q 331 415 331 440 q 313 381 331 390 m 535 381 l 310 250 l 310 286 l 431 415 l 310 544 l 310 581 l 535 450 q 553 415 553 440 q 535 381 553 390 z "},"¼":{"ha":903,"x_min":47,"x_max":863,"o":"m 144 -14 l 685 850 l 725 825 l 185 -39 l 144 -14 m 786 521 l 786 186 l 863 186 l 863 146 l 786 146 l 786 46 q 844 32 794 32 l 844 0 l 631 0 l 631 32 q 689 46 682 32 l 689 146 l 465 146 l 728 521 l 786 521 m 689 186 l 689 394 l 543 186 l 689 186 m 47 706 q 72 749 51 714 q 104 806 92 785 q 135 854 117 826 q 166 896 153 882 q 188 910 179 910 l 213 910 l 213 435 q 272 421 219 421 l 272 389 l 56 389 l 56 421 q 114 435 106 421 l 114 736 q 71 693 104 731 l 47 706 z "},"½":{"ha":942,"x_min":50,"x_max":901,"o":"m 114 -14 l 654 850 l 694 825 l 154 -39 l 114 -14 m 818 78 q 871 138 854 92 l 901 138 l 863 0 l 503 0 l 503 7 q 544 65 503 24 q 637 150 586 106 q 729 257 688 194 q 771 372 771 319 q 748 434 771 410 q 683 458 725 458 q 603 444 635 458 q 563 414 572 431 q 544 383 553 397 q 526 369 535 369 q 513 385 513 369 q 560 474 513 421 q 694 528 608 528 q 831 490 788 528 q 875 385 875 451 q 823 272 875 336 q 705 147 771 207 q 632 78 639 88 l 818 78 m 50 706 q 74 749 54 714 q 107 806 94 785 q 138 854 119 826 q 169 896 156 882 q 190 910 182 910 l 215 910 l 215 435 q 275 421 222 421 l 275 389 l 58 389 l 58 421 q 117 435 108 421 l 117 736 q 74 693 107 731 l 50 706 z "},"¾":{"ha":954,"x_min":40,"x_max":913,"o":"m 208 -14 l 749 850 l 789 825 l 249 -39 l 208 -14 m 836 521 l 836 186 l 913 186 l 913 146 l 836 146 l 836 46 q 894 32 844 32 l 894 0 l 681 0 l 681 32 q 739 46 732 32 l 739 146 l 515 146 l 778 521 l 836 521 m 739 186 l 739 394 l 593 186 l 739 186 m 200 639 q 183 644 190 639 q 175 657 175 650 q 186 669 175 669 q 279 711 260 692 q 303 769 303 733 q 278 826 303 806 q 208 847 253 847 q 143 835 168 847 q 110 810 118 824 q 95 785 103 797 q 79 774 88 774 q 65 790 65 774 q 106 870 65 824 q 219 917 147 917 q 396 782 396 917 q 328 682 396 722 q 395 632 369 665 q 421 558 421 599 q 377 431 421 478 q 222 383 333 383 q 126 400 171 383 q 61 435 82 417 q 40 467 40 454 q 49 511 40 499 q 79 524 57 524 q 105 508 94 524 q 122 474 115 493 q 153 440 129 456 q 217 425 176 425 q 331 539 331 425 q 309 611 331 578 q 246 644 288 644 q 222 642 235 644 q 200 639 208 639 z "},"¿":{"ha":547,"x_min":44,"x_max":507,"o":"m 352 710 q 365 698 352 710 q 378 651 378 685 q 355 591 378 618 q 296 564 332 564 q 238 589 264 564 q 211 647 211 614 q 235 708 211 681 q 294 736 258 736 q 352 710 326 736 m 315 444 q 292 341 315 392 q 242 255 269 290 q 192 166 215 219 q 169 56 169 113 q 200 -72 169 -32 q 301 -111 231 -111 q 389 -79 354 -111 q 424 -12 424 -47 q 413 23 424 4 q 403 57 403 42 q 416 91 403 78 q 449 104 429 104 q 490 87 472 104 q 507 33 507 69 q 450 -95 507 -37 q 288 -153 393 -153 q 102 -87 160 -153 q 44 63 44 -21 q 81 174 44 117 q 162 273 118 232 q 242 361 206 314 q 279 444 279 408 q 285 458 279 451 q 297 464 292 464 q 309 458 303 464 q 315 444 315 451 z "},"À":{"ha":758,"x_min":-11,"x_max":771,"o":"m 317 1086 l 419 861 l 383 861 l 169 1086 l 317 1086 m 467 0 l 467 29 q 547 46 531 29 l 469 258 l 203 258 l 131 54 q 217 29 144 29 l 217 0 l -11 0 l -11 29 q 76 58 67 29 l 346 813 l 413 813 l 682 58 q 771 29 692 29 l 771 0 l 467 0 m 335 628 l 219 304 l 453 304 l 335 628 z "},"Á":{"ha":758,"x_min":-11,"x_max":771,"o":"m 468 1086 l 615 1086 l 401 861 l 365 861 l 468 1086 m 467 0 l 467 29 q 547 46 531 29 l 469 258 l 203 258 l 131 54 q 217 29 144 29 l 217 0 l -11 0 l -11 29 q 76 58 67 29 l 346 813 l 413 813 l 682 58 q 771 29 692 29 l 771 0 l 467 0 m 335 628 l 219 304 l 453 304 l 335 628 z "},"Â":{"ha":758,"x_min":-11,"x_max":771,"o":"m 418 1086 l 549 861 l 513 861 l 383 982 l 254 861 l 218 861 l 349 1086 l 418 1086 m 467 0 l 467 29 q 547 46 531 29 l 469 258 l 203 258 l 131 54 q 217 29 144 29 l 217 0 l -11 0 l -11 29 q 76 58 67 29 l 346 813 l 413 813 l 682 58 q 771 29 692 29 l 771 0 l 467 0 m 335 628 l 219 304 l 453 304 l 335 628 z "},"Ã":{"ha":758,"x_min":-11,"x_max":771,"o":"m 488 861 q 374 902 457 861 q 272 943 292 943 q 218 923 233 943 q 203 861 203 903 l 176 861 q 282 1017 176 1017 q 396 976 313 1017 q 499 935 479 935 q 553 955 538 935 q 568 1017 568 975 l 594 1017 q 488 861 594 861 m 467 0 l 467 29 q 547 46 531 29 l 469 258 l 203 258 l 131 54 q 217 29 144 29 l 217 0 l -11 0 l -11 29 q 76 58 67 29 l 346 813 l 413 813 l 682 58 q 771 29 692 29 l 771 0 l 467 0 m 335 628 l 219 304 l 453 304 l 335 628 z "},"Ä":{"ha":758,"x_min":-11,"x_max":771,"o":"m 463 881 q 453 891 463 881 q 443 929 443 901 q 463 977 443 957 q 511 997 483 997 q 559 977 539 997 q 579 929 579 957 q 559 881 579 901 q 511 861 539 861 q 463 881 483 861 m 208 881 q 198 891 208 881 q 188 929 188 901 q 208 977 188 957 q 256 997 228 997 q 303 977 283 997 q 324 929 324 957 q 303 881 324 901 q 256 861 283 861 q 208 881 228 861 m 467 0 l 467 29 q 547 46 531 29 l 469 258 l 203 258 l 131 54 q 217 29 144 29 l 217 0 l -11 0 l -11 29 q 76 58 67 29 l 346 813 l 413 813 l 682 58 q 771 29 692 29 l 771 0 l 467 0 m 335 628 l 219 304 l 453 304 l 335 628 z "},"Å":{"ha":758,"x_min":-11,"x_max":771,"o":"m 337 1003 q 327 993 337 1003 q 318 957 318 983 q 337 911 318 931 q 383 892 356 892 q 430 911 411 892 q 449 957 449 931 q 430 1003 449 983 q 383 1022 411 1022 q 337 1003 356 1022 m 294 868 q 276 886 294 868 q 258 957 258 904 q 294 1046 258 1010 q 383 1082 331 1082 q 472 1046 436 1082 q 508 957 508 1010 q 472 868 508 904 q 383 832 436 832 q 294 868 331 832 m 467 0 l 467 29 q 547 46 531 29 l 469 258 l 203 258 l 131 54 q 217 29 144 29 l 217 0 l -11 0 l -11 29 q 76 58 67 29 l 346 813 l 413 813 l 682 58 q 771 29 692 29 l 771 0 l 467 0 m 335 628 l 219 304 l 453 304 l 335 628 z "},"Æ":{"ha":1051,"x_min":-31,"x_max":1028,"o":"m 197 0 l -31 0 l -31 29 q 57 57 40 29 l 456 768 q 376 783 439 783 l 376 813 l 965 813 l 965 678 l 936 678 q 908 765 936 753 l 621 765 l 621 446 l 815 446 q 843 533 843 458 l 872 533 l 872 311 l 843 311 q 815 399 843 386 l 621 399 l 621 47 l 938 47 q 1000 135 972 63 l 1028 135 l 994 0 l 406 0 l 406 29 q 493 57 481 29 l 493 258 l 225 258 l 111 54 q 197 29 125 29 l 197 0 m 251 304 l 493 304 l 493 736 l 251 304 z "},"Ç":{"ha":783,"x_min":61,"x_max":746,"o":"m 483 779 l 482 781 q 283 682 363 781 q 204 426 204 583 q 288 139 204 243 q 488 35 371 35 q 625 83 557 35 q 713 185 693 131 l 746 168 q 476 -12 674 -6 l 460 -75 q 551 -98 504 -75 q 599 -168 599 -121 q 446 -275 599 -275 q 343 -265 400 -275 l 343 -242 q 378 -244 368 -244 q 454 -224 431 -244 q 478 -179 478 -204 q 393 -118 478 -118 l 424 -11 q 227 57 311 -3 q 102 204 143 117 q 61 394 61 292 q 185 708 61 589 q 482 826 310 826 q 575 806 522 826 q 636 785 628 785 q 653 813 653 785 l 685 813 l 699 636 l 668 636 q 613 739 658 699 q 483 779 568 779 z "},"È":{"ha":704,"x_min":58,"x_max":681,"o":"m 306 1086 l 408 861 l 372 861 l 158 1086 l 306 1086 m 58 0 l 58 29 q 146 57 133 29 l 146 756 q 58 783 133 783 l 58 813 l 618 813 l 618 678 l 589 678 q 561 765 589 753 l 274 765 l 274 446 l 468 446 q 496 533 496 458 l 525 533 l 525 311 l 496 311 q 468 399 496 386 l 274 399 l 274 47 l 590 47 q 653 135 625 63 l 681 135 l 647 0 l 58 0 z "},"É":{"ha":704,"x_min":58,"x_max":681,"o":"m 457 1086 l 604 1086 l 390 861 l 354 861 l 457 1086 m 58 0 l 58 29 q 146 57 133 29 l 146 756 q 58 783 133 783 l 58 813 l 618 813 l 618 678 l 589 678 q 561 765 589 753 l 274 765 l 274 446 l 468 446 q 496 533 496 458 l 525 533 l 525 311 l 496 311 q 468 399 496 386 l 274 399 l 274 47 l 590 47 q 653 135 625 63 l 681 135 l 647 0 l 58 0 z "},"Ê":{"ha":704,"x_min":58,"x_max":681,"o":"m 407 1086 l 538 861 l 501 861 l 372 982 l 243 861 l 207 861 l 338 1086 l 407 1086 m 58 0 l 58 29 q 146 57 133 29 l 146 756 q 58 783 133 783 l 58 813 l 618 813 l 618 678 l 589 678 q 561 765 589 753 l 274 765 l 274 446 l 468 446 q 496 533 496 458 l 525 533 l 525 311 l 496 311 q 468 399 496 386 l 274 399 l 274 47 l 590 47 q 653 135 625 63 l 681 135 l 647 0 l 58 0 z "},"Ë":{"ha":704,"x_min":58,"x_max":681,"o":"m 452 881 q 442 891 452 881 q 432 929 432 901 q 452 977 432 957 q 500 997 472 997 q 548 977 528 997 q 568 929 568 957 q 548 881 568 901 q 500 861 528 861 q 452 881 472 861 m 197 881 q 186 891 197 881 q 176 929 176 901 q 197 977 176 957 q 244 997 217 997 q 292 977 272 997 q 313 929 313 957 q 292 881 313 901 q 244 861 272 861 q 197 881 217 861 m 58 0 l 58 29 q 146 57 133 29 l 146 756 q 58 783 133 783 l 58 813 l 618 813 l 618 678 l 589 678 q 561 765 589 753 l 274 765 l 274 446 l 468 446 q 496 533 496 458 l 525 533 l 525 311 l 496 311 q 468 399 496 386 l 274 399 l 274 47 l 590 47 q 653 135 625 63 l 681 135 l 647 0 l 58 0 z "},"Ì":{"ha":419,"x_min":-7,"x_max":361,"o":"m 140 1086 l 243 861 l 207 861 l -7 1086 l 140 1086 m 58 0 l 58 29 q 146 57 133 29 l 146 756 q 58 783 133 783 l 58 813 l 361 813 l 361 783 q 274 756 286 783 l 274 57 q 361 29 286 29 l 361 0 l 58 0 z "},"Í":{"ha":419,"x_min":58,"x_max":439,"o":"m 292 1086 l 439 1086 l 225 861 l 189 861 l 292 1086 m 58 0 l 58 29 q 146 57 133 29 l 146 756 q 58 783 133 783 l 58 813 l 361 813 l 361 783 q 274 756 286 783 l 274 57 q 361 29 286 29 l 361 0 l 58 0 z "},"Î":{"ha":419,"x_min":42,"x_max":372,"o":"m 242 1086 l 372 861 l 336 861 l 207 982 l 78 861 l 42 861 l 172 1086 l 242 1086 m 58 0 l 58 29 q 146 57 133 29 l 146 756 q 58 783 133 783 l 58 813 l 361 813 l 361 783 q 274 756 286 783 l 274 57 q 361 29 286 29 l 361 0 l 58 0 z "},"Ï":{"ha":419,"x_min":11,"x_max":403,"o":"m 287 881 q 277 891 287 881 q 267 929 267 901 q 287 977 267 957 q 335 997 307 997 q 383 977 363 997 q 403 929 403 957 q 383 881 403 901 q 335 861 363 861 q 287 881 307 861 m 31 881 q 21 891 31 881 q 11 929 11 901 q 31 977 11 957 q 79 997 51 997 q 127 977 107 997 q 147 929 147 957 q 127 881 147 901 q 79 861 107 861 q 31 881 51 861 m 58 0 l 58 29 q 146 57 133 29 l 146 756 q 58 783 133 783 l 58 813 l 361 813 l 361 783 q 274 756 286 783 l 274 57 q 361 29 286 29 l 361 0 l 58 0 z "},"Ð":{"ha":843,"x_min":19,"x_max":782,"o":"m 53 -1 l 53 28 q 140 56 128 28 l 140 214 q 246 513 140 404 q 592 635 351 621 q 495 737 554 703 q 372 771 436 771 l 268 771 l 268 653 l 213 653 l 213 771 l 76 771 q 49 683 49 758 l 19 683 l 19 813 l 213 813 l 213 910 l 268 910 l 268 813 l 372 813 q 669 700 557 813 q 782 407 782 588 q 672 113 782 226 q 389 -1 563 -1 l 53 -1 m 611 593 q 350 492 432 582 q 268 267 268 403 l 268 46 l 389 46 q 476 66 433 46 q 557 126 518 86 q 619 239 596 167 q 643 406 643 311 q 611 593 643 511 z "},"Ñ":{"ha":885,"x_min":58,"x_max":839,"o":"m 546 861 q 433 902 515 861 q 331 943 350 943 q 276 923 292 943 q 261 861 261 903 l 235 861 q 340 1017 235 1017 q 454 976 371 1017 q 557 935 538 935 q 611 955 596 935 q 626 1017 626 975 l 653 1017 q 546 861 653 861 m 58 0 l 58 29 q 146 57 133 29 l 146 756 q 58 783 133 783 l 58 813 l 244 813 l 704 244 l 704 756 q 617 783 692 783 l 617 813 l 839 813 l 839 783 q 751 756 764 783 l 751 0 l 739 0 l 193 690 l 193 57 q 281 29 206 29 l 281 0 l 58 0 z "},"Ò":{"ha":890,"x_min":61,"x_max":831,"o":"m 379 1086 l 482 861 l 446 861 l 232 1086 l 379 1086 m 200 417 q 226 241 200 325 q 310 95 251 157 q 451 33 369 33 q 590 92 533 33 q 669 228 646 150 q 692 394 692 307 q 665 570 692 485 q 580 717 639 656 q 440 779 521 779 q 330 746 378 779 q 255 658 282 713 q 214 542 228 603 q 200 417 200 481 m 61 406 q 169 703 61 579 q 446 826 278 826 q 722 703 614 826 q 831 406 831 579 q 722 109 831 232 q 446 -14 613 -14 q 169 108 276 -14 q 61 406 61 231 z "},"Ó":{"ha":890,"x_min":61,"x_max":831,"o":"m 531 1086 l 678 1086 l 464 861 l 428 861 l 531 1086 m 200 417 q 226 241 200 325 q 310 95 251 157 q 451 33 369 33 q 590 92 533 33 q 669 228 646 150 q 692 394 692 307 q 665 570 692 485 q 580 717 639 656 q 440 779 521 779 q 330 746 378 779 q 255 658 282 713 q 214 542 228 603 q 200 417 200 481 m 61 406 q 169 703 61 579 q 446 826 278 826 q 722 703 614 826 q 831 406 831 579 q 722 109 831 232 q 446 -14 613 -14 q 169 108 276 -14 q 61 406 61 231 z "},"Ô":{"ha":890,"x_min":61,"x_max":831,"o":"m 481 1086 l 611 861 l 575 861 l 446 982 l 317 861 l 281 861 l 411 1086 l 481 1086 m 200 417 q 226 241 200 325 q 310 95 251 157 q 451 33 369 33 q 590 92 533 33 q 669 228 646 150 q 692 394 692 307 q 665 570 692 485 q 580 717 639 656 q 440 779 521 779 q 330 746 378 779 q 255 658 282 713 q 214 542 228 603 q 200 417 200 481 m 61 406 q 169 703 61 579 q 446 826 278 826 q 722 703 614 826 q 831 406 831 579 q 722 109 831 232 q 446 -14 613 -14 q 169 108 276 -14 q 61 406 61 231 z "},"Õ":{"ha":890,"x_min":61,"x_max":831,"o":"m 550 861 q 437 902 519 861 q 335 943 354 943 q 281 923 296 943 q 265 861 265 903 l 239 861 q 344 1017 239 1017 q 458 976 375 1017 q 561 935 542 935 q 615 955 600 935 q 631 1017 631 975 l 657 1017 q 550 861 657 861 m 200 417 q 226 241 200 325 q 310 95 251 157 q 451 33 369 33 q 590 92 533 33 q 669 228 646 150 q 692 394 692 307 q 665 570 692 485 q 580 717 639 656 q 440 779 521 779 q 330 746 378 779 q 255 658 282 713 q 214 542 228 603 q 200 417 200 481 m 61 406 q 169 703 61 579 q 446 826 278 826 q 722 703 614 826 q 831 406 831 579 q 722 109 831 232 q 446 -14 613 -14 q 169 108 276 -14 q 61 406 61 231 z "},"Ö":{"ha":890,"x_min":61,"x_max":831,"o":"m 526 881 q 516 891 526 881 q 506 929 506 901 q 526 977 506 957 q 574 997 546 997 q 622 977 601 997 q 642 929 642 957 q 622 881 642 901 q 574 861 601 861 q 526 881 546 861 m 270 881 q 260 891 270 881 q 250 929 250 901 q 270 977 250 957 q 318 997 290 997 q 366 977 346 997 q 386 929 386 957 q 366 881 386 901 q 318 861 346 861 q 270 881 290 861 m 200 417 q 226 241 200 325 q 310 95 251 157 q 451 33 369 33 q 590 92 533 33 q 669 228 646 150 q 692 394 692 307 q 665 570 692 485 q 580 717 639 656 q 440 779 521 779 q 330 746 378 779 q 255 658 282 713 q 214 542 228 603 q 200 417 200 481 m 61 406 q 169 703 61 579 q 446 826 278 826 q 722 703 614 826 q 831 406 831 579 q 722 109 831 232 q 446 -14 613 -14 q 169 108 276 -14 q 61 406 61 231 z "},"×":{"ha":583,"x_min":71,"x_max":513,"o":"m 335 442 l 513 264 l 469 221 l 292 399 l 114 221 l 71 264 l 249 442 l 71 619 l 114 663 l 292 485 l 469 663 l 513 619 l 335 442 z "},"Ø":{"ha":890,"x_min":61,"x_max":831,"o":"m 600 696 q 440 779 533 779 q 330 746 378 779 q 255 658 282 713 q 214 542 228 603 q 200 417 200 481 q 263 157 200 265 l 600 696 m 629 653 l 292 114 q 451 33 356 33 q 590 92 533 33 q 669 228 646 150 q 692 394 692 307 q 629 653 692 544 m 61 406 q 169 703 61 579 q 446 826 278 826 q 646 769 556 826 l 696 850 l 736 825 l 683 740 q 792 594 753 682 q 831 406 831 507 q 722 109 831 232 q 446 -14 613 -14 q 247 42 335 -14 l 196 -39 l 156 -14 l 208 71 q 100 217 139 129 q 61 406 61 304 z "},"Ù":{"ha":858,"x_min":35,"x_max":824,"o":"m 400 1086 l 503 861 l 467 861 l 253 1086 l 400 1086 m 469 33 q 626 111 563 33 q 689 317 689 189 l 689 756 q 601 783 676 783 l 601 813 l 824 813 l 824 783 q 736 756 749 783 l 736 344 q 656 75 736 164 q 456 -14 576 -14 q 122 344 122 -14 l 122 756 q 35 783 110 783 l 35 813 l 338 813 l 338 783 q 250 756 263 783 l 250 325 q 311 110 250 188 q 469 33 372 33 z "},"Ú":{"ha":858,"x_min":35,"x_max":824,"o":"m 551 1086 l 699 1086 l 485 861 l 449 861 l 551 1086 m 469 33 q 626 111 563 33 q 689 317 689 189 l 689 756 q 601 783 676 783 l 601 813 l 824 813 l 824 783 q 736 756 749 783 l 736 344 q 656 75 736 164 q 456 -14 576 -14 q 122 344 122 -14 l 122 756 q 35 783 110 783 l 35 813 l 338 813 l 338 783 q 250 756 263 783 l 250 325 q 311 110 250 188 q 469 33 372 33 z "},"Û":{"ha":858,"x_min":35,"x_max":824,"o":"m 501 1086 l 632 861 l 596 861 l 467 982 l 338 861 l 301 861 l 432 1086 l 501 1086 m 469 33 q 626 111 563 33 q 689 317 689 189 l 689 756 q 601 783 676 783 l 601 813 l 824 813 l 824 783 q 736 756 749 783 l 736 344 q 656 75 736 164 q 456 -14 576 -14 q 122 344 122 -14 l 122 756 q 35 783 110 783 l 35 813 l 338 813 l 338 783 q 250 756 263 783 l 250 325 q 311 110 250 188 q 469 33 372 33 z "},"Ü":{"ha":858,"x_min":35,"x_max":824,"o":"m 547 881 q 536 891 547 881 q 526 929 526 901 q 547 977 526 957 q 594 997 567 997 q 642 977 622 997 q 663 929 663 957 q 642 881 663 901 q 594 861 622 861 q 547 881 567 861 m 291 881 q 281 891 291 881 q 271 929 271 901 q 291 977 271 957 q 339 997 311 997 q 387 977 367 997 q 407 929 407 957 q 387 881 407 901 q 339 861 367 861 q 291 881 311 861 m 469 33 q 626 111 563 33 q 689 317 689 189 l 689 756 q 601 783 676 783 l 601 813 l 824 813 l 824 783 q 736 756 749 783 l 736 344 q 656 75 736 164 q 456 -14 576 -14 q 122 344 122 -14 l 122 756 q 35 783 110 783 l 35 813 l 338 813 l 338 783 q 250 756 263 783 l 250 325 q 311 110 250 188 q 469 33 372 33 z "},"Ý":{"ha":782,"x_min":-12,"x_max":790,"o":"m 513 1086 l 660 1086 l 446 861 l 410 861 l 513 1086 m 292 813 l 292 783 q 211 767 226 783 l 426 390 l 649 758 q 563 783 633 783 l 563 813 l 790 813 l 790 783 q 711 765 732 783 l 461 350 l 461 57 q 549 29 474 29 l 549 0 l 246 0 l 246 29 q 333 57 321 29 l 333 306 l 76 756 q -12 783 57 783 l -12 813 l 292 813 z "},"Þ":{"ha":725,"x_min":58,"x_max":696,"o":"m 58 0 l 58 29 q 146 57 133 29 l 146 756 q 58 783 133 783 l 58 813 l 361 813 l 361 783 q 274 756 286 783 l 274 639 l 346 639 q 609 579 522 639 q 696 428 696 519 q 613 260 696 324 q 363 196 529 196 l 274 196 l 274 57 q 361 29 286 29 l 361 0 l 58 0 m 274 592 l 274 243 l 363 243 q 513 285 469 243 q 557 426 557 328 q 511 550 557 508 q 346 592 465 592 l 274 592 z "},"ß":{"ha":714,"x_min":29,"x_max":674,"o":"m 329 511 q 403 583 367 525 q 440 693 440 640 q 415 785 440 736 q 339 833 389 833 q 272 792 301 833 q 242 678 242 751 l 242 0 l 29 0 l 29 29 q 117 57 104 29 l 117 658 q 177 823 117 771 q 319 875 238 875 q 500 828 449 875 q 551 694 551 782 q 513 581 551 636 q 417 499 475 526 q 597 410 519 481 q 674 264 674 340 q 615 61 674 136 q 449 -14 556 -14 q 324 27 365 -14 q 282 100 282 68 q 292 158 282 142 q 332 175 303 175 q 356 152 349 175 q 366 101 364 129 q 386 51 368 74 q 440 28 404 28 q 522 87 486 28 q 558 236 558 146 q 489 400 558 322 q 332 478 419 478 l 329 478 q 307 492 307 478 q 329 511 307 504 z "},"à":{"ha":671,"x_min":44,"x_max":683,"o":"m 242 940 l 344 715 l 308 715 l 94 940 l 242 940 m 156 508 q 190 494 175 508 q 204 451 204 481 q 185 415 204 428 q 142 403 167 403 q 99 422 115 403 q 82 472 82 440 q 142 585 82 544 q 311 625 201 625 q 501 561 440 625 q 561 392 561 497 l 561 117 q 576 51 561 72 q 611 31 590 31 q 644 40 629 31 q 658 64 658 50 l 683 64 q 655 7 683 25 q 556 -11 626 -11 q 457 46 486 -11 q 253 -14 375 -14 q 44 156 44 -14 q 70 221 44 192 q 144 269 96 250 q 236 301 193 289 q 344 327 279 313 q 436 350 408 342 q 406 521 436 467 q 297 575 375 575 q 156 508 172 575 m 444 81 q 436 156 436 111 l 436 319 q 384 304 421 314 q 324 288 347 294 q 269 267 301 281 q 219 239 238 253 q 188 202 201 225 q 174 153 174 179 q 199 60 174 86 q 276 33 225 33 q 444 81 368 33 z "},"á":{"ha":671,"x_min":44,"x_max":683,"o":"m 393 940 l 540 940 l 326 715 l 290 715 l 393 940 m 156 508 q 190 494 175 508 q 204 451 204 481 q 185 415 204 428 q 142 403 167 403 q 99 422 115 403 q 82 472 82 440 q 142 585 82 544 q 311 625 201 625 q 501 561 440 625 q 561 392 561 497 l 561 117 q 576 51 561 72 q 611 31 590 31 q 644 40 629 31 q 658 64 658 50 l 683 64 q 655 7 683 25 q 556 -11 626 -11 q 457 46 486 -11 q 253 -14 375 -14 q 44 156 44 -14 q 70 221 44 192 q 144 269 96 250 q 236 301 193 289 q 344 327 279 313 q 436 350 408 342 q 406 521 436 467 q 297 575 375 575 q 156 508 172 575 m 444 81 q 436 156 436 111 l 436 319 q 384 304 421 314 q 324 288 347 294 q 269 267 301 281 q 219 239 238 253 q 188 202 201 225 q 174 153 174 179 q 199 60 174 86 q 276 33 225 33 q 444 81 368 33 z "},"â":{"ha":671,"x_min":44,"x_max":683,"o":"m 343 940 l 474 715 l 438 715 l 308 836 l 179 715 l 143 715 l 274 940 l 343 940 m 156 508 q 190 494 175 508 q 204 451 204 481 q 185 415 204 428 q 142 403 167 403 q 99 422 115 403 q 82 472 82 440 q 142 585 82 544 q 311 625 201 625 q 501 561 440 625 q 561 392 561 497 l 561 117 q 576 51 561 72 q 611 31 590 31 q 644 40 629 31 q 658 64 658 50 l 683 64 q 655 7 683 25 q 556 -11 626 -11 q 457 46 486 -11 q 253 -14 375 -14 q 44 156 44 -14 q 70 221 44 192 q 144 269 96 250 q 236 301 193 289 q 344 327 279 313 q 436 350 408 342 q 406 521 436 467 q 297 575 375 575 q 156 508 172 575 m 444 81 q 436 156 436 111 l 436 319 q 384 304 421 314 q 324 288 347 294 q 269 267 301 281 q 219 239 238 253 q 188 202 201 225 q 174 153 174 179 q 199 60 174 86 q 276 33 225 33 q 444 81 368 33 z "},"ã":{"ha":671,"x_min":44,"x_max":683,"o":"m 413 715 q 299 756 382 715 q 197 797 217 797 q 143 777 158 797 q 128 715 128 757 l 101 715 q 207 871 101 871 q 321 830 238 871 q 424 789 404 789 q 478 809 463 789 q 493 871 493 829 l 519 871 q 413 715 519 715 m 156 508 q 190 494 175 508 q 204 451 204 481 q 185 415 204 428 q 142 403 167 403 q 99 422 115 403 q 82 472 82 440 q 142 585 82 544 q 311 625 201 625 q 501 561 440 625 q 561 392 561 497 l 561 117 q 576 51 561 72 q 611 31 590 31 q 644 40 629 31 q 658 64 658 50 l 683 64 q 655 7 683 25 q 556 -11 626 -11 q 457 46 486 -11 q 253 -14 375 -14 q 44 156 44 -14 q 70 221 44 192 q 144 269 96 250 q 236 301 193 289 q 344 327 279 313 q 436 350 408 342 q 406 521 436 467 q 297 575 375 575 q 156 508 172 575 m 444 81 q 436 156 436 111 l 436 319 q 384 304 421 314 q 324 288 347 294 q 269 267 301 281 q 219 239 238 253 q 188 202 201 225 q 174 153 174 179 q 199 60 174 86 q 276 33 225 33 q 444 81 368 33 z "},"ä":{"ha":671,"x_min":44,"x_max":683,"o":"m 388 735 q 378 745 388 735 q 368 783 368 756 q 388 831 368 811 q 436 851 408 851 q 484 831 464 851 q 504 783 504 811 q 484 735 504 756 q 436 715 464 715 q 388 735 408 715 m 133 735 q 123 745 133 735 q 113 783 113 756 q 133 831 113 811 q 181 851 153 851 q 228 831 208 851 q 249 783 249 811 q 228 735 249 756 q 181 715 208 715 q 133 735 153 715 m 156 508 q 190 494 175 508 q 204 451 204 481 q 185 415 204 428 q 142 403 167 403 q 99 422 115 403 q 82 472 82 440 q 142 585 82 544 q 311 625 201 625 q 501 561 440 625 q 561 392 561 497 l 561 117 q 576 51 561 72 q 611 31 590 31 q 644 40 629 31 q 658 64 658 50 l 683 64 q 655 7 683 25 q 556 -11 626 -11 q 457 46 486 -11 q 253 -14 375 -14 q 44 156 44 -14 q 70 221 44 192 q 144 269 96 250 q 236 301 193 289 q 344 327 279 313 q 436 350 408 342 q 406 521 436 467 q 297 575 375 575 q 156 508 172 575 m 444 81 q 436 156 436 111 l 436 319 q 384 304 421 314 q 324 288 347 294 q 269 267 301 281 q 219 239 238 253 q 188 202 201 225 q 174 153 174 179 q 199 60 174 86 q 276 33 225 33 q 444 81 368 33 z "},"å":{"ha":671,"x_min":44,"x_max":683,"o":"m 262 857 q 252 847 262 857 q 243 811 243 838 q 262 765 243 785 q 308 746 281 746 q 355 765 336 746 q 374 811 374 785 q 355 857 374 838 q 308 876 336 876 q 262 857 281 876 m 219 722 q 201 740 219 722 q 183 811 183 758 q 219 900 183 864 q 308 936 256 936 q 397 900 361 936 q 433 811 433 864 q 397 722 433 758 q 308 686 361 686 q 219 722 256 686 m 156 508 q 190 494 175 508 q 204 451 204 481 q 185 415 204 428 q 142 403 167 403 q 99 422 115 403 q 82 472 82 440 q 142 585 82 544 q 311 625 201 625 q 501 561 440 625 q 561 392 561 497 l 561 117 q 576 51 561 72 q 611 31 590 31 q 644 40 629 31 q 658 64 658 50 l 683 64 q 655 7 683 25 q 556 -11 626 -11 q 457 46 486 -11 q 253 -14 375 -14 q 44 156 44 -14 q 70 221 44 192 q 144 269 96 250 q 236 301 193 289 q 344 327 279 313 q 436 350 408 342 q 406 521 436 467 q 297 575 375 575 q 156 508 172 575 m 444 81 q 436 156 436 111 l 436 319 q 384 304 421 314 q 324 288 347 294 q 269 267 301 281 q 219 239 238 253 q 188 202 201 225 q 174 153 174 179 q 199 60 174 86 q 276 33 225 33 q 444 81 368 33 z "},"æ":{"ha":983,"x_min":44,"x_max":931,"o":"m 414 343 q 389 521 414 467 q 297 575 364 575 q 156 508 172 575 q 190 494 175 508 q 204 451 204 481 q 185 415 204 428 q 142 403 167 403 q 99 422 115 403 q 82 472 82 440 q 142 585 82 544 q 311 625 201 625 q 493 549 435 625 q 669 625 561 625 q 867 543 804 625 q 931 335 931 461 l 544 335 l 544 306 q 731 39 544 39 q 817 59 782 39 q 894 131 853 79 l 928 114 q 833 16 886 46 q 683 -14 779 -14 q 483 64 553 -14 q 253 -14 388 -14 q 44 156 44 -14 q 63 210 44 185 q 108 251 82 235 q 177 282 133 267 q 253 305 221 297 q 338 324 286 313 q 414 343 390 336 m 414 314 q 381 305 408 313 q 343 294 353 297 q 308 283 333 292 q 272 269 283 275 q 242 254 261 264 q 213 235 222 244 q 193 213 204 225 q 178 185 182 200 q 174 153 174 169 q 199 60 174 86 q 276 33 225 33 q 373 50 318 33 q 464 90 428 67 q 414 300 414 171 l 414 314 m 549 378 l 794 378 q 760 533 786 482 q 663 583 735 583 q 593 528 626 583 q 549 378 560 472 z "},"ç":{"ha":665,"x_min":54,"x_max":629,"o":"m 378 583 q 239 518 292 583 q 186 342 186 453 q 252 131 186 224 q 401 39 318 39 q 596 131 522 39 l 629 114 q 388 -12 556 -6 l 371 -76 q 463 -99 415 -76 q 510 -169 510 -122 q 357 -276 510 -276 q 254 -267 311 -276 l 254 -243 q 289 -246 279 -246 q 365 -226 342 -246 q 389 -181 389 -206 q 304 -119 389 -119 l 335 -14 q 238 7 283 -11 q 149 63 192 25 q 80 171 106 100 q 54 336 54 242 q 140 541 54 457 q 364 625 225 625 q 533 588 474 625 q 593 478 593 550 q 576 427 593 446 q 533 408 560 408 q 490 421 508 408 q 471 457 471 433 q 485 500 471 486 q 519 514 500 514 q 378 583 501 583 z "},"è":{"ha":685,"x_min":54,"x_max":632,"o":"m 272 940 l 375 715 l 339 715 l 125 940 l 272 940 m 186 335 q 253 128 188 218 q 401 39 319 39 q 596 131 522 39 l 629 114 q 524 17 589 47 q 354 -14 460 -14 q 253 2 301 -14 q 157 55 204 18 q 82 164 110 92 q 54 336 54 236 q 130 542 54 458 q 340 625 206 625 q 560 542 488 625 q 632 335 632 460 l 186 335 m 188 378 l 496 378 q 453 531 488 478 q 335 583 419 583 q 241 526 286 583 q 188 378 196 469 z "},"é":{"ha":685,"x_min":54,"x_max":632,"o":"m 424 940 l 571 940 l 357 715 l 321 715 l 424 940 m 186 335 q 253 128 188 218 q 401 39 319 39 q 596 131 522 39 l 629 114 q 524 17 589 47 q 354 -14 460 -14 q 253 2 301 -14 q 157 55 204 18 q 82 164 110 92 q 54 336 54 236 q 130 542 54 458 q 340 625 206 625 q 560 542 488 625 q 632 335 632 460 l 186 335 m 188 378 l 496 378 q 453 531 488 478 q 335 583 419 583 q 241 526 286 583 q 188 378 196 469 z "},"ê":{"ha":685,"x_min":54,"x_max":632,"o":"m 374 940 l 504 715 l 468 715 l 339 836 l 210 715 l 174 715 l 304 940 l 374 940 m 186 335 q 253 128 188 218 q 401 39 319 39 q 596 131 522 39 l 629 114 q 524 17 589 47 q 354 -14 460 -14 q 253 2 301 -14 q 157 55 204 18 q 82 164 110 92 q 54 336 54 236 q 130 542 54 458 q 340 625 206 625 q 560 542 488 625 q 632 335 632 460 l 186 335 m 188 378 l 496 378 q 453 531 488 478 q 335 583 419 583 q 241 526 286 583 q 188 378 196 469 z "},"ë":{"ha":685,"x_min":54,"x_max":632,"o":"m 419 735 q 409 745 419 735 q 399 783 399 756 q 419 831 399 811 q 467 851 439 851 q 515 831 494 851 q 535 783 535 811 q 515 735 535 756 q 467 715 494 715 q 419 735 439 715 m 163 735 q 153 745 163 735 q 143 783 143 756 q 163 831 143 811 q 211 851 183 851 q 259 831 239 851 q 279 783 279 811 q 259 735 279 756 q 211 715 239 715 q 163 735 183 715 m 186 335 q 253 128 188 218 q 401 39 319 39 q 596 131 522 39 l 629 114 q 524 17 589 47 q 354 -14 460 -14 q 253 2 301 -14 q 157 55 204 18 q 82 164 110 92 q 54 336 54 236 q 130 542 54 458 q 340 625 206 625 q 560 542 488 625 q 632 335 632 460 l 186 335 m 188 378 l 496 378 q 453 531 488 478 q 335 583 419 583 q 241 526 286 583 q 188 378 196 469 z "},"ì":{"ha":372,"x_min":-18,"x_max":343,"o":"m 129 940 l 232 715 l 196 715 l -18 940 l 129 940 m 43 0 l 43 29 q 131 57 118 29 l 131 526 q 43 533 44 533 l 43 565 q 147 595 69 565 q 256 625 224 625 l 256 57 q 343 29 268 29 l 343 0 l 43 0 z "},"í":{"ha":372,"x_min":43,"x_max":428,"o":"m 281 940 l 428 940 l 214 715 l 178 715 l 281 940 m 43 0 l 43 29 q 131 57 118 29 l 131 526 q 43 533 44 533 l 43 565 q 147 595 69 565 q 256 625 224 625 l 256 57 q 343 29 268 29 l 343 0 l 43 0 z "},"î":{"ha":372,"x_min":31,"x_max":361,"o":"m 231 940 l 361 715 l 325 715 l 196 836 l 67 715 l 31 715 l 161 940 l 231 940 m 43 0 l 43 29 q 131 57 118 29 l 131 526 q 43 533 44 533 l 43 565 q 147 595 69 565 q 256 625 224 625 l 256 57 q 343 29 268 29 l 343 0 l 43 0 z "},"ï":{"ha":372,"x_min":0,"x_max":392,"o":"m 276 735 q 266 745 276 735 q 256 783 256 756 q 276 831 256 811 q 324 851 296 851 q 372 831 351 851 q 392 783 392 811 q 372 735 392 756 q 324 715 351 715 q 276 735 296 715 m 20 735 q 10 745 20 735 q 0 783 0 756 q 20 831 0 811 q 68 851 40 851 q 116 831 96 851 q 136 783 136 811 q 116 735 136 756 q 68 715 96 715 q 20 735 40 715 m 43 0 l 43 29 q 131 57 118 29 l 131 526 q 43 533 44 533 l 43 565 q 147 595 69 565 q 256 625 224 625 l 256 57 q 343 29 268 29 l 343 0 l 43 0 z "},"ð":{"ha":732,"x_min":54,"x_max":675,"o":"m 371 -14 q 135 76 217 -14 q 54 317 54 165 q 127 539 54 453 q 361 625 200 625 q 453 617 411 625 q 354 739 413 681 l 238 672 l 214 713 l 318 772 q 263 815 290 796 q 222 842 236 835 l 208 850 l 224 875 q 368 801 288 851 l 490 872 l 514 832 l 413 772 q 675 300 675 583 q 603 74 675 163 q 371 -14 531 -14 m 188 344 q 242 106 188 185 q 389 28 296 28 q 502 94 463 28 q 542 268 542 160 q 492 507 542 432 q 338 582 443 582 q 226 513 265 582 q 188 344 188 444 z "},"ñ":{"ha":776,"x_min":43,"x_max":753,"o":"m 504 717 q 391 758 474 717 q 289 799 308 799 q 235 778 250 799 q 219 717 219 758 l 193 717 q 299 872 193 872 q 413 831 329 872 q 515 790 496 790 q 569 810 554 790 q 585 872 585 831 l 611 872 q 504 717 611 717 m 43 0 l 43 29 q 131 57 118 29 l 131 526 q 43 533 44 533 l 43 565 q 147 595 69 565 q 256 625 224 625 l 256 561 q 421 625 331 625 q 608 577 550 625 q 665 428 665 529 l 665 57 q 753 29 678 29 l 753 0 l 453 0 l 453 29 q 540 57 528 29 l 540 438 q 413 578 540 578 q 256 517 325 578 l 256 57 q 343 29 268 29 l 343 0 l 43 0 z "},"ò":{"ha":757,"x_min":54,"x_max":703,"o":"m 314 940 l 417 715 l 381 715 l 167 940 l 314 940 m 188 344 q 248 107 188 186 q 403 28 308 28 q 524 95 478 28 q 569 268 569 163 q 351 582 569 582 q 233 512 278 582 q 188 344 188 442 m 385 -14 q 142 77 229 -14 q 54 317 54 168 q 133 538 54 451 q 375 625 213 625 q 621 538 539 625 q 703 300 703 451 q 624 76 703 165 q 385 -14 546 -14 z "},"ó":{"ha":757,"x_min":54,"x_max":703,"o":"m 465 940 l 613 940 l 399 715 l 363 715 l 465 940 m 188 344 q 248 107 188 186 q 403 28 308 28 q 524 95 478 28 q 569 268 569 163 q 351 582 569 582 q 233 512 278 582 q 188 344 188 442 m 385 -14 q 142 77 229 -14 q 54 317 54 168 q 133 538 54 451 q 375 625 213 625 q 621 538 539 625 q 703 300 703 451 q 624 76 703 165 q 385 -14 546 -14 z "},"ô":{"ha":757,"x_min":54,"x_max":703,"o":"m 415 940 l 546 715 l 510 715 l 381 836 l 251 715 l 215 715 l 346 940 l 415 940 m 188 344 q 248 107 188 186 q 403 28 308 28 q 524 95 478 28 q 569 268 569 163 q 351 582 569 582 q 233 512 278 582 q 188 344 188 442 m 385 -14 q 142 77 229 -14 q 54 317 54 168 q 133 538 54 451 q 375 625 213 625 q 621 538 539 625 q 703 300 703 451 q 624 76 703 165 q 385 -14 546 -14 z "},"õ":{"ha":757,"x_min":54,"x_max":703,"o":"m 485 715 q 372 756 454 715 q 269 797 289 797 q 215 777 231 797 q 200 715 200 757 l 174 715 q 279 871 174 871 q 393 830 310 871 q 496 789 476 789 q 550 809 535 789 q 565 871 565 829 l 592 871 q 485 715 592 715 m 188 344 q 248 107 188 186 q 403 28 308 28 q 524 95 478 28 q 569 268 569 163 q 351 582 569 582 q 233 512 278 582 q 188 344 188 442 m 385 -14 q 142 77 229 -14 q 54 317 54 168 q 133 538 54 451 q 375 625 213 625 q 621 538 539 625 q 703 300 703 451 q 624 76 703 165 q 385 -14 546 -14 z "},"ö":{"ha":757,"x_min":54,"x_max":703,"o":"m 460 735 q 450 745 460 735 q 440 783 440 756 q 460 831 440 811 q 508 851 481 851 q 556 831 536 851 q 576 783 576 811 q 556 735 576 756 q 508 715 536 715 q 460 735 481 715 m 205 735 q 195 745 205 735 q 185 783 185 756 q 205 831 185 811 q 253 851 225 851 q 301 831 281 851 q 321 783 321 811 q 301 735 321 756 q 253 715 281 715 q 205 735 225 715 m 188 344 q 248 107 188 186 q 403 28 308 28 q 524 95 478 28 q 569 268 569 163 q 351 582 569 582 q 233 512 278 582 q 188 344 188 442 m 385 -14 q 142 77 229 -14 q 54 317 54 168 q 133 538 54 451 q 375 625 213 625 q 621 538 539 625 q 703 300 703 451 q 624 76 703 165 q 385 -14 546 -14 z "},"÷":{"ha":669,"x_min":61,"x_max":608,"o":"m 281 578 q 268 591 281 578 q 256 635 256 603 q 277 692 256 667 q 333 718 299 718 q 389 694 364 718 q 414 639 414 671 q 392 581 414 607 q 335 554 369 554 q 281 578 306 554 m 281 190 q 268 202 281 190 q 256 246 256 214 q 277 303 256 278 q 333 329 299 329 q 389 306 364 329 q 414 250 414 282 q 392 192 414 218 q 335 165 369 165 q 281 190 306 165 m 61 472 l 608 472 l 608 411 l 61 411 l 61 472 z "},"ø":{"ha":757,"x_min":54,"x_max":703,"o":"m 500 524 q 351 582 447 582 q 233 512 278 582 q 188 344 188 442 q 229 138 188 217 l 500 524 m 528 483 l 257 96 q 403 28 315 28 q 524 95 478 28 q 569 268 569 163 q 528 483 569 408 m 586 567 q 703 300 703 485 q 624 76 703 165 q 385 -14 546 -14 q 208 26 282 -14 l 156 -49 l 118 -21 l 169 51 q 54 317 54 142 q 133 538 54 451 q 375 625 213 625 q 546 590 474 625 l 594 660 l 632 632 l 586 567 z "},"ù":{"ha":764,"x_min":24,"x_max":733,"o":"m 310 940 l 413 715 l 376 715 l 163 940 l 310 940 m 646 85 q 733 78 646 85 l 733 46 q 630 16 707 46 q 521 -14 553 -14 l 521 50 q 356 -14 446 -14 q 169 34 226 -14 q 111 183 111 82 l 111 554 q 24 582 99 582 l 24 611 l 236 611 l 236 174 q 364 33 236 33 q 521 94 451 33 l 521 554 q 433 582 508 582 l 433 611 l 646 611 l 646 85 z "},"ú":{"ha":764,"x_min":24,"x_max":733,"o":"m 461 940 l 608 940 l 394 715 l 358 715 l 461 940 m 646 85 q 733 78 646 85 l 733 46 q 630 16 707 46 q 521 -14 553 -14 l 521 50 q 356 -14 446 -14 q 169 34 226 -14 q 111 183 111 82 l 111 554 q 24 582 99 582 l 24 611 l 236 611 l 236 174 q 364 33 236 33 q 521 94 451 33 l 521 554 q 433 582 508 582 l 433 611 l 646 611 l 646 85 z "},"û":{"ha":764,"x_min":24,"x_max":733,"o":"m 411 940 l 542 715 l 506 715 l 376 836 l 247 715 l 211 715 l 342 940 l 411 940 m 646 85 q 733 78 646 85 l 733 46 q 630 16 707 46 q 521 -14 553 -14 l 521 50 q 356 -14 446 -14 q 169 34 226 -14 q 111 183 111 82 l 111 554 q 24 582 99 582 l 24 611 l 236 611 l 236 174 q 364 33 236 33 q 521 94 451 33 l 521 554 q 433 582 508 582 l 433 611 l 646 611 l 646 85 z "},"ü":{"ha":764,"x_min":24,"x_max":733,"o":"m 456 735 q 446 745 456 735 q 436 783 436 756 q 456 831 436 811 q 504 851 476 851 q 552 831 532 851 q 572 783 572 811 q 552 735 572 756 q 504 715 532 715 q 456 735 476 715 m 201 735 q 191 745 201 735 q 181 783 181 756 q 201 831 181 811 q 249 851 221 851 q 297 831 276 851 q 317 783 317 811 q 297 735 317 756 q 249 715 276 715 q 201 735 221 715 m 646 85 q 733 78 646 85 l 733 46 q 630 16 707 46 q 521 -14 553 -14 l 521 50 q 356 -14 446 -14 q 169 34 226 -14 q 111 183 111 82 l 111 554 q 24 582 99 582 l 24 611 l 236 611 l 236 174 q 364 33 236 33 q 521 94 451 33 l 521 554 q 433 582 508 582 l 433 611 l 646 611 l 646 85 z "},"ý":{"ha":671,"x_min":-7,"x_max":678,"o":"m 446 940 l 593 940 l 379 715 l 343 715 l 446 940 m 263 611 l 263 582 q 204 576 222 582 l 369 169 l 528 567 q 450 582 508 582 l 450 611 l 678 611 l 678 582 q 592 557 603 582 l 313 -142 q 245 -237 286 -207 q 167 -267 204 -267 q 112 -249 132 -267 q 92 -206 92 -231 q 106 -168 92 -185 q 146 -151 121 -151 q 178 -163 161 -151 q 203 -175 194 -175 q 242 -150 232 -175 l 301 0 l 81 554 q -7 582 68 582 l -7 611 l 263 611 z "},"þ":{"ha":721,"x_min":7,"x_max":667,"o":"m 7 -267 l 7 -237 q 94 -210 82 -237 l 94 776 q 7 783 8 783 l 7 815 q 110 845 33 815 q 219 875 188 875 l 219 542 q 411 625 297 625 q 600 549 533 625 q 667 371 667 472 q 550 78 667 174 q 219 -17 433 -17 l 219 -210 q 307 -237 232 -237 l 307 -267 l 7 -267 m 219 492 l 219 24 q 535 336 535 29 q 497 512 535 446 q 397 578 458 578 q 219 492 289 578 z "},"ÿ":{"ha":671,"x_min":-7,"x_max":678,"o":"m 441 735 q 431 745 441 735 q 421 783 421 756 q 441 831 421 811 q 489 851 461 851 q 537 831 517 851 q 557 783 557 811 q 537 735 557 756 q 489 715 517 715 q 441 735 461 715 m 185 735 q 175 745 185 735 q 165 783 165 756 q 185 831 165 811 q 233 851 206 851 q 281 831 261 851 q 301 783 301 811 q 281 735 301 756 q 233 715 261 715 q 185 735 206 715 m 263 611 l 263 582 q 204 576 222 582 l 369 169 l 528 567 q 450 582 508 582 l 450 611 l 678 611 l 678 582 q 592 557 603 582 l 313 -142 q 245 -237 286 -207 q 167 -267 204 -267 q 112 -249 132 -267 q 92 -206 92 -231 q 106 -168 92 -185 q 146 -151 121 -151 q 178 -163 161 -151 q 203 -175 194 -175 q 242 -150 232 -175 l 301 0 l 81 554 q -7 582 68 582 l -7 611 l 263 611 z "},"Ā":{"ha":758,"x_min":-11,"x_max":771,"o":"m 192 942 l 558 942 l 558 881 l 192 881 l 192 942 m 467 0 l 467 29 q 547 46 531 29 l 469 258 l 203 258 l 131 54 q 217 29 144 29 l 217 0 l -11 0 l -11 29 q 76 58 67 29 l 346 813 l 413 813 l 682 58 q 771 29 692 29 l 771 0 l 467 0 m 335 628 l 219 304 l 453 304 l 335 628 z "},"ā":{"ha":671,"x_min":44,"x_max":683,"o":"m 117 796 l 483 796 l 483 735 l 117 735 l 117 796 m 156 508 q 190 494 175 508 q 204 451 204 481 q 185 415 204 428 q 142 403 167 403 q 99 422 115 403 q 82 472 82 440 q 142 585 82 544 q 311 625 201 625 q 501 561 440 625 q 561 392 561 497 l 561 117 q 576 51 561 72 q 611 31 590 31 q 644 40 629 31 q 658 64 658 50 l 683 64 q 655 7 683 25 q 556 -11 626 -11 q 457 46 486 -11 q 253 -14 375 -14 q 44 156 44 -14 q 70 221 44 192 q 144 269 96 250 q 236 301 193 289 q 344 327 279 313 q 436 350 408 342 q 406 521 436 467 q 297 575 375 575 q 156 508 172 575 m 444 81 q 436 156 436 111 l 436 319 q 384 304 421 314 q 324 288 347 294 q 269 267 301 281 q 219 239 238 253 q 188 202 201 225 q 174 153 174 179 q 199 60 174 86 q 276 33 225 33 q 444 81 368 33 z "},"Ă":{"ha":758,"x_min":-11,"x_max":771,"o":"m 383 875 q 253 931 299 875 q 208 1047 208 988 l 247 1047 q 283 997 247 1019 q 383 975 318 975 q 484 997 449 975 q 519 1047 519 1018 l 558 1047 q 514 931 558 986 q 383 875 469 875 m 467 0 l 467 29 q 547 46 531 29 l 469 258 l 203 258 l 131 54 q 217 29 144 29 l 217 0 l -11 0 l -11 29 q 76 58 67 29 l 346 813 l 413 813 l 682 58 q 771 29 692 29 l 771 0 l 467 0 m 335 628 l 219 304 l 453 304 l 335 628 z "},"ă":{"ha":671,"x_min":44,"x_max":683,"o":"m 308 729 q 178 785 224 729 q 133 901 133 842 l 172 901 q 208 851 172 874 q 308 829 243 829 q 409 851 374 829 q 444 901 444 872 l 483 901 q 439 785 483 840 q 308 729 394 729 m 156 508 q 190 494 175 508 q 204 451 204 481 q 185 415 204 428 q 142 403 167 403 q 99 422 115 403 q 82 472 82 440 q 142 585 82 544 q 311 625 201 625 q 501 561 440 625 q 561 392 561 497 l 561 117 q 576 51 561 72 q 611 31 590 31 q 644 40 629 31 q 658 64 658 50 l 683 64 q 655 7 683 25 q 556 -11 626 -11 q 457 46 486 -11 q 253 -14 375 -14 q 44 156 44 -14 q 70 221 44 192 q 144 269 96 250 q 236 301 193 289 q 344 327 279 313 q 436 350 408 342 q 406 521 436 467 q 297 575 375 575 q 156 508 172 575 m 444 81 q 436 156 436 111 l 436 319 q 384 304 421 314 q 324 288 347 294 q 269 267 301 281 q 219 239 238 253 q 188 202 201 225 q 174 153 174 179 q 199 60 174 86 q 276 33 225 33 q 444 81 368 33 z "},"Ą":{"ha":758,"x_min":-11,"x_max":840,"o":"m 335 628 l 219 304 l 453 304 l 335 628 m 467 0 l 467 29 q 547 46 531 29 l 469 258 l 203 258 l 131 54 q 217 29 144 29 l 217 0 l -11 0 l -11 29 q 76 58 67 29 l 346 813 l 413 813 l 682 58 q 771 29 692 29 l 771 0 l 697 0 q 660 -82 660 -47 q 697 -190 660 -150 q 782 -231 735 -231 q 801 -225 790 -231 q 819 -214 813 -219 l 825 -208 l 840 -233 q 831 -246 838 -239 q 795 -265 824 -253 q 731 -278 767 -278 q 627 -242 663 -278 q 592 -143 592 -207 q 658 0 592 -62 l 467 0 z "},"ą":{"ha":669,"x_min":44,"x_max":731,"o":"m 444 81 q 436 156 436 111 l 436 319 q 384 304 421 314 q 324 288 347 294 q 269 267 301 281 q 219 239 238 253 q 188 202 201 225 q 174 153 174 179 q 199 60 174 86 q 276 33 225 33 q 444 81 368 33 m 156 508 l 154 508 q 188 494 174 508 q 203 451 203 481 q 184 415 203 428 q 140 403 165 403 q 97 422 114 403 q 81 472 81 440 q 140 585 81 544 q 310 625 200 625 q 499 561 439 625 q 560 392 560 497 l 560 117 q 574 51 560 72 q 610 31 589 31 q 642 40 628 31 q 657 64 657 50 l 682 64 q 658 10 682 28 q 579 -11 635 -8 q 550 -82 550 -51 q 588 -190 550 -150 q 672 -231 625 -231 q 692 -225 681 -231 q 708 -214 703 -219 l 715 -208 l 731 -233 q 721 -246 728 -239 q 685 -265 714 -253 q 621 -278 657 -278 q 517 -242 553 -278 q 482 -143 482 -207 q 539 -10 482 -69 q 457 46 482 -6 q 253 -14 375 -14 q 44 156 44 -14 q 70 221 44 192 q 144 269 96 250 q 236 301 193 289 q 344 327 279 313 q 436 350 408 342 q 406 521 436 467 q 297 575 375 575 q 156 508 172 575 z "},"Ć":{"ha":781,"x_min":58,"x_max":744,"o":"m 563 1086 l 710 1086 l 496 861 l 460 861 l 563 1086 m 481 779 q 282 681 361 779 q 203 425 203 582 q 286 138 203 242 q 486 33 369 33 q 624 81 556 33 q 711 183 692 129 l 744 167 q 644 38 713 90 q 458 -14 575 -14 q 166 106 274 -14 q 58 394 58 226 q 183 708 58 589 q 479 826 307 826 q 572 806 519 826 q 633 785 625 785 q 650 813 650 785 l 682 813 l 696 636 l 665 636 q 610 739 656 699 q 481 779 565 779 z "},"ć":{"ha":665,"x_min":54,"x_max":629,"o":"m 456 940 l 603 940 l 389 715 l 353 715 l 456 940 m 378 583 q 239 518 292 583 q 186 342 186 453 q 252 131 186 224 q 401 39 318 39 q 596 131 522 39 l 629 114 q 524 17 589 47 q 354 -14 460 -14 q 253 2 301 -14 q 157 55 204 18 q 82 164 110 92 q 54 336 54 236 q 140 541 54 457 q 364 625 225 625 q 533 588 474 625 q 593 478 593 550 q 576 427 593 446 q 533 408 560 408 q 490 421 508 408 q 471 457 471 433 q 485 500 471 486 q 519 514 500 514 q 378 583 501 583 z "},"Ĉ":{"ha":781,"x_min":58,"x_max":744,"o":"m 513 1086 l 643 861 l 607 861 l 478 982 l 349 861 l 313 861 l 443 1086 l 513 1086 m 481 779 q 282 681 361 779 q 203 425 203 582 q 286 138 203 242 q 486 33 369 33 q 624 81 556 33 q 711 183 692 129 l 744 167 q 644 38 713 90 q 458 -14 575 -14 q 166 106 274 -14 q 58 394 58 226 q 183 708 58 589 q 479 826 307 826 q 572 806 519 826 q 633 785 625 785 q 650 813 650 785 l 682 813 l 696 636 l 665 636 q 610 739 656 699 q 481 779 565 779 z "},"ĉ":{"ha":665,"x_min":54,"x_max":629,"o":"m 406 940 l 536 715 l 500 715 l 371 836 l 242 715 l 206 715 l 336 940 l 406 940 m 378 583 q 239 518 292 583 q 186 342 186 453 q 252 131 186 224 q 401 39 318 39 q 596 131 522 39 l 629 114 q 524 17 589 47 q 354 -14 460 -14 q 253 2 301 -14 q 157 55 204 18 q 82 164 110 92 q 54 336 54 236 q 140 541 54 457 q 364 625 225 625 q 533 588 474 625 q 593 478 593 550 q 576 427 593 446 q 533 408 560 408 q 490 421 508 408 q 471 457 471 433 q 485 500 471 486 q 519 514 500 514 q 378 583 501 583 z "},"Ċ":{"ha":781,"x_min":58,"x_max":744,"o":"m 428 883 q 417 894 428 883 q 407 933 407 904 q 428 983 407 963 q 478 1004 449 1004 q 528 983 507 1004 q 549 933 549 963 q 528 883 549 904 q 478 863 507 863 q 428 883 449 863 m 481 779 q 282 681 361 779 q 203 425 203 582 q 286 138 203 242 q 486 33 369 33 q 624 81 556 33 q 711 183 692 129 l 744 167 q 644 38 713 90 q 458 -14 575 -14 q 166 106 274 -14 q 58 394 58 226 q 183 708 58 589 q 479 826 307 826 q 572 806 519 826 q 633 785 625 785 q 650 813 650 785 l 682 813 l 696 636 l 665 636 q 610 739 656 699 q 481 779 565 779 z "},"ċ":{"ha":665,"x_min":54,"x_max":629,"o":"m 321 738 q 310 748 321 738 q 300 788 300 758 q 321 838 300 817 q 371 858 342 858 q 421 838 400 858 q 442 788 442 817 q 421 738 442 758 q 371 717 400 717 q 321 738 342 717 m 378 583 q 239 518 292 583 q 186 342 186 453 q 252 131 186 224 q 401 39 318 39 q 596 131 522 39 l 629 114 q 524 17 589 47 q 354 -14 460 -14 q 253 2 301 -14 q 157 55 204 18 q 82 164 110 92 q 54 336 54 236 q 140 541 54 457 q 364 625 225 625 q 533 588 474 625 q 593 478 593 550 q 576 427 593 446 q 533 408 560 408 q 490 421 508 408 q 471 457 471 433 q 485 500 471 486 q 519 514 500 514 q 378 583 501 583 z "},"Č":{"ha":781,"x_min":58,"x_max":744,"o":"m 444 861 l 314 1086 l 350 1086 l 479 965 l 608 1086 l 644 1086 l 514 861 l 444 861 m 481 779 q 282 681 361 779 q 203 425 203 582 q 286 138 203 242 q 486 33 369 33 q 624 81 556 33 q 711 183 692 129 l 744 167 q 644 38 713 90 q 458 -14 575 -14 q 166 106 274 -14 q 58 394 58 226 q 183 708 58 589 q 479 826 307 826 q 572 806 519 826 q 633 785 625 785 q 650 813 650 785 l 682 813 l 696 636 l 665 636 q 610 739 656 699 q 481 779 565 779 z "},"č":{"ha":665,"x_min":54,"x_max":629,"o":"m 338 715 l 207 940 l 243 940 l 372 819 l 501 940 l 538 940 l 407 715 l 338 715 m 378 583 q 239 518 292 583 q 186 342 186 453 q 252 131 186 224 q 401 39 318 39 q 596 131 522 39 l 629 114 q 524 17 589 47 q 354 -14 460 -14 q 253 2 301 -14 q 157 55 204 18 q 82 164 110 92 q 54 336 54 236 q 140 541 54 457 q 364 625 225 625 q 533 588 474 625 q 593 478 593 550 q 576 427 593 446 q 533 408 560 408 q 490 421 508 408 q 471 457 471 433 q 485 500 471 486 q 519 514 500 514 q 378 583 501 583 z "},"Ď":{"ha":849,"x_min":58,"x_max":788,"o":"m 339 861 l 208 1086 l 244 1086 l 374 965 l 503 1086 l 539 1086 l 408 861 l 339 861 m 58 0 l 58 29 q 146 57 133 29 l 146 756 q 58 783 133 783 l 58 813 l 378 813 q 675 701 563 813 q 788 408 788 589 q 678 114 788 228 q 394 0 568 0 l 58 0 m 274 772 l 274 47 l 394 47 q 481 67 439 47 q 563 128 524 88 q 625 240 601 168 q 649 407 649 313 q 567 680 649 588 q 378 772 486 772 l 274 772 z "},"ď":{"ha":788,"x_min":54,"x_max":881,"o":"m 760 754 q 689 815 689 754 q 703 855 689 840 q 731 872 718 869 q 753 875 743 875 q 843 842 806 875 q 881 754 881 810 q 708 583 881 638 l 708 622 q 780 660 743 626 q 817 738 817 694 q 814 767 817 763 q 803 772 811 772 q 787 763 799 772 q 760 754 775 754 m 504 597 l 504 776 l 417 783 l 417 815 q 520 845 443 815 q 629 875 597 875 l 629 85 l 717 78 l 717 46 q 613 16 690 46 q 504 -14 536 -14 l 504 32 q 338 -14 438 -14 q 247 2 292 -14 q 156 52 201 18 q 83 153 111 86 q 54 308 54 219 q 141 547 54 464 q 368 631 228 631 q 504 597 447 631 m 504 554 q 376 583 454 583 q 243 510 300 583 q 186 308 186 436 q 235 128 186 224 q 351 33 285 33 q 504 78 443 33 l 504 554 z "},"Đ":{"ha":849,"x_min":49,"x_max":788,"o":"m 274 382 l 274 47 l 394 47 q 481 67 439 47 q 563 128 524 88 q 625 240 601 168 q 649 407 649 313 q 567 680 649 588 q 378 772 486 772 l 274 772 l 274 429 l 415 429 l 415 382 l 274 382 m 58 0 l 58 29 q 146 57 133 29 l 146 382 l 49 382 l 49 429 l 146 429 l 146 756 q 58 783 133 783 l 58 813 l 378 813 q 675 701 563 813 q 788 408 788 589 q 678 114 788 228 q 394 0 568 0 l 58 0 z "},"đ":{"ha":746,"x_min":54,"x_max":717,"o":"m 504 554 q 376 583 454 583 q 243 510 300 583 q 186 308 186 436 q 235 128 186 224 q 351 33 285 33 q 504 78 443 33 l 504 554 m 629 682 l 629 85 l 717 78 l 717 46 q 613 16 690 46 q 504 -14 536 -14 l 504 32 q 338 -14 438 -14 q 247 2 292 -14 q 156 52 201 18 q 83 153 111 86 q 54 308 54 219 q 141 547 54 464 q 368 631 228 631 q 504 597 447 631 l 504 682 l 347 682 l 347 729 l 504 729 l 504 776 l 417 783 l 417 815 q 520 845 443 815 q 629 875 597 875 l 629 729 l 714 729 l 714 682 l 629 682 z "},"Ē":{"ha":704,"x_min":58,"x_max":681,"o":"m 181 942 l 547 942 l 547 881 l 181 881 l 181 942 m 58 0 l 58 29 q 146 57 133 29 l 146 756 q 58 783 133 783 l 58 813 l 618 813 l 618 678 l 589 678 q 561 765 589 753 l 274 765 l 274 446 l 468 446 q 496 533 496 458 l 525 533 l 525 311 l 496 311 q 468 399 496 386 l 274 399 l 274 47 l 590 47 q 653 135 625 63 l 681 135 l 647 0 l 58 0 z "},"ē":{"ha":685,"x_min":54,"x_max":632,"o":"m 167 796 l 533 796 l 533 735 l 167 735 l 167 796 m 186 335 q 253 128 188 218 q 401 39 319 39 q 596 131 522 39 l 629 114 q 524 17 589 47 q 354 -14 460 -14 q 253 2 301 -14 q 157 55 204 18 q 82 164 110 92 q 54 336 54 236 q 130 542 54 458 q 340 625 206 625 q 560 542 488 625 q 632 335 632 460 l 186 335 m 188 378 l 496 378 q 453 531 488 478 q 335 583 419 583 q 241 526 286 583 q 188 378 196 469 z "},"Ĕ":{"ha":704,"x_min":58,"x_max":681,"o":"m 372 875 q 242 931 288 875 q 197 1047 197 988 l 236 1047 q 272 997 236 1019 q 372 975 307 975 q 473 997 438 975 q 508 1047 508 1018 l 547 1047 q 503 931 547 986 q 372 875 458 875 m 58 0 l 58 29 q 146 57 133 29 l 146 756 q 58 783 133 783 l 58 813 l 618 813 l 618 678 l 589 678 q 561 765 589 753 l 274 765 l 274 446 l 468 446 q 496 533 496 458 l 525 533 l 525 311 l 496 311 q 468 399 496 386 l 274 399 l 274 47 l 590 47 q 653 135 625 63 l 681 135 l 647 0 l 58 0 z "},"ĕ":{"ha":685,"x_min":54,"x_max":632,"o":"m 339 729 q 209 785 254 729 q 164 901 164 842 l 203 901 q 238 851 203 874 q 339 829 274 829 q 440 851 404 829 q 475 901 475 872 l 514 901 q 469 785 514 840 q 339 729 425 729 m 186 335 q 253 128 188 218 q 401 39 319 39 q 596 131 522 39 l 629 114 q 524 17 589 47 q 354 -14 460 -14 q 253 2 301 -14 q 157 55 204 18 q 82 164 110 92 q 54 336 54 236 q 130 542 54 458 q 340 625 206 625 q 560 542 488 625 q 632 335 632 460 l 186 335 m 188 378 l 496 378 q 453 531 488 478 q 335 583 419 583 q 241 526 286 583 q 188 378 196 469 z "},"Ė":{"ha":704,"x_min":58,"x_max":681,"o":"m 322 883 q 312 894 322 883 q 301 933 301 904 q 322 983 301 963 q 372 1004 343 1004 q 422 983 401 1004 q 443 933 443 963 q 422 883 443 904 q 372 863 401 863 q 322 883 343 863 m 58 0 l 58 29 q 146 57 133 29 l 146 756 q 58 783 133 783 l 58 813 l 618 813 l 618 678 l 589 678 q 561 765 589 753 l 274 765 l 274 446 l 468 446 q 496 533 496 458 l 525 533 l 525 311 l 496 311 q 468 399 496 386 l 274 399 l 274 47 l 590 47 q 653 135 625 63 l 681 135 l 647 0 l 58 0 z "},"ė":{"ha":685,"x_min":54,"x_max":632,"o":"m 289 738 q 278 748 289 738 q 268 788 268 758 q 289 838 268 817 q 339 858 310 858 q 389 838 368 858 q 410 788 410 817 q 389 738 410 758 q 339 717 368 717 q 289 738 310 717 m 186 335 q 253 128 188 218 q 401 39 319 39 q 596 131 522 39 l 629 114 q 524 17 589 47 q 354 -14 460 -14 q 253 2 301 -14 q 157 55 204 18 q 82 164 110 92 q 54 336 54 236 q 130 542 54 458 q 340 625 206 625 q 560 542 488 625 q 632 335 632 460 l 186 335 m 188 378 l 496 378 q 453 531 488 478 q 335 583 419 583 q 241 526 286 583 q 188 378 196 469 z "},"Ę":{"ha":704,"x_min":58,"x_max":724,"o":"m 58 0 l 58 29 q 146 57 133 29 l 146 756 q 58 783 133 783 l 58 813 l 618 813 l 618 678 l 589 678 q 561 765 589 753 l 274 765 l 274 446 l 468 446 q 496 533 496 458 l 525 533 l 525 311 l 496 311 q 468 399 496 386 l 274 399 l 274 47 l 590 47 q 653 135 625 63 l 681 135 l 647 0 l 581 0 q 543 -82 543 -47 q 581 -190 543 -150 q 665 -231 618 -231 q 685 -225 674 -231 q 703 -214 696 -219 l 708 -208 l 724 -233 q 714 -246 721 -239 q 678 -265 707 -253 q 614 -278 650 -278 q 510 -242 546 -278 q 475 -143 475 -207 q 542 0 475 -62 l 58 0 z "},"ę":{"ha":686,"x_min":56,"x_max":633,"o":"m 189 378 l 497 378 q 455 531 489 478 q 336 583 421 583 q 242 526 288 583 q 189 378 197 469 m 188 335 l 186 333 q 253 127 188 217 q 401 38 319 38 q 596 129 522 38 l 629 113 q 424 -11 565 7 q 394 -82 394 -51 q 432 -190 394 -150 q 517 -231 469 -231 q 536 -225 525 -231 q 553 -214 547 -219 l 560 -208 l 575 -233 q 565 -246 572 -239 q 530 -265 558 -253 q 465 -278 501 -278 q 362 -242 397 -278 q 326 -143 326 -207 q 381 -14 326 -71 l 356 -14 q 254 2 303 -14 q 158 55 206 18 q 83 164 111 92 q 56 336 56 236 q 131 542 56 458 q 342 625 207 625 q 561 542 489 625 q 633 335 633 460 l 188 335 z "},"Ě":{"ha":704,"x_min":58,"x_max":681,"o":"m 339 861 l 208 1086 l 244 1086 l 374 965 l 503 1086 l 539 1086 l 408 861 l 339 861 m 58 0 l 58 29 q 146 57 133 29 l 146 756 q 58 783 133 783 l 58 813 l 618 813 l 618 678 l 589 678 q 561 765 589 753 l 274 765 l 274 446 l 468 446 q 496 533 496 458 l 525 533 l 525 311 l 496 311 q 468 399 496 386 l 274 399 l 274 47 l 590 47 q 653 135 625 63 l 681 135 l 647 0 l 58 0 z "},"ě":{"ha":685,"x_min":54,"x_max":632,"o":"m 306 715 l 175 940 l 211 940 l 340 819 l 469 940 l 506 940 l 375 715 l 306 715 m 186 335 q 253 128 188 218 q 401 39 319 39 q 596 131 522 39 l 629 114 q 524 17 589 47 q 354 -14 460 -14 q 253 2 301 -14 q 157 55 204 18 q 82 164 110 92 q 54 336 54 236 q 130 542 54 458 q 340 625 206 625 q 560 542 488 625 q 632 335 632 460 l 186 335 m 188 378 l 496 378 q 453 531 488 478 q 335 583 419 583 q 241 526 286 583 q 188 378 196 469 z "},"Ĝ":{"ha":857,"x_min":56,"x_max":835,"o":"m 510 1086 l 640 861 l 604 861 l 475 982 l 346 861 l 310 861 l 440 1086 l 510 1086 m 492 779 q 286 667 372 779 q 200 397 200 556 q 225 228 200 301 q 292 113 250 154 q 379 53 333 72 q 472 33 425 33 q 619 60 550 33 l 619 344 q 532 372 607 372 l 532 401 l 835 401 l 835 372 q 747 344 760 372 l 747 111 q 652 26 724 67 q 469 -14 581 -14 q 169 107 283 -14 q 56 394 56 228 q 186 707 56 588 q 490 826 317 826 q 590 806 531 826 q 658 785 650 785 q 675 813 675 785 l 707 813 l 721 636 l 690 636 q 629 738 682 697 q 492 779 576 779 z "},"ĝ":{"ha":722,"x_min":54,"x_max":628,"o":"m 410 940 l 540 715 l 504 715 l 375 836 l 246 715 l 210 715 l 340 940 l 410 940 m 628 625 l 628 40 q 559 -190 628 -103 q 358 -278 490 -278 q 169 -237 240 -278 q 97 -153 97 -197 q 114 -102 97 -121 q 157 -83 131 -83 q 201 -96 182 -83 q 219 -132 219 -108 q 185 -190 219 -176 q 344 -228 222 -228 q 501 28 488 -228 q 338 -14 438 -14 q 247 1 292 -14 q 156 49 201 15 q 83 148 111 82 q 54 303 54 214 q 141 542 54 458 q 368 625 228 625 q 521 581 456 625 q 628 625 592 625 m 503 74 l 503 90 l 503 549 q 376 578 453 578 q 243 505 300 578 q 186 303 186 432 q 232 107 186 181 q 351 33 278 33 q 503 74 443 33 z "},"Ğ":{"ha":857,"x_min":56,"x_max":835,"o":"m 475 875 q 345 931 390 875 q 300 1047 300 988 l 339 1047 q 374 997 339 1019 q 475 975 410 975 q 576 997 540 975 q 611 1047 611 1018 l 650 1047 q 606 931 650 986 q 475 875 561 875 m 492 779 q 286 667 372 779 q 200 397 200 556 q 225 228 200 301 q 292 113 250 154 q 379 53 333 72 q 472 33 425 33 q 619 60 550 33 l 619 344 q 532 372 607 372 l 532 401 l 835 401 l 835 372 q 747 344 760 372 l 747 111 q 652 26 724 67 q 469 -14 581 -14 q 169 107 283 -14 q 56 394 56 228 q 186 707 56 588 q 490 826 317 826 q 590 806 531 826 q 658 785 650 785 q 675 813 675 785 l 707 813 l 721 636 l 690 636 q 629 738 682 697 q 492 779 576 779 z "},"ğ":{"ha":722,"x_min":54,"x_max":628,"o":"m 375 729 q 245 785 290 729 q 200 901 200 842 l 239 901 q 274 851 239 874 q 375 829 310 829 q 476 851 440 829 q 511 901 511 872 l 550 901 q 506 785 550 840 q 375 729 461 729 m 628 625 l 628 40 q 559 -190 628 -103 q 358 -278 490 -278 q 169 -237 240 -278 q 97 -153 97 -197 q 114 -102 97 -121 q 157 -83 131 -83 q 201 -96 182 -83 q 219 -132 219 -108 q 185 -190 219 -176 q 344 -228 222 -228 q 501 28 488 -228 q 338 -14 438 -14 q 247 1 292 -14 q 156 49 201 15 q 83 148 111 82 q 54 303 54 214 q 141 542 54 458 q 368 625 228 625 q 521 581 456 625 q 628 625 592 625 m 503 74 l 503 90 l 503 549 q 376 578 453 578 q 243 505 300 578 q 186 303 186 432 q 232 107 186 181 q 351 33 278 33 q 503 74 443 33 z "},"Ġ":{"ha":857,"x_min":56,"x_max":835,"o":"m 425 883 q 415 894 425 883 q 404 933 404 904 q 425 983 404 963 q 475 1004 446 1004 q 525 983 504 1004 q 546 933 546 963 q 525 883 546 904 q 475 863 504 863 q 425 883 446 863 m 492 779 q 286 667 372 779 q 200 397 200 556 q 225 228 200 301 q 292 113 250 154 q 379 53 333 72 q 472 33 425 33 q 619 60 550 33 l 619 344 q 532 372 607 372 l 532 401 l 835 401 l 835 372 q 747 344 760 372 l 747 111 q 652 26 724 67 q 469 -14 581 -14 q 169 107 283 -14 q 56 394 56 228 q 186 707 56 588 q 490 826 317 826 q 590 806 531 826 q 658 785 650 785 q 675 813 675 785 l 707 813 l 721 636 l 690 636 q 629 738 682 697 q 492 779 576 779 z "},"ġ":{"ha":722,"x_min":54,"x_max":628,"o":"m 325 738 q 315 748 325 738 q 304 788 304 758 q 325 838 304 817 q 375 858 346 858 q 425 838 404 858 q 446 788 446 817 q 425 738 446 758 q 375 717 404 717 q 325 738 346 717 m 628 625 l 628 40 q 559 -190 628 -103 q 358 -278 490 -278 q 169 -237 240 -278 q 97 -153 97 -197 q 114 -102 97 -121 q 157 -83 131 -83 q 201 -96 182 -83 q 219 -132 219 -108 q 185 -190 219 -176 q 344 -228 222 -228 q 501 28 488 -228 q 338 -14 438 -14 q 247 1 292 -14 q 156 49 201 15 q 83 148 111 82 q 54 303 54 214 q 141 542 54 458 q 368 625 228 625 q 521 581 456 625 q 628 625 592 625 m 503 74 l 503 90 l 503 549 q 376 578 453 578 q 243 505 300 578 q 186 303 186 432 q 232 107 186 181 q 351 33 278 33 q 503 74 443 33 z "},"Ģ":{"ha":857,"x_min":56,"x_max":835,"o":"m 454 -174 q 383 -112 383 -174 q 398 -73 383 -87 q 425 -56 413 -58 q 447 -53 438 -53 q 538 -85 500 -53 q 575 -174 575 -118 q 403 -344 575 -290 l 403 -306 q 474 -267 438 -301 q 511 -190 511 -233 q 508 -160 511 -165 q 497 -156 506 -156 q 481 -165 493 -156 q 454 -174 469 -174 m 492 779 q 286 667 372 779 q 200 397 200 556 q 225 228 200 301 q 292 113 250 154 q 379 53 333 72 q 472 33 425 33 q 619 60 550 33 l 619 344 q 532 372 607 372 l 532 401 l 835 401 l 835 372 q 747 344 760 372 l 747 111 q 652 26 724 67 q 469 -14 581 -14 q 169 107 283 -14 q 56 394 56 228 q 186 707 56 588 q 490 826 317 826 q 590 806 531 826 q 658 785 650 785 q 675 813 675 785 l 707 813 l 721 636 l 690 636 q 629 738 682 697 q 492 779 576 779 z "},"ģ":{"ha":722,"x_min":54,"x_max":628,"o":"m 368 838 q 439 776 439 838 q 424 737 439 751 q 397 719 410 722 q 375 717 385 717 q 285 749 322 717 q 247 838 247 782 q 419 1008 247 954 l 419 969 q 348 931 385 965 q 311 854 311 897 q 314 824 311 829 q 325 819 317 819 q 341 828 329 819 q 368 838 353 838 m 628 625 l 628 40 q 559 -190 628 -103 q 358 -278 490 -278 q 169 -237 240 -278 q 97 -153 97 -197 q 114 -102 97 -121 q 157 -83 131 -83 q 201 -96 182 -83 q 219 -132 219 -108 q 185 -190 219 -176 q 344 -228 222 -228 q 501 28 488 -228 q 338 -14 438 -14 q 247 1 292 -14 q 156 49 201 15 q 83 148 111 82 q 54 303 54 214 q 141 542 54 458 q 368 625 228 625 q 521 581 456 625 q 628 625 592 625 m 503 74 l 503 90 l 503 549 q 376 578 453 578 q 243 505 300 578 q 186 303 186 432 q 232 107 186 181 q 351 33 278 33 q 503 74 443 33 z "},"Ĥ":{"ha":903,"x_min":58,"x_max":844,"o":"m 488 1086 l 618 861 l 582 861 l 453 982 l 324 861 l 288 861 l 418 1086 l 488 1086 m 58 0 l 58 29 q 146 57 133 29 l 146 756 q 58 783 133 783 l 58 813 l 361 813 l 361 783 q 274 756 286 783 l 274 446 l 629 446 l 629 756 q 542 783 617 783 l 542 813 l 844 813 l 844 783 q 757 756 769 783 l 757 57 q 844 29 769 29 l 844 0 l 542 0 l 542 29 q 629 57 617 29 l 629 399 l 274 399 l 274 57 q 361 29 286 29 l 361 0 l 58 0 z "},"ĥ":{"ha":764,"x_min":17,"x_max":739,"o":"m 217 1135 l 347 910 l 311 910 l 182 1031 l 53 910 l 17 910 l 147 1135 l 217 1135 m 29 0 l 29 29 q 117 57 104 29 l 117 776 q 29 783 31 783 l 29 815 q 133 845 56 815 q 242 875 210 875 l 242 561 q 407 625 317 625 q 595 582 539 625 q 651 433 651 539 l 651 57 q 739 29 664 29 l 739 0 l 439 0 l 439 29 q 526 57 514 29 l 526 443 q 399 578 526 578 q 242 517 311 578 l 242 57 q 329 29 254 29 l 329 0 l 29 0 z "},"Ħ":{"ha":903,"x_min":58,"x_max":844,"o":"m 58 0 l 58 29 q 146 57 133 29 l 146 560 l 97 560 l 97 607 l 146 607 l 146 756 q 58 783 133 783 l 58 813 l 361 813 l 361 783 q 274 756 286 783 l 274 607 l 629 607 l 629 756 q 542 783 617 783 l 542 813 l 844 813 l 844 783 q 757 756 769 783 l 757 607 l 803 607 l 803 560 l 757 560 l 757 57 q 844 29 769 29 l 844 0 l 542 0 l 542 29 q 629 57 617 29 l 629 399 l 274 399 l 274 57 q 361 29 286 29 l 361 0 l 58 0 m 629 560 l 274 560 l 274 446 l 629 446 l 629 560 z "},"ħ":{"ha":764,"x_min":29,"x_max":739,"o":"m 29 0 l 29 29 q 117 57 104 29 l 117 693 l 33 693 l 33 740 l 117 740 l 117 776 q 29 783 31 783 l 29 815 q 133 845 56 815 q 242 875 210 875 l 242 740 l 400 740 l 400 693 l 242 693 l 242 561 q 407 625 317 625 q 595 582 539 625 q 651 433 651 539 l 651 57 q 739 29 664 29 l 739 0 l 439 0 l 439 29 q 526 57 514 29 l 526 443 q 399 578 526 578 q 242 517 311 578 l 242 57 q 329 29 254 29 l 329 0 l 29 0 z "},"Ĩ":{"ha":419,"x_min":0,"x_max":418,"o":"m 311 861 q 198 902 281 861 q 96 943 115 943 q 42 923 57 943 q 26 861 26 903 l 0 861 q 106 1017 0 1017 q 219 976 136 1017 q 322 935 303 935 q 376 955 361 935 q 392 1017 392 975 l 418 1017 q 311 861 418 861 m 58 0 l 58 29 q 146 57 133 29 l 146 756 q 58 783 133 783 l 58 813 l 361 813 l 361 783 q 274 756 286 783 l 274 57 q 361 29 286 29 l 361 0 l 58 0 z "},"ĩ":{"ha":372,"x_min":-11,"x_max":407,"o":"m 300 715 q 187 756 269 715 q 85 797 104 797 q 31 777 46 797 q 15 715 15 757 l -11 715 q 94 871 -11 871 q 208 830 125 871 q 311 789 292 789 q 365 809 350 789 q 381 871 381 829 l 407 871 q 300 715 407 715 m 43 0 l 43 29 q 131 57 118 29 l 131 526 q 43 533 44 533 l 43 565 q 147 595 69 565 q 256 625 224 625 l 256 57 q 343 29 268 29 l 343 0 l 43 0 z "},"Ī":{"ha":419,"x_min":25,"x_max":392,"o":"m 25 942 l 392 942 l 392 881 l 25 881 l 25 942 m 58 0 l 58 29 q 146 57 133 29 l 146 756 q 58 783 133 783 l 58 813 l 361 813 l 361 783 q 274 756 286 783 l 274 57 q 361 29 286 29 l 361 0 l 58 0 z "},"ī":{"ha":372,"x_min":4,"x_max":371,"o":"m 4 796 l 371 796 l 371 735 l 4 735 l 4 796 m 43 0 l 43 29 q 131 57 118 29 l 131 526 q 43 533 44 533 l 43 565 q 147 595 69 565 q 256 625 224 625 l 256 57 q 343 29 268 29 l 343 0 l 43 0 z "},"Ĭ":{"ha":419,"x_min":32,"x_max":382,"o":"m 207 875 q 77 931 122 875 q 32 1047 32 988 l 71 1047 q 106 997 71 1019 q 207 975 142 975 q 308 997 272 975 q 343 1047 343 1018 l 382 1047 q 338 931 382 986 q 207 875 293 875 m 58 0 l 58 29 q 146 57 133 29 l 146 756 q 58 783 133 783 l 58 813 l 361 813 l 361 783 q 274 756 286 783 l 274 57 q 361 29 286 29 l 361 0 l 58 0 z "},"ĭ":{"ha":372,"x_min":21,"x_max":371,"o":"m 196 729 q 66 785 111 729 q 21 901 21 842 l 60 901 q 95 851 60 874 q 196 829 131 829 q 297 851 261 829 q 332 901 332 872 l 371 901 q 326 785 371 840 q 196 729 282 729 m 43 0 l 43 29 q 131 57 118 29 l 131 526 q 43 533 44 533 l 43 565 q 147 595 69 565 q 256 625 224 625 l 256 57 q 343 29 268 29 l 343 0 l 43 0 z "},"Į":{"ha":419,"x_min":58,"x_max":439,"o":"m 58 0 l 58 29 q 146 57 133 29 l 146 756 q 58 783 133 783 l 58 813 l 361 813 l 361 783 q 274 756 286 783 l 274 57 q 361 29 286 29 l 361 0 l 296 0 q 258 -82 258 -47 q 296 -190 258 -150 q 381 -231 333 -231 q 400 -225 389 -231 q 417 -214 411 -219 l 424 -208 l 439 -233 q 429 -246 436 -239 q 394 -265 422 -253 q 329 -278 365 -278 q 226 -242 261 -278 q 190 -143 190 -207 q 257 0 190 -62 l 58 0 z "},"į":{"ha":372,"x_min":43,"x_max":404,"o":"m 189 714 q 135 737 158 714 q 113 796 113 760 q 133 851 113 828 q 185 875 153 875 q 239 851 215 875 q 263 792 263 828 q 242 737 263 760 q 189 714 221 714 m 43 0 l 43 29 q 131 57 118 29 l 131 526 q 43 533 44 533 l 43 565 q 147 595 69 565 q 256 625 224 625 l 256 57 q 343 29 268 29 l 343 0 l 261 0 q 224 -82 224 -47 q 261 -190 224 -150 q 346 -231 299 -231 q 365 -225 354 -231 q 383 -214 376 -219 l 389 -208 l 404 -233 q 394 -246 401 -239 q 359 -265 388 -253 q 294 -278 331 -278 q 191 -242 226 -278 q 156 -143 156 -207 q 222 0 156 -62 l 43 0 z "},"İ":{"ha":419,"x_min":58,"x_max":361,"o":"m 157 883 q 147 894 157 883 q 136 933 136 904 q 157 983 136 963 q 207 1004 178 1004 q 257 983 236 1004 q 278 933 278 963 q 257 883 278 904 q 207 863 236 863 q 157 883 178 863 m 58 0 l 58 29 q 146 57 133 29 l 146 756 q 58 783 133 783 l 58 813 l 361 813 l 361 783 q 274 756 286 783 l 274 57 q 361 29 286 29 l 361 0 l 58 0 z "},"ı":{"ha":372,"x_min":43,"x_max":343,"o":"m 43 0 l 43 29 q 131 57 118 29 l 131 526 q 43 533 44 533 l 43 565 q 147 595 69 565 q 256 625 224 625 l 256 57 q 343 29 268 29 l 343 0 l 43 0 z "},"Ĳ":{"ha":954,"x_min":58,"x_max":918,"o":"m 831 239 q 819 149 831 190 q 784 69 808 107 q 713 8 760 31 q 600 -14 665 -14 q 447 26 501 -14 q 392 111 392 65 q 408 162 392 143 q 451 181 425 181 q 495 168 476 181 q 514 132 514 156 q 479 74 514 85 q 586 36 517 36 q 640 48 618 36 q 675 78 663 60 q 694 133 688 97 q 701 201 700 168 q 703 289 703 233 l 703 756 q 615 783 690 783 l 615 813 l 918 813 l 918 783 q 831 756 843 783 l 831 239 m 58 0 l 58 29 q 146 57 133 29 l 146 756 q 58 783 133 783 l 58 813 l 361 813 l 361 783 q 274 756 286 783 l 274 57 q 361 29 286 29 l 361 0 l 58 0 z "},"ĳ":{"ha":707,"x_min":43,"x_max":619,"o":"m 546 714 q 492 737 515 714 q 469 796 469 760 q 490 851 469 828 q 542 875 510 875 q 596 851 572 875 q 619 792 619 828 q 599 737 619 760 q 546 714 578 714 m 488 526 l 400 533 l 400 565 q 503 595 426 565 q 613 625 581 625 l 613 -61 q 559 -226 613 -174 q 426 -278 506 -278 q 246 -157 246 -278 q 265 -117 246 -132 q 306 -101 283 -101 q 344 -117 328 -101 q 360 -156 360 -132 q 346 -189 360 -175 q 365 -224 346 -212 q 413 -236 385 -236 q 464 -195 440 -236 q 488 -81 488 -154 l 488 526 m 43 0 l 43 29 q 131 57 118 29 l 131 526 q 43 533 44 533 l 43 565 q 147 595 69 565 q 256 625 224 625 l 256 57 q 343 29 268 29 l 343 0 l 43 0 m 189 714 q 135 737 158 714 q 113 796 113 760 q 133 851 113 828 q 185 875 153 875 q 239 851 215 875 q 263 792 263 828 q 242 737 263 760 q 189 714 221 714 z "},"Ĵ":{"ha":572,"x_min":10,"x_max":551,"o":"m 421 1086 l 551 861 l 515 861 l 386 982 l 257 861 l 221 861 l 351 1086 l 421 1086 m 449 239 q 438 149 449 190 q 402 69 426 107 q 331 8 378 31 q 218 -14 283 -14 q 65 26 119 -14 q 10 111 10 65 q 26 162 10 143 q 69 181 43 181 q 113 168 94 181 q 132 132 132 156 q 97 74 132 85 q 204 36 135 36 q 258 48 236 36 q 293 78 281 60 q 312 133 306 97 q 319 201 318 168 q 321 289 321 233 l 321 756 q 233 783 308 783 l 233 813 l 536 813 l 536 783 q 449 756 461 783 l 449 239 z "},"ĵ":{"ha":338,"x_min":-124,"x_max":342,"o":"m 211 940 l 342 715 l 306 715 l 176 836 l 47 715 l 11 715 l 142 940 l 211 940 m 118 526 q 31 533 118 526 l 31 565 q 134 595 57 565 q 243 625 211 625 l 243 -61 q 190 -226 243 -174 q 57 -278 136 -278 q -124 -157 -124 -278 q -105 -117 -124 -132 q -64 -101 -86 -101 q -26 -117 -42 -101 q -10 -156 -10 -132 q -24 -189 -10 -175 q -4 -224 -24 -212 q 43 -236 15 -236 q 94 -195 71 -236 q 118 -81 118 -154 l 118 526 z "},"Ķ":{"ha":804,"x_min":57,"x_max":813,"o":"m 438 -174 q 367 -112 367 -174 q 381 -73 367 -87 q 408 -56 396 -58 q 431 -53 421 -53 q 521 -85 483 -53 q 558 -174 558 -118 q 386 -344 558 -290 l 386 -306 q 458 -267 421 -301 q 494 -190 494 -233 q 492 -160 494 -165 q 481 -156 489 -156 q 465 -165 476 -156 q 438 -174 453 -174 m 57 0 l 57 29 q 144 57 132 29 l 144 756 q 57 783 132 783 l 57 813 l 357 813 l 357 783 q 269 756 282 783 l 269 57 q 357 29 282 29 l 357 0 l 57 0 m 542 0 l 542 29 q 593 33 575 29 l 276 436 l 617 774 q 546 783 597 783 l 546 813 l 764 813 l 764 783 q 678 751 706 783 l 399 475 l 725 51 q 813 29 747 29 l 813 0 l 542 0 z "},"ķ":{"ha":699,"x_min":29,"x_max":701,"o":"m 381 -174 q 310 -112 310 -174 q 324 -73 310 -87 q 351 -56 339 -58 q 374 -53 364 -53 q 464 -85 426 -53 q 501 -174 501 -118 q 329 -344 501 -290 l 329 -306 q 401 -267 364 -301 q 438 -190 438 -233 q 435 -160 438 -165 q 424 -156 433 -156 q 408 -165 419 -156 q 381 -174 396 -174 m 29 0 l 29 29 q 117 57 104 29 l 117 776 q 29 783 31 783 l 29 815 q 133 845 56 815 q 242 875 210 875 l 242 57 q 329 29 254 29 l 329 0 l 29 0 m 431 0 l 431 29 q 483 33 464 29 l 251 353 l 497 574 q 429 582 476 582 l 429 611 l 647 611 l 647 582 q 572 564 596 582 l 375 388 l 614 56 q 701 29 633 29 l 701 0 l 431 0 z "},"Ĺ":{"ha":688,"x_min":58,"x_max":681,"o":"m 294 1086 l 442 1086 l 228 861 l 192 861 l 294 1086 m 58 0 l 58 29 q 146 57 133 29 l 146 756 q 58 783 133 783 l 58 813 l 361 813 l 361 783 q 274 756 286 783 l 274 47 l 590 47 q 653 135 625 63 l 681 135 l 647 0 l 58 0 z "},"ĺ":{"ha":358,"x_min":29,"x_max":414,"o":"m 267 1135 l 414 1135 l 200 910 l 164 910 l 267 1135 m 29 0 l 29 29 q 117 57 104 29 l 117 776 q 29 783 31 783 l 29 815 q 133 845 56 815 q 242 875 210 875 l 242 57 q 329 29 254 29 l 329 0 l 29 0 z "},"Ļ":{"ha":685,"x_min":57,"x_max":679,"o":"m 374 -174 q 303 -112 303 -174 q 317 -73 303 -87 q 344 -56 332 -58 q 367 -53 357 -53 q 457 -85 419 -53 q 494 -174 494 -118 q 322 -344 494 -290 l 322 -306 q 394 -267 357 -301 q 431 -190 431 -233 q 428 -160 431 -165 q 417 -156 425 -156 q 401 -165 413 -156 q 374 -174 389 -174 m 57 0 l 57 29 q 144 57 132 29 l 144 756 q 57 783 132 783 l 57 813 l 360 813 l 360 783 q 272 756 285 783 l 272 47 l 589 47 q 651 135 624 63 l 679 135 l 646 0 l 57 0 z "},"ļ":{"ha":358,"x_min":29,"x_max":329,"o":"m 186 -174 q 115 -112 115 -174 q 130 -73 115 -87 q 157 -56 144 -58 q 179 -53 169 -53 q 269 -85 232 -53 q 307 -174 307 -118 q 135 -344 307 -290 l 135 -306 q 206 -267 169 -301 q 243 -190 243 -233 q 241 -160 243 -165 q 229 -156 239 -156 q 213 -165 225 -156 q 186 -174 201 -174 m 29 0 l 29 29 q 117 57 104 29 l 117 776 q 29 783 31 783 l 29 815 q 133 845 56 815 q 242 875 210 875 l 242 57 q 329 29 254 29 l 329 0 l 29 0 z "},"Ľ":{"ha":692,"x_min":58,"x_max":681,"o":"m 482 706 q 411 767 411 706 q 426 806 411 792 q 453 824 440 821 q 475 826 465 826 q 565 794 528 826 q 603 706 603 761 q 431 535 603 589 l 431 574 q 502 612 465 578 q 539 689 539 646 q 536 719 539 714 q 525 724 533 724 q 509 715 521 724 q 482 706 497 706 m 58 0 l 58 29 q 146 57 133 29 l 146 756 q 58 783 133 783 l 58 813 l 361 813 l 361 783 q 274 756 286 783 l 274 47 l 590 47 q 653 135 625 63 l 681 135 l 647 0 l 58 0 z "},"ľ":{"ha":399,"x_min":29,"x_max":496,"o":"m 375 754 q 304 815 304 754 q 319 855 304 840 q 346 872 333 869 q 368 875 358 875 q 458 842 421 875 q 496 754 496 810 q 324 583 496 638 l 324 622 q 395 660 358 626 q 432 738 432 694 q 430 767 432 763 q 418 772 428 772 q 402 763 414 772 q 375 754 390 754 m 29 0 l 29 29 q 117 57 104 29 l 117 776 q 29 783 31 783 l 29 815 q 133 845 56 815 q 242 875 210 875 l 242 57 q 329 29 254 29 l 329 0 l 29 0 z "},"Ŀ":{"ha":689,"x_min":58,"x_max":681,"o":"m 444 378 q 434 388 444 378 q 424 428 424 399 q 444 478 424 457 q 494 499 465 499 q 544 478 524 499 q 565 428 565 457 q 544 378 565 399 q 494 357 524 357 q 444 378 465 357 m 58 0 l 58 29 q 146 57 133 29 l 146 756 q 58 783 133 783 l 58 813 l 361 813 l 361 783 q 274 756 286 783 l 274 47 l 590 47 q 653 135 625 63 l 681 135 l 647 0 l 58 0 z "},"ŀ":{"ha":394,"x_min":29,"x_max":449,"o":"m 328 378 q 317 388 328 378 q 307 428 307 399 q 328 478 307 457 q 378 499 349 499 q 428 478 407 499 q 449 428 449 457 q 428 378 449 399 q 378 357 407 357 q 328 378 349 357 m 29 0 l 29 29 q 117 57 104 29 l 117 776 q 29 783 31 783 l 29 815 q 133 845 56 815 q 242 875 210 875 l 242 57 q 329 29 254 29 l 329 0 l 29 0 z "},"Ł":{"ha":688,"x_min":54,"x_max":681,"o":"m 58 0 l 58 29 q 146 57 133 29 l 146 389 l 85 338 l 54 374 l 146 451 l 146 756 q 58 783 133 783 l 58 813 l 361 813 l 361 783 q 274 756 286 783 l 274 558 l 335 610 l 365 574 l 274 496 l 274 47 l 590 47 q 653 135 625 63 l 681 135 l 647 0 l 58 0 z "},"ł":{"ha":360,"x_min":25,"x_max":336,"o":"m 31 0 l 31 29 q 118 57 106 29 l 118 390 l 56 338 l 25 374 l 118 451 l 118 776 q 31 783 118 776 l 31 815 q 134 845 57 815 q 243 875 211 875 l 243 557 l 306 610 l 336 574 l 243 496 l 243 57 q 331 29 256 29 l 331 0 l 31 0 z "},"Ń":{"ha":886,"x_min":58,"x_max":839,"o":"m 526 1086 l 674 1086 l 460 861 l 424 861 l 526 1086 m 58 0 l 58 29 q 146 57 133 29 l 146 756 q 58 783 133 783 l 58 813 l 244 813 l 704 244 l 704 756 q 617 783 692 783 l 617 813 l 839 813 l 839 783 q 751 756 764 783 l 751 0 l 739 0 l 193 690 l 193 57 q 281 29 206 29 l 281 0 l 58 0 z "},"ń":{"ha":776,"x_min":43,"x_max":753,"o":"m 485 942 l 632 942 l 418 717 l 382 717 l 485 942 m 43 0 l 43 29 q 131 57 118 29 l 131 526 q 43 533 44 533 l 43 565 q 147 595 69 565 q 256 625 224 625 l 256 561 q 421 625 331 625 q 608 577 550 625 q 665 428 665 529 l 665 57 q 753 29 678 29 l 753 0 l 453 0 l 453 29 q 540 57 528 29 l 540 438 q 413 578 540 578 q 256 517 325 578 l 256 57 q 343 29 268 29 l 343 0 l 43 0 z "},"Ņ":{"ha":885,"x_min":57,"x_max":838,"o":"m 446 -174 q 375 -112 375 -174 q 390 -73 375 -87 q 417 -56 404 -58 q 439 -53 429 -53 q 529 -85 492 -53 q 567 -174 567 -118 q 394 -344 567 -290 l 394 -306 q 466 -267 429 -301 q 503 -190 503 -233 q 500 -160 503 -165 q 489 -156 497 -156 q 473 -165 485 -156 q 446 -174 461 -174 m 57 0 l 57 29 q 144 57 132 29 l 144 756 q 57 783 132 783 l 57 813 l 243 813 l 703 244 l 703 756 q 615 783 690 783 l 615 813 l 838 813 l 838 783 q 750 756 763 783 l 750 0 l 738 0 l 192 690 l 192 57 q 279 29 204 29 l 279 0 l 57 0 z "},"ņ":{"ha":776,"x_min":43,"x_max":753,"o":"m 400 -174 q 329 -112 329 -174 q 344 -73 329 -87 q 371 -56 358 -58 q 393 -53 383 -53 q 483 -85 446 -53 q 521 -174 521 -118 q 349 -344 521 -290 l 349 -306 q 420 -267 383 -301 q 457 -190 457 -233 q 455 -160 457 -165 q 443 -156 453 -156 q 427 -165 439 -156 q 400 -174 415 -174 m 43 0 l 43 29 q 131 57 118 29 l 131 526 q 43 533 44 533 l 43 565 q 147 595 69 565 q 256 625 224 625 l 256 561 q 421 625 331 625 q 608 577 550 625 q 665 428 665 529 l 665 57 q 753 29 678 29 l 753 0 l 453 0 l 453 29 q 540 57 528 29 l 540 438 q 413 578 540 578 q 256 517 325 578 l 256 57 q 343 29 268 29 l 343 0 l 43 0 z "},"Ň":{"ha":886,"x_min":58,"x_max":839,"o":"m 408 861 l 278 1086 l 314 1086 l 443 965 l 572 1086 l 608 1086 l 478 861 l 408 861 m 58 0 l 58 29 q 146 57 133 29 l 146 756 q 58 783 133 783 l 58 813 l 244 813 l 704 244 l 704 756 q 617 783 692 783 l 617 813 l 839 813 l 839 783 q 751 756 764 783 l 751 0 l 739 0 l 193 690 l 193 57 q 281 29 206 29 l 281 0 l 58 0 z "},"ň":{"ha":776,"x_min":43,"x_max":753,"o":"m 367 717 l 236 942 l 272 942 l 401 821 l 531 942 l 567 942 l 436 717 l 367 717 m 43 0 l 43 29 q 131 57 118 29 l 131 526 q 43 533 44 533 l 43 565 q 147 595 69 565 q 256 625 224 625 l 256 561 q 421 625 331 625 q 608 577 550 625 q 665 428 665 529 l 665 57 q 753 29 678 29 l 753 0 l 453 0 l 453 29 q 540 57 528 29 l 540 438 q 413 578 540 578 q 256 517 325 578 l 256 57 q 343 29 268 29 l 343 0 l 43 0 z "},"ŉ":{"ha":776,"x_min":-33,"x_max":753,"o":"m 43 0 l 43 29 q 131 57 118 29 l 131 526 q 43 533 44 533 l 43 565 q 147 595 69 565 q 256 625 224 625 l 256 561 q 421 625 331 625 q 608 577 550 625 q 665 428 665 529 l 665 57 q 753 29 678 29 l 753 0 l 453 0 l 453 29 q 540 57 528 29 l 540 438 q 413 578 540 578 q 256 517 325 578 l 256 57 q 343 29 268 29 l 343 0 l 43 0 m 38 803 q -33 864 -33 803 q -19 903 -33 889 q 8 921 -4 918 q 31 924 21 924 q 121 891 83 924 q 158 803 158 858 q -14 632 158 686 l -14 671 q 58 709 21 675 q 94 786 94 743 q 92 816 94 811 q 81 821 89 821 q 65 812 76 821 q 38 803 53 803 z "},"Ŋ":{"ha":897,"x_min":58,"x_max":828,"o":"m 58 0 l 58 29 q 146 57 133 29 l 146 756 q 58 783 133 783 l 58 813 l 274 813 l 274 682 q 386 788 322 750 q 511 826 450 826 q 828 431 828 826 q 763 99 828 213 q 586 -14 699 -14 q 461 11 519 -14 q 403 81 403 36 q 421 115 403 100 q 461 131 439 131 q 525 69 493 131 q 538 45 535 51 q 550 33 542 39 q 572 28 558 28 q 700 392 700 28 q 653 679 700 579 q 497 779 607 779 q 376 726 438 779 q 274 592 314 672 l 274 57 q 361 29 286 29 l 361 0 l 58 0 z "},"ŋ":{"ha":753,"x_min":43,"x_max":665,"o":"m 43 0 l 43 29 q 131 57 118 29 l 131 526 q 43 533 44 533 l 43 565 q 147 595 69 565 q 256 625 224 625 l 256 561 q 421 625 331 625 q 608 577 550 625 q 665 428 665 529 l 665 -61 q 618 -226 665 -175 q 493 -278 571 -278 q 368 -253 426 -278 q 310 -183 310 -228 q 328 -149 310 -164 q 368 -133 346 -133 q 432 -194 400 -133 q 445 -219 442 -212 q 457 -231 449 -225 q 479 -236 465 -236 q 523 -196 506 -236 q 540 -81 540 -156 l 540 438 q 413 578 540 578 q 256 517 325 578 l 256 57 q 343 29 268 29 l 343 0 l 43 0 z "},"Ō":{"ha":890,"x_min":61,"x_max":831,"o":"m 264 942 l 631 942 l 631 881 l 264 881 l 264 942 m 200 417 q 226 241 200 325 q 310 95 251 157 q 451 33 369 33 q 590 92 533 33 q 669 228 646 150 q 692 394 692 307 q 665 570 692 485 q 580 717 639 656 q 440 779 521 779 q 330 746 378 779 q 255 658 282 713 q 214 542 228 603 q 200 417 200 481 m 61 406 q 169 703 61 579 q 446 826 278 826 q 722 703 614 826 q 831 406 831 579 q 722 109 831 232 q 446 -14 613 -14 q 169 108 276 -14 q 61 406 61 231 z "},"ō":{"ha":757,"x_min":54,"x_max":703,"o":"m 194 796 l 561 796 l 561 735 l 194 735 l 194 796 m 188 344 q 248 107 188 186 q 403 28 308 28 q 524 95 478 28 q 569 268 569 163 q 351 582 569 582 q 233 512 278 582 q 188 344 188 442 m 385 -14 q 142 77 229 -14 q 54 317 54 168 q 133 538 54 451 q 375 625 213 625 q 621 538 539 625 q 703 300 703 451 q 624 76 703 165 q 385 -14 546 -14 z "},"Ŏ":{"ha":890,"x_min":61,"x_max":831,"o":"m 446 875 q 316 931 361 875 q 271 1047 271 988 l 310 1047 q 345 997 310 1019 q 446 975 381 975 q 547 997 511 975 q 582 1047 582 1018 l 621 1047 q 576 931 621 986 q 446 875 532 875 m 200 417 q 226 241 200 325 q 310 95 251 157 q 451 33 369 33 q 590 92 533 33 q 669 228 646 150 q 692 394 692 307 q 665 570 692 485 q 580 717 639 656 q 440 779 521 779 q 330 746 378 779 q 255 658 282 713 q 214 542 228 603 q 200 417 200 481 m 61 406 q 169 703 61 579 q 446 826 278 826 q 722 703 614 826 q 831 406 831 579 q 722 109 831 232 q 446 -14 613 -14 q 169 108 276 -14 q 61 406 61 231 z "},"ŏ":{"ha":757,"x_min":54,"x_max":703,"o":"m 381 729 q 251 785 296 729 q 206 901 206 842 l 244 901 q 280 851 244 874 q 381 829 315 829 q 481 851 446 829 q 517 901 517 872 l 556 901 q 511 785 556 840 q 381 729 467 729 m 188 344 q 248 107 188 186 q 403 28 308 28 q 524 95 478 28 q 569 268 569 163 q 351 582 569 582 q 233 512 278 582 q 188 344 188 442 m 385 -14 q 142 77 229 -14 q 54 317 54 168 q 133 538 54 451 q 375 625 213 625 q 621 538 539 625 q 703 300 703 451 q 624 76 703 165 q 385 -14 546 -14 z "},"Ő":{"ha":890,"x_min":61,"x_max":831,"o":"m 633 1086 l 781 1086 l 567 861 l 531 861 l 633 1086 m 411 1086 l 558 1086 l 344 861 l 308 861 l 411 1086 m 200 417 q 226 241 200 325 q 310 95 251 157 q 451 33 369 33 q 590 92 533 33 q 669 228 646 150 q 692 394 692 307 q 665 570 692 485 q 580 717 639 656 q 440 779 521 779 q 330 746 378 779 q 255 658 282 713 q 214 542 228 603 q 200 417 200 481 m 61 406 q 169 703 61 579 q 446 826 278 826 q 722 703 614 826 q 831 406 831 579 q 722 109 831 232 q 446 -14 613 -14 q 169 108 276 -14 q 61 406 61 231 z "},"ő":{"ha":757,"x_min":54,"x_max":715,"o":"m 568 940 l 715 940 l 501 715 l 465 715 l 568 940 m 346 940 l 493 940 l 279 715 l 243 715 l 346 940 m 188 344 q 248 107 188 186 q 403 28 308 28 q 524 95 478 28 q 569 268 569 163 q 351 582 569 582 q 233 512 278 582 q 188 344 188 442 m 385 -14 q 142 77 229 -14 q 54 317 54 168 q 133 538 54 451 q 375 625 213 625 q 621 538 539 625 q 703 300 703 451 q 624 76 703 165 q 385 -14 546 -14 z "},"Œ":{"ha":1139,"x_min":61,"x_max":1115,"o":"m 547 0 q 446 -14 501 -14 q 169 108 276 -14 q 61 406 61 231 q 169 703 61 579 q 446 826 278 826 q 549 813 503 826 l 1053 813 l 1053 678 l 1024 678 q 996 765 1024 753 l 708 765 l 708 446 l 903 446 q 931 533 931 458 l 960 533 l 960 311 l 931 311 q 903 399 931 386 l 708 399 l 708 47 l 1025 47 q 1088 135 1060 63 l 1115 135 l 1082 0 l 547 0 m 581 82 l 581 718 q 440 779 519 779 q 330 746 378 779 q 255 658 282 713 q 214 542 228 603 q 200 417 200 481 q 226 241 200 325 q 310 95 251 157 q 451 33 369 33 q 581 82 525 33 z "},"œ":{"ha":1200,"x_min":54,"x_max":1149,"o":"m 385 -14 q 142 77 229 -14 q 54 317 54 168 q 133 538 54 451 q 375 625 213 625 q 632 525 547 625 q 857 625 711 625 q 1076 542 1004 625 q 1149 335 1149 460 l 703 335 q 770 128 704 218 q 918 39 836 39 q 1113 131 1039 39 l 1146 114 q 1041 17 1106 47 q 871 -14 976 -14 q 639 93 721 -14 q 385 -14 556 -14 m 188 344 q 248 107 188 186 q 403 28 308 28 q 524 95 478 28 q 569 268 569 163 q 351 582 569 582 q 233 512 278 582 q 188 344 188 442 m 704 378 l 1013 378 q 970 531 1004 478 q 851 583 936 583 q 758 526 803 583 q 704 378 713 469 z "},"Ŕ":{"ha":807,"x_min":58,"x_max":817,"o":"m 479 1086 l 626 1086 l 413 861 l 376 861 l 479 1086 m 58 0 l 58 29 q 146 57 133 29 l 146 756 q 58 783 133 783 l 58 813 l 372 813 q 633 750 544 813 q 722 607 722 688 q 676 473 722 531 q 540 389 631 415 l 725 58 q 817 29 739 29 l 817 0 l 757 0 q 631 11 660 0 q 572 72 601 22 l 404 369 l 274 369 l 274 57 q 361 29 286 29 l 361 0 l 58 0 m 274 765 l 274 417 l 389 417 q 542 460 500 417 q 583 606 583 503 q 537 724 583 682 q 372 765 490 765 l 274 765 z "},"ŕ":{"ha":549,"x_min":43,"x_max":540,"o":"m 381 940 l 528 940 l 314 715 l 278 715 l 381 940 m 43 0 l 43 29 q 131 57 118 29 l 131 526 q 43 533 44 533 l 43 565 q 147 595 69 565 q 256 625 224 625 l 256 564 q 393 625 325 625 q 498 601 456 625 q 540 549 540 578 q 485 499 540 499 q 432 538 456 499 q 378 578 408 578 q 256 518 324 578 l 256 57 q 343 29 268 29 l 343 0 l 43 0 z "},"Ŗ":{"ha":806,"x_min":57,"x_max":815,"o":"m 451 -174 q 381 -112 381 -174 q 395 -73 381 -87 q 422 -56 410 -58 q 444 -53 435 -53 q 535 -85 497 -53 q 572 -174 572 -118 q 400 -344 572 -290 l 400 -306 q 472 -267 435 -301 q 508 -190 508 -233 q 506 -160 508 -165 q 494 -156 503 -156 q 478 -165 490 -156 q 451 -174 467 -174 m 57 0 l 57 29 q 144 57 132 29 l 144 756 q 57 783 132 783 l 57 813 l 371 813 q 632 750 543 813 q 721 607 721 688 q 675 473 721 531 q 539 389 629 415 l 724 58 q 815 29 739 29 l 815 0 l 756 0 q 629 11 658 0 q 571 72 600 22 l 403 369 l 272 369 l 272 57 q 360 29 285 29 l 360 0 l 57 0 m 272 765 l 272 417 l 388 417 q 540 460 499 417 q 582 606 582 503 q 535 724 582 682 q 371 765 489 765 l 272 765 z "},"ŗ":{"ha":549,"x_min":43,"x_max":540,"o":"m 201 -174 q 131 -112 131 -174 q 145 -73 131 -87 q 172 -56 160 -58 q 194 -53 185 -53 q 285 -85 247 -53 q 322 -174 322 -118 q 150 -344 322 -290 l 150 -306 q 222 -267 185 -301 q 258 -190 258 -233 q 256 -160 258 -165 q 244 -156 253 -156 q 228 -165 240 -156 q 201 -174 217 -174 m 43 0 l 43 29 q 131 57 118 29 l 131 526 q 43 533 44 533 l 43 565 q 147 595 69 565 q 256 625 224 625 l 256 564 q 393 625 325 625 q 498 601 456 625 q 540 549 540 578 q 485 499 540 499 q 432 538 456 499 q 378 578 408 578 q 256 518 324 578 l 256 57 q 343 29 268 29 l 343 0 l 43 0 z "},"Ř":{"ha":807,"x_min":58,"x_max":817,"o":"m 361 861 l 231 1086 l 267 1086 l 396 965 l 525 1086 l 561 1086 l 431 861 l 361 861 m 58 0 l 58 29 q 146 57 133 29 l 146 756 q 58 783 133 783 l 58 813 l 372 813 q 633 750 544 813 q 722 607 722 688 q 676 473 722 531 q 540 389 631 415 l 725 58 q 817 29 739 29 l 817 0 l 757 0 q 631 11 660 0 q 572 72 601 22 l 404 369 l 274 369 l 274 57 q 361 29 286 29 l 361 0 l 58 0 m 274 765 l 274 417 l 389 417 q 542 460 500 417 q 583 606 583 503 q 537 724 583 682 q 372 765 490 765 l 274 765 z "},"ř":{"ha":549,"x_min":43,"x_max":540,"o":"m 304 715 l 174 940 l 210 940 l 339 819 l 468 940 l 504 940 l 374 715 l 304 715 m 43 0 l 43 29 q 131 57 118 29 l 131 526 q 43 533 44 533 l 43 565 q 147 595 69 565 q 256 625 224 625 l 256 564 q 393 625 325 625 q 498 601 456 625 q 540 549 540 578 q 485 499 540 499 q 432 538 456 499 q 378 578 408 578 q 256 518 324 578 l 256 57 q 343 29 268 29 l 343 0 l 43 0 z "},"Ś":{"ha":664,"x_min":71,"x_max":619,"o":"m 400 1086 l 547 1086 l 333 861 l 297 861 l 400 1086 m 346 -14 q 207 7 278 -14 q 133 28 136 28 q 114 19 125 28 q 103 0 103 11 l 71 0 l 71 193 l 101 193 q 184 72 117 110 q 338 33 251 33 q 458 67 411 33 q 506 167 506 100 q 492 222 506 197 q 452 269 479 247 q 400 305 425 290 q 335 341 375 319 q 275 375 296 363 q 203 422 226 406 q 142 469 179 438 q 89 536 106 501 q 72 611 72 571 q 147 760 72 693 q 315 826 222 826 q 415 806 356 826 q 483 785 475 785 q 500 813 500 785 l 532 813 l 546 636 l 515 636 q 454 738 507 697 q 317 779 401 779 q 215 738 253 779 q 176 656 176 697 q 189 606 176 629 q 228 564 201 583 q 278 530 254 544 q 341 494 301 515 q 401 461 381 474 q 483 410 458 426 q 548 358 508 393 q 603 287 588 324 q 619 206 619 250 q 536 44 619 103 q 346 -14 453 -14 z "},"ś":{"ha":563,"x_min":63,"x_max":517,"o":"m 357 940 l 504 940 l 290 715 l 254 715 l 357 940 m 288 28 q 373 53 326 28 q 419 128 419 78 q 254 267 419 208 q 188 293 214 281 q 132 328 163 306 q 86 382 101 350 q 71 457 71 414 q 128 580 71 535 q 265 625 185 625 q 362 604 313 625 q 418 583 411 583 q 435 611 435 583 l 467 611 l 467 444 l 436 444 q 380 543 428 503 q 269 583 332 583 q 195 563 225 583 q 165 506 165 542 q 174 467 165 485 q 190 440 182 450 q 222 417 199 429 q 256 399 244 404 q 299 383 268 394 q 342 368 331 372 q 465 290 414 340 q 517 172 517 239 q 449 37 517 88 q 276 -14 381 -14 q 179 10 226 -14 q 126 33 132 33 q 107 22 118 33 q 96 0 96 11 l 63 0 l 63 196 l 93 196 q 159 76 103 125 q 288 28 215 28 z "},"Ŝ":{"ha":664,"x_min":71,"x_max":619,"o":"m 350 1086 l 481 861 l 444 861 l 315 982 l 186 861 l 150 861 l 281 1086 l 350 1086 m 346 -14 q 207 7 278 -14 q 133 28 136 28 q 114 19 125 28 q 103 0 103 11 l 71 0 l 71 193 l 101 193 q 184 72 117 110 q 338 33 251 33 q 458 67 411 33 q 506 167 506 100 q 492 222 506 197 q 452 269 479 247 q 400 305 425 290 q 335 341 375 319 q 275 375 296 363 q 203 422 226 406 q 142 469 179 438 q 89 536 106 501 q 72 611 72 571 q 147 760 72 693 q 315 826 222 826 q 415 806 356 826 q 483 785 475 785 q 500 813 500 785 l 532 813 l 546 636 l 515 636 q 454 738 507 697 q 317 779 401 779 q 215 738 253 779 q 176 656 176 697 q 189 606 176 629 q 228 564 201 583 q 278 530 254 544 q 341 494 301 515 q 401 461 381 474 q 483 410 458 426 q 548 358 508 393 q 603 287 588 324 q 619 206 619 250 q 536 44 619 103 q 346 -14 453 -14 z "},"ŝ":{"ha":563,"x_min":63,"x_max":517,"o":"m 326 940 l 457 715 l 421 715 l 292 836 l 163 715 l 126 715 l 257 940 l 326 940 m 288 28 q 373 53 326 28 q 419 128 419 78 q 254 267 419 208 q 188 293 214 281 q 132 328 163 306 q 86 382 101 350 q 71 457 71 414 q 128 580 71 535 q 265 625 185 625 q 362 604 313 625 q 418 583 411 583 q 435 611 435 583 l 467 611 l 467 444 l 436 444 q 380 543 428 503 q 269 583 332 583 q 195 563 225 583 q 165 506 165 542 q 174 467 165 485 q 190 440 182 450 q 222 417 199 429 q 256 399 244 404 q 299 383 268 394 q 342 368 331 372 q 465 290 414 340 q 517 172 517 239 q 449 37 517 88 q 276 -14 381 -14 q 179 10 226 -14 q 126 33 132 33 q 107 22 118 33 q 96 0 96 11 l 63 0 l 63 196 l 93 196 q 159 76 103 125 q 288 28 215 28 z "},"Ş":{"ha":664,"x_min":71,"x_max":619,"o":"m 354 -14 l 338 -76 q 429 -99 382 -76 q 476 -169 476 -122 q 324 -276 476 -276 q 221 -267 278 -276 l 221 -243 q 256 -246 246 -246 q 332 -226 308 -246 q 356 -181 356 -206 q 271 -119 356 -119 l 301 -11 q 194 10 250 -7 q 133 28 139 28 q 114 19 125 28 q 103 0 103 11 l 71 0 l 71 193 l 101 193 q 184 72 117 110 q 338 33 251 33 q 458 67 411 33 q 506 167 506 100 q 492 222 506 197 q 452 269 479 247 q 400 305 425 290 q 335 341 375 319 q 275 375 296 363 q 203 422 226 406 q 142 469 179 438 q 89 536 106 501 q 72 611 72 571 q 147 760 72 693 q 315 826 222 826 q 415 806 356 826 q 483 785 475 785 q 500 813 500 785 l 532 813 l 546 636 l 515 636 q 454 738 507 697 q 317 779 401 779 q 215 738 253 779 q 176 656 176 697 q 189 606 176 629 q 228 564 201 583 q 278 530 254 544 q 341 494 301 515 q 401 461 381 474 q 483 410 458 426 q 548 358 508 393 q 603 287 588 324 q 619 206 619 250 q 539 47 619 104 q 354 -14 458 -11 z "},"ş":{"ha":564,"x_min":63,"x_max":517,"o":"m 288 28 q 373 53 326 28 q 419 128 419 78 q 254 267 419 208 q 188 293 214 281 q 132 328 163 306 q 86 382 101 350 q 71 457 71 414 q 128 580 71 535 q 265 625 185 625 q 362 604 313 625 q 418 583 411 583 q 435 611 435 583 l 467 611 l 467 444 l 436 444 q 380 543 428 503 q 269 583 332 583 q 195 563 225 583 q 165 506 165 542 q 174 467 165 485 q 190 440 182 450 q 222 417 199 429 q 256 399 244 404 q 299 383 268 394 q 342 368 331 372 q 465 290 414 340 q 517 172 517 239 q 453 40 517 90 q 292 -14 390 -10 l 275 -76 q 367 -99 319 -76 q 414 -169 414 -122 q 261 -276 414 -276 q 158 -267 215 -276 l 158 -243 q 193 -246 183 -246 q 269 -226 246 -246 q 293 -181 293 -206 q 208 -119 293 -119 l 239 -11 q 170 14 206 -6 q 126 33 135 33 q 107 22 118 33 q 96 0 96 11 l 63 0 l 63 196 l 93 196 q 159 76 103 125 q 288 28 215 28 z "},"Š":{"ha":664,"x_min":71,"x_max":619,"o":"m 282 861 l 151 1086 l 188 1086 l 317 965 l 446 1086 l 482 1086 l 351 861 l 282 861 m 346 -14 q 207 7 278 -14 q 133 28 136 28 q 114 19 125 28 q 103 0 103 11 l 71 0 l 71 193 l 101 193 q 184 72 117 110 q 338 33 251 33 q 458 67 411 33 q 506 167 506 100 q 492 222 506 197 q 452 269 479 247 q 400 305 425 290 q 335 341 375 319 q 275 375 296 363 q 203 422 226 406 q 142 469 179 438 q 89 536 106 501 q 72 611 72 571 q 147 760 72 693 q 315 826 222 826 q 415 806 356 826 q 483 785 475 785 q 500 813 500 785 l 532 813 l 546 636 l 515 636 q 454 738 507 697 q 317 779 401 779 q 215 738 253 779 q 176 656 176 697 q 189 606 176 629 q 228 564 201 583 q 278 530 254 544 q 341 494 301 515 q 401 461 381 474 q 483 410 458 426 q 548 358 508 393 q 603 287 588 324 q 619 206 619 250 q 536 44 619 103 q 346 -14 453 -14 z "},"š":{"ha":563,"x_min":63,"x_max":517,"o":"m 256 715 l 125 940 l 161 940 l 290 819 l 419 940 l 456 940 l 325 715 l 256 715 m 288 28 q 373 53 326 28 q 419 128 419 78 q 254 267 419 208 q 188 293 214 281 q 132 328 163 306 q 86 382 101 350 q 71 457 71 414 q 128 580 71 535 q 265 625 185 625 q 362 604 313 625 q 418 583 411 583 q 435 611 435 583 l 467 611 l 467 444 l 436 444 q 380 543 428 503 q 269 583 332 583 q 195 563 225 583 q 165 506 165 542 q 174 467 165 485 q 190 440 182 450 q 222 417 199 429 q 256 399 244 404 q 299 383 268 394 q 342 368 331 372 q 465 290 414 340 q 517 172 517 239 q 449 37 517 88 q 276 -14 381 -14 q 179 10 226 -14 q 126 33 132 33 q 107 22 118 33 q 96 0 96 11 l 63 0 l 63 196 l 93 196 q 159 76 103 125 q 288 28 215 28 z "},"Ţ":{"ha":747,"x_min":25,"x_max":722,"o":"m 25 813 l 722 813 l 722 678 l 693 678 q 665 765 693 753 l 438 765 l 438 57 q 525 29 450 29 l 525 0 l 401 0 l 381 -76 q 472 -99 425 -76 q 519 -169 519 -122 q 367 -276 519 -276 q 264 -267 321 -276 l 264 -243 q 299 -246 289 -246 q 375 -226 351 -246 q 399 -181 399 -206 q 314 -119 399 -119 l 349 0 l 222 0 l 222 29 q 310 57 297 29 l 310 765 l 82 765 q 54 678 54 753 l 25 678 l 25 813 z "},"ţ":{"ha":463,"x_min":21,"x_max":442,"o":"m 251 813 l 250 611 l 369 611 l 369 569 l 250 569 l 250 128 q 265 62 250 85 q 322 39 281 39 q 373 63 347 39 q 408 131 399 88 l 442 114 q 278 -14 413 -12 l 261 -76 q 353 -99 306 -76 q 400 -169 400 -122 q 247 -276 400 -276 q 144 -267 201 -276 l 144 -243 q 179 -246 169 -246 q 256 -226 232 -246 q 279 -181 279 -206 q 194 -119 279 -119 l 226 -10 q 118 139 118 11 l 118 569 l 21 569 l 21 611 q 139 665 86 611 q 192 813 192 719 l 251 813 z "},"Ť":{"ha":747,"x_min":25,"x_max":722,"o":"m 25 813 l 722 813 l 722 678 l 693 678 q 665 765 693 753 l 438 765 l 438 57 q 525 29 450 29 l 525 0 l 222 0 l 222 29 q 310 57 297 29 l 310 765 l 82 765 q 54 678 54 753 l 25 678 l 25 813 m 339 910 l 208 1135 l 244 1135 l 374 1014 l 503 1135 l 539 1135 l 408 910 l 339 910 z "},"ť":{"ha":463,"x_min":19,"x_max":497,"o":"m 376 865 q 306 926 306 865 q 320 966 306 951 q 347 983 335 981 q 369 986 360 986 q 460 953 422 986 q 497 865 497 921 q 325 694 497 749 l 325 733 q 397 772 360 738 q 433 849 433 806 q 431 878 433 874 q 419 883 428 883 q 403 874 415 883 q 376 865 392 865 m 250 813 l 250 611 l 369 611 l 369 569 l 250 569 l 250 128 q 265 62 250 85 q 322 39 281 39 q 373 63 347 39 q 408 131 399 88 l 442 114 q 275 -14 413 -14 q 117 139 117 -14 l 117 569 l 19 569 l 19 611 q 138 665 85 611 q 190 813 190 719 l 250 813 z "},"Ŧ":{"ha":747,"x_min":25,"x_max":722,"o":"m 25 813 l 722 813 l 722 678 l 693 678 q 665 765 693 753 l 438 765 l 438 463 l 547 463 l 547 415 l 438 415 l 438 57 q 525 29 450 29 l 525 0 l 222 0 l 222 29 q 310 57 297 29 l 310 415 l 181 415 l 181 463 l 310 463 l 310 765 l 82 765 q 54 678 54 753 l 25 678 l 25 813 z "},"ŧ":{"ha":468,"x_min":24,"x_max":446,"o":"m 254 813 l 254 611 l 374 611 l 374 569 l 254 569 l 254 396 l 390 396 l 390 349 l 254 349 l 254 128 q 269 62 254 85 q 326 39 285 39 q 377 63 351 39 q 413 131 403 88 l 446 114 q 279 -14 417 -14 q 121 139 121 -14 l 121 349 l 24 349 l 24 396 l 121 396 l 121 569 l 24 569 l 24 611 q 142 665 89 611 q 194 813 194 719 l 254 813 z "},"Ũ":{"ha":858,"x_min":35,"x_max":824,"o":"m 571 861 q 458 902 540 861 q 356 943 375 943 q 301 923 317 943 q 286 861 286 903 l 260 861 q 365 1017 260 1017 q 479 976 396 1017 q 582 935 563 935 q 636 955 621 935 q 651 1017 651 975 l 678 1017 q 571 861 678 861 m 469 33 q 626 111 563 33 q 689 317 689 189 l 689 756 q 601 783 676 783 l 601 813 l 824 813 l 824 783 q 736 756 749 783 l 736 344 q 656 75 736 164 q 456 -14 576 -14 q 122 344 122 -14 l 122 756 q 35 783 110 783 l 35 813 l 338 813 l 338 783 q 250 756 263 783 l 250 325 q 311 110 250 188 q 469 33 372 33 z "},"ũ":{"ha":764,"x_min":24,"x_max":733,"o":"m 481 715 q 367 756 450 715 q 265 797 285 797 q 211 777 226 797 q 196 715 196 757 l 169 715 q 275 871 169 871 q 389 830 306 871 q 492 789 472 789 q 546 809 531 789 q 561 871 561 829 l 588 871 q 481 715 588 715 m 646 85 l 733 78 l 733 46 q 630 16 707 46 q 521 -14 553 -14 l 521 50 q 356 -14 446 -14 q 169 34 226 -14 q 111 183 111 82 l 111 554 q 24 582 99 582 l 24 611 l 236 611 l 236 174 q 364 33 236 33 q 521 94 451 33 l 521 554 q 433 582 508 582 l 433 611 l 646 611 l 646 85 z "},"Ū":{"ha":858,"x_min":35,"x_max":824,"o":"m 275 942 l 642 942 l 642 881 l 275 881 l 275 942 m 469 33 q 626 111 563 33 q 689 317 689 189 l 689 756 q 601 783 676 783 l 601 813 l 824 813 l 824 783 q 736 756 749 783 l 736 344 q 656 75 736 164 q 456 -14 576 -14 q 122 344 122 -14 l 122 756 q 35 783 110 783 l 35 813 l 338 813 l 338 783 q 250 756 263 783 l 250 325 q 311 110 250 188 q 469 33 372 33 z "},"ū":{"ha":764,"x_min":24,"x_max":733,"o":"m 185 796 l 551 796 l 551 735 l 185 735 l 185 796 m 646 85 q 733 78 646 85 l 733 46 q 630 16 707 46 q 521 -14 553 -14 l 521 50 q 356 -14 446 -14 q 169 34 226 -14 q 111 183 111 82 l 111 554 q 24 582 99 582 l 24 611 l 236 611 l 236 174 q 364 33 236 33 q 521 94 451 33 l 521 554 q 433 582 508 582 l 433 611 l 646 611 l 646 85 z "},"Ŭ":{"ha":858,"x_min":35,"x_max":824,"o":"m 467 875 q 337 931 382 875 q 292 1047 292 988 l 331 1047 q 366 997 331 1019 q 467 975 401 975 q 567 997 532 975 q 603 1047 603 1018 l 642 1047 q 597 931 642 986 q 467 875 553 875 m 469 33 q 626 111 563 33 q 689 317 689 189 l 689 756 q 601 783 676 783 l 601 813 l 824 813 l 824 783 q 736 756 749 783 l 736 344 q 656 75 736 164 q 456 -14 576 -14 q 122 344 122 -14 l 122 756 q 35 783 110 783 l 35 813 l 338 813 l 338 783 q 250 756 263 783 l 250 325 q 311 110 250 188 q 469 33 372 33 z "},"ŭ":{"ha":764,"x_min":24,"x_max":733,"o":"m 376 729 q 247 785 292 729 q 201 901 201 842 l 240 901 q 276 851 240 874 q 376 829 311 829 q 477 851 442 829 q 513 901 513 872 l 551 901 q 507 785 551 840 q 376 729 463 729 m 646 85 l 733 78 l 733 46 q 630 16 707 46 q 521 -14 553 -14 l 521 50 q 356 -14 446 -14 q 169 34 226 -14 q 111 183 111 82 l 111 554 q 24 582 99 582 l 24 611 l 236 611 l 236 174 q 364 33 236 33 q 521 94 451 33 l 521 554 q 433 582 508 582 l 433 611 l 646 611 l 646 85 z "},"Ů":{"ha":858,"x_min":35,"x_max":824,"o":"m 420 1003 q 411 993 420 1003 q 401 957 401 983 q 420 911 401 931 q 467 892 439 892 q 513 911 494 892 q 532 957 532 931 q 513 1003 532 983 q 467 1022 494 1022 q 420 1003 439 1022 m 378 868 q 360 886 378 868 q 342 957 342 904 q 378 1046 342 1010 q 467 1082 414 1082 q 556 1046 519 1082 q 592 957 592 1010 q 556 868 592 904 q 467 832 519 832 q 378 868 414 832 m 469 33 q 626 111 563 33 q 689 317 689 189 l 689 756 q 601 783 676 783 l 601 813 l 824 813 l 824 783 q 736 756 749 783 l 736 344 q 656 75 736 164 q 456 -14 576 -14 q 122 344 122 -14 l 122 756 q 35 783 110 783 l 35 813 l 338 813 l 338 783 q 250 756 263 783 l 250 325 q 311 110 250 188 q 469 33 372 33 z "},"ů":{"ha":764,"x_min":24,"x_max":733,"o":"m 331 858 q 321 848 331 858 q 311 811 311 839 q 331 765 311 783 q 376 746 350 746 q 422 765 403 746 q 442 811 442 783 q 422 858 442 839 q 376 876 403 876 q 331 858 350 876 m 288 722 q 269 740 288 722 q 251 811 251 758 q 288 900 251 864 q 376 936 324 936 q 465 900 429 936 q 501 811 501 864 q 465 722 501 758 q 376 686 429 686 q 288 722 324 686 m 646 85 q 733 78 646 85 l 733 46 q 630 16 707 46 q 521 -14 553 -14 l 521 50 q 356 -14 446 -14 q 169 34 226 -14 q 111 183 111 82 l 111 554 q 24 582 99 582 l 24 611 l 236 611 l 236 174 q 364 33 236 33 q 521 94 451 33 l 521 554 q 433 582 508 582 l 433 611 l 646 611 l 646 85 z "},"Ű":{"ha":858,"x_min":35,"x_max":824,"o":"m 654 1086 l 801 1086 l 588 861 l 551 861 l 654 1086 m 432 1086 l 579 1086 l 365 861 l 329 861 l 432 1086 m 469 33 q 626 111 563 33 q 689 317 689 189 l 689 756 q 601 783 676 783 l 601 813 l 824 813 l 824 783 q 736 756 749 783 l 736 344 q 656 75 736 164 q 456 -14 576 -14 q 122 344 122 -14 l 122 756 q 35 783 110 783 l 35 813 l 338 813 l 338 783 q 250 756 263 783 l 250 325 q 311 110 250 188 q 469 33 372 33 z "},"ű":{"ha":764,"x_min":24,"x_max":733,"o":"m 564 940 l 711 940 l 497 715 l 461 715 l 564 940 m 342 940 l 489 940 l 275 715 l 239 715 l 342 940 m 646 85 q 733 78 646 85 l 733 46 q 630 16 707 46 q 521 -14 553 -14 l 521 50 q 356 -14 446 -14 q 169 34 226 -14 q 111 183 111 82 l 111 554 q 24 582 99 582 l 24 611 l 236 611 l 236 174 q 364 33 236 33 q 521 94 451 33 l 521 554 q 433 582 508 582 l 433 611 l 646 611 l 646 85 z "},"Ų":{"ha":861,"x_min":36,"x_max":825,"o":"m 471 33 l 471 32 q 627 110 564 32 q 690 315 690 188 l 690 754 q 603 782 678 782 l 603 811 l 825 811 l 825 782 q 738 754 750 782 l 738 343 q 661 77 738 167 q 467 -15 585 -12 q 439 -83 439 -54 q 476 -192 439 -151 q 561 -232 514 -232 q 581 -226 569 -232 q 597 -215 592 -221 l 604 -210 l 619 -235 q 610 -247 617 -240 q 574 -267 603 -254 q 510 -279 546 -279 q 406 -244 442 -279 q 371 -144 371 -208 q 425 -14 371 -71 q 124 344 124 3 l 124 756 q 36 783 111 783 l 36 813 l 339 813 l 339 783 q 251 756 264 783 l 251 325 q 313 110 251 188 q 471 33 374 33 z "},"ų":{"ha":765,"x_min":24,"x_max":733,"o":"m 646 85 q 733 78 646 85 l 733 46 q 640 20 707 46 q 547 -11 572 -6 q 518 -82 518 -51 q 556 -190 518 -150 q 640 -231 593 -231 q 660 -225 649 -231 q 678 -214 671 -219 l 683 -208 l 699 -233 q 689 -246 696 -239 q 653 -265 682 -253 q 589 -278 625 -278 q 485 -242 521 -278 q 450 -143 450 -207 q 521 3 450 -56 l 521 50 q 356 -14 446 -14 q 169 34 226 -14 q 111 183 111 82 l 111 554 q 24 582 99 582 l 24 611 l 236 611 l 236 174 q 364 33 236 33 q 521 94 451 33 l 521 554 q 433 582 508 582 l 433 611 l 646 611 l 646 85 z "},"Ŵ":{"ha":1168,"x_min":-14,"x_max":1181,"o":"m 590 1086 l 721 861 l 685 861 l 556 982 l 426 861 l 390 861 l 521 1086 l 590 1086 m 703 813 l 703 783 q 622 767 639 783 l 835 185 l 1039 758 q 953 783 1025 783 l 953 813 l 1181 813 l 1181 783 q 1093 754 1103 783 l 824 0 l 757 0 l 583 485 l 411 0 l 344 0 l 75 754 q -14 783 64 783 l -14 813 l 290 813 l 290 783 q 210 767 226 783 l 422 186 l 556 563 l 488 754 q 399 783 478 783 l 399 813 l 703 813 z "},"ŵ":{"ha":1056,"x_min":-7,"x_max":1063,"o":"m 558 940 l 689 715 l 653 715 l 524 836 l 394 715 l 358 715 l 489 940 l 558 940 m 263 611 l 263 582 q 204 576 222 582 l 369 169 l 494 482 l 465 554 q 378 582 453 582 l 378 611 l 647 611 l 647 582 q 589 576 607 582 l 754 169 l 913 567 q 835 582 893 582 l 835 611 l 1063 611 l 1063 582 q 976 556 988 582 l 754 0 l 686 0 l 528 397 l 369 0 l 301 0 l 81 554 q -7 582 68 582 l -7 611 l 263 611 z "},"Ŷ":{"ha":782,"x_min":-12,"x_max":790,"o":"m 463 1086 l 593 861 l 557 861 l 428 982 l 299 861 l 263 861 l 393 1086 l 463 1086 m 292 813 l 292 783 q 211 767 226 783 l 426 390 l 649 758 q 563 783 633 783 l 563 813 l 790 813 l 790 783 q 711 765 732 783 l 461 350 l 461 57 q 549 29 474 29 l 549 0 l 246 0 l 246 29 q 333 57 321 29 l 333 306 l 76 756 q -12 783 57 783 l -12 813 l 292 813 z "},"ŷ":{"ha":671,"x_min":-7,"x_max":678,"o":"m 396 940 l 526 715 l 490 715 l 361 836 l 232 715 l 196 715 l 326 940 l 396 940 m 263 611 l 263 582 q 204 576 222 582 l 369 169 l 528 567 q 450 582 508 582 l 450 611 l 678 611 l 678 582 q 592 557 603 582 l 313 -142 q 245 -237 286 -207 q 167 -267 204 -267 q 112 -249 132 -267 q 92 -206 92 -231 q 106 -168 92 -185 q 146 -151 121 -151 q 178 -163 161 -151 q 203 -175 194 -175 q 242 -150 232 -175 l 301 0 l 81 554 q -7 582 68 582 l -7 611 l 263 611 z "},"Ÿ":{"ha":782,"x_min":-12,"x_max":790,"o":"m 508 881 q 498 891 508 881 q 488 929 488 901 q 508 977 488 957 q 556 997 528 997 q 603 977 583 997 q 624 929 624 957 q 603 881 624 901 q 556 861 583 861 q 508 881 528 861 m 252 881 q 242 891 252 881 q 232 929 232 901 q 252 977 232 957 q 300 997 272 997 q 348 977 328 997 q 368 929 368 957 q 348 881 368 901 q 300 861 328 861 q 252 881 272 861 m 292 813 l 292 783 q 211 767 226 783 l 426 390 l 649 758 q 563 783 633 783 l 563 813 l 790 813 l 790 783 q 711 765 732 783 l 461 350 l 461 57 q 549 29 474 29 l 549 0 l 246 0 l 246 29 q 333 57 321 29 l 333 306 l 76 756 q -12 783 57 783 l -12 813 l 292 813 z "},"Ź":{"ha":694,"x_min":24,"x_max":660,"o":"m 428 1086 l 575 1086 l 361 861 l 325 861 l 428 1086 m 624 0 l 24 0 l 465 771 l 128 771 q 100 683 100 758 l 71 683 l 71 813 l 631 813 l 189 42 l 567 42 q 631 133 610 60 l 660 133 l 624 0 z "},"ź":{"ha":590,"x_min":24,"x_max":549,"o":"m 385 940 l 532 940 l 318 715 l 282 715 l 385 940 m 538 0 l 24 0 l 392 569 l 125 569 q 97 482 97 557 l 68 482 l 68 611 l 549 611 l 181 42 l 481 42 q 508 129 508 54 l 538 129 l 538 0 z "},"Ż":{"ha":694,"x_min":24,"x_max":660,"o":"m 293 883 q 283 894 293 883 q 272 933 272 904 q 293 983 272 963 q 343 1004 314 1004 q 393 983 372 1004 q 414 933 414 963 q 393 883 414 904 q 343 863 372 863 q 293 883 314 863 m 624 0 l 24 0 l 465 771 l 128 771 q 100 683 100 758 l 71 683 l 71 813 l 631 813 l 189 42 l 567 42 q 631 133 610 60 l 660 133 l 624 0 z "},"ż":{"ha":590,"x_min":24,"x_max":549,"o":"m 250 738 q 240 748 250 738 q 229 788 229 758 q 250 838 229 817 q 300 858 271 858 q 350 838 329 858 q 371 788 371 817 q 350 738 371 758 q 300 717 329 717 q 250 738 271 717 m 538 0 l 24 0 l 392 569 l 125 569 q 97 482 97 557 l 68 482 l 68 611 l 549 611 l 181 42 l 481 42 q 508 129 508 54 l 538 129 l 538 0 z "},"Ž":{"ha":694,"x_min":24,"x_max":660,"o":"m 317 910 l 186 1135 l 222 1135 l 351 1014 l 481 1135 l 517 1135 l 386 910 l 317 910 m 624 0 l 24 0 l 465 771 l 128 771 q 100 683 100 758 l 71 683 l 71 813 l 631 813 l 189 42 l 567 42 q 631 133 610 60 l 660 133 l 624 0 z "},"ž":{"ha":590,"x_min":24,"x_max":549,"o":"m 274 708 l 143 933 l 179 933 l 308 813 l 438 933 l 474 933 l 343 708 l 274 708 m 538 0 l 24 0 l 392 569 l 125 569 q 97 482 97 557 l 68 482 l 68 611 l 549 611 l 181 42 l 481 42 q 508 129 508 54 l 538 129 l 538 0 z "},"ſ":{"ha":358,"x_min":29,"x_max":483,"o":"m 29 0 l 29 29 q 117 57 104 29 l 117 658 q 169 823 117 771 q 303 875 222 875 q 483 754 483 875 q 465 714 483 729 q 424 699 446 699 q 385 714 401 699 q 369 753 369 729 q 383 786 369 772 q 364 822 383 810 q 317 833 344 833 q 265 792 289 833 q 242 678 242 751 l 242 57 q 329 29 254 29 l 329 0 l 29 0 z "},"ƀ":{"ha":747,"x_min":-10,"x_max":693,"o":"m 219 518 l 219 82 q 371 33 275 33 q 504 106 447 33 q 561 308 561 179 q 515 507 561 431 q 396 583 469 583 q 219 518 279 583 m 94 776 q 7 783 8 783 l 7 815 q 110 845 33 815 q 219 875 188 875 l 219 732 l 357 732 l 357 685 l 219 685 l 219 565 q 410 631 288 631 q 501 615 456 631 q 591 565 546 599 q 665 464 636 531 q 693 308 693 397 q 606 69 693 153 q 379 -14 519 -14 q 214 39 279 -14 q 94 -14 138 -14 l 94 685 l -10 685 l -10 732 l 94 732 l 94 776 z "},"Ɓ":{"ha":936,"x_min":19,"x_max":886,"o":"m 219 0 l 219 29 q 307 57 294 29 l 307 765 q 151 739 175 765 q 136 696 136 724 q 157 656 136 667 q 183 610 183 640 q 165 563 183 581 q 118 544 146 544 q 45 583 71 544 q 19 667 19 622 q 32 721 19 692 q 65 764 44 750 q 113 792 94 783 q 179 806 132 800 q 307 813 226 813 l 475 813 q 737 756 649 813 q 825 621 825 699 q 678 429 825 479 q 834 352 782 406 q 886 238 886 299 q 802 66 886 132 q 553 0 718 0 l 219 0 m 435 765 l 435 443 l 492 443 q 686 619 686 443 q 475 765 686 765 l 435 765 m 435 403 l 435 47 l 553 47 q 747 236 747 47 q 699 352 747 301 q 536 403 650 403 l 435 403 z "},"Ɔ":{"ha":806,"x_min":57,"x_max":744,"o":"m 332 28 q 526 121 442 28 q 610 388 610 214 q 581 567 610 488 q 508 690 553 646 q 417 757 464 735 q 325 779 369 779 q 188 738 253 779 q 90 631 124 696 l 57 647 q 163 776 92 725 q 343 826 233 826 q 435 815 386 826 q 540 774 483 804 q 640 701 596 744 q 715 583 685 657 q 744 418 744 510 q 628 103 744 221 q 357 -14 511 -14 q 133 40 208 -14 q 57 174 57 94 q 74 224 57 206 q 117 243 90 243 q 160 231 142 243 q 179 194 179 218 q 165 151 179 165 q 131 138 150 138 q 199 61 142 94 q 332 28 256 28 z "},"Ƈ":{"ha":940,"x_min":61,"x_max":932,"o":"m 624 758 q 749 826 669 826 q 874 801 815 826 q 932 732 932 776 q 914 697 932 713 q 874 682 896 682 q 810 743 842 682 q 797 767 800 761 q 785 779 793 774 q 763 785 776 785 q 717 739 736 785 q 699 617 699 693 l 668 617 q 593 733 657 686 q 440 779 529 779 q 265 684 325 779 q 206 425 206 589 q 289 138 206 242 q 489 33 372 33 q 626 81 558 33 q 714 183 694 129 l 747 167 q 647 38 715 90 q 461 -14 578 -14 q 169 106 276 -14 q 61 394 61 226 q 167 710 61 593 q 439 826 272 826 q 624 758 546 826 z "},"ƈ":{"ha":838,"x_min":54,"x_max":828,"o":"m 549 417 q 498 534 549 485 q 378 583 447 583 q 239 518 292 583 q 186 342 186 453 q 252 131 186 224 q 401 39 318 39 q 596 131 522 39 l 629 114 q 524 17 589 47 q 354 -14 460 -14 q 253 2 301 -14 q 157 55 204 18 q 82 164 110 92 q 54 336 54 236 q 140 541 54 457 q 364 625 225 625 q 525 565 461 625 q 644 625 578 625 q 769 600 711 625 q 828 531 828 575 q 810 496 828 511 q 769 481 792 481 q 706 542 738 481 q 692 566 696 560 q 681 578 689 572 q 658 583 672 583 q 613 538 632 583 q 593 417 593 493 l 549 417 z "},"Ɖ":{"ha":853,"x_min":53,"x_max":792,"o":"m 278 382 l 278 47 l 399 47 q 485 67 443 47 q 567 128 528 88 q 629 240 606 168 q 653 407 653 313 q 572 680 653 588 q 382 772 490 772 l 278 772 l 278 429 l 419 429 l 419 382 l 278 382 m 63 0 l 63 29 q 150 57 138 29 l 150 382 l 53 382 l 53 429 l 150 429 l 150 756 q 63 783 138 783 l 63 813 l 382 813 q 679 701 567 813 q 792 408 792 589 q 682 114 792 228 q 399 0 572 0 l 63 0 z "},"Ɗ":{"ha":1010,"x_min":19,"x_max":949,"o":"m 219 -1 l 219 28 q 307 56 294 28 l 307 765 q 151 739 175 765 q 136 696 136 724 q 157 656 136 667 q 183 610 183 640 q 165 563 183 581 q 118 544 146 544 q 45 583 71 544 q 19 667 19 622 q 32 721 19 692 q 65 764 44 750 q 113 792 94 783 q 179 806 132 800 q 307 813 226 813 l 539 813 q 836 700 724 813 q 949 407 949 588 q 839 113 949 226 q 556 -1 729 -1 l 219 -1 m 435 765 l 435 46 l 556 46 q 642 66 600 46 q 724 126 685 86 q 786 239 763 167 q 810 406 810 311 q 785 571 810 499 q 722 684 761 643 q 635 745 682 725 q 539 765 589 765 l 435 765 z "},"Ǝ":{"ha":704,"x_min":24,"x_max":646,"o":"m 646 0 l 57 0 l 24 135 l 51 135 q 114 47 79 63 l 431 47 l 431 399 l 236 399 q 208 311 208 386 l 179 311 l 179 533 l 208 533 q 236 446 208 458 l 431 446 l 431 765 l 143 765 q 115 678 115 753 l 86 678 l 86 813 l 646 813 l 646 783 q 558 756 571 783 l 558 57 q 646 29 571 29 l 646 0 z "},"Ə":{"ha":861,"x_min":39,"x_max":801,"o":"m 656 342 l 188 342 q 261 119 201 204 q 401 33 321 33 q 578 117 511 33 q 656 342 646 200 m 657 389 q 574 676 657 572 q 374 779 490 779 q 236 731 304 779 q 149 629 168 683 l 115 646 q 216 774 147 722 q 401 826 285 826 q 694 706 586 826 q 801 418 801 586 q 687 104 801 222 q 403 -14 572 -14 q 144 99 249 -14 q 39 389 39 213 l 657 389 z "},"Ɛ":{"ha":725,"x_min":65,"x_max":690,"o":"m 451 428 q 272 379 333 428 q 210 242 210 331 q 269 88 210 143 q 429 33 329 33 q 570 81 503 33 q 657 183 638 129 l 690 167 q 656 103 675 131 q 605 47 638 75 q 520 2 572 18 q 401 -14 468 -14 q 233 11 304 -14 q 128 76 163 36 q 80 153 94 117 q 65 224 65 189 q 246 450 65 394 q 85 617 85 497 q 171 781 85 736 q 418 826 257 826 q 513 806 468 826 q 563 785 557 785 q 579 813 579 785 l 611 813 l 625 636 l 594 636 q 531 735 586 692 q 419 779 476 779 q 276 742 324 779 q 229 647 229 704 q 451 475 229 475 l 451 428 z "},"Ƒ":{"ha":640,"x_min":-94,"x_max":606,"o":"m 606 678 l 576 678 q 549 765 576 753 l 261 765 l 261 446 l 456 446 q 483 533 483 458 l 513 533 l 513 311 l 483 311 q 456 399 483 386 l 261 399 l 261 0 q 214 -165 261 -114 q 89 -217 167 -217 q -36 -192 22 -217 q -94 -122 -94 -167 q -76 -87 -94 -103 q -36 -72 -58 -72 q 28 -133 -4 -72 q 41 -158 38 -151 q 53 -169 44 -164 q 75 -175 61 -175 q 117 -135 101 -175 q 133 -19 133 -96 l 133 756 q 46 783 121 783 l 46 813 l 606 813 l 606 678 z "},"ƒ":{"ha":354,"x_min":-118,"x_max":450,"o":"m 324 611 l 324 569 l 238 569 l 238 0 q 190 -165 238 -114 q 65 -217 143 -217 q -60 -192 -1 -217 q -118 -122 -118 -167 q -100 -87 -118 -103 q -60 -72 -82 -72 q 4 -133 -28 -72 q 17 -158 14 -151 q 29 -169 21 -164 q 51 -175 38 -175 q 95 -135 78 -175 q 113 -19 113 -94 l 113 569 l 43 569 l 43 611 l 113 611 l 113 658 q 160 824 113 772 q 285 875 207 875 q 408 850 367 875 q 450 793 450 825 q 434 756 450 769 q 393 742 418 742 q 358 756 369 742 q 344 788 346 771 q 331 819 342 804 q 299 833 321 833 q 255 793 272 833 q 238 678 238 753 l 238 611 l 324 611 z "},"Ɠ":{"ha":950,"x_min":61,"x_max":932,"o":"m 439 826 q 624 758 546 826 q 749 826 669 826 q 874 801 815 826 q 932 732 932 776 q 914 697 932 713 q 874 682 896 682 q 810 743 842 682 q 797 767 800 761 q 785 779 793 774 q 763 785 776 785 q 717 739 736 785 q 699 617 699 693 l 668 617 q 593 733 657 686 q 440 779 529 779 q 266 672 326 779 q 206 397 206 564 q 231 228 206 301 q 297 113 256 154 q 385 53 339 72 q 478 33 431 33 q 625 60 556 33 l 625 344 q 538 372 613 372 l 538 401 l 840 401 l 840 372 q 753 344 765 372 l 753 111 q 658 26 729 67 q 475 -14 586 -14 q 175 107 289 -14 q 61 394 61 228 q 167 710 61 593 q 439 826 272 826 z "},"Ɣ":{"ha":726,"x_min":-15,"x_max":742,"o":"m 279 813 l 279 783 q 206 771 225 783 l 393 435 l 607 769 q 529 783 589 783 l 529 813 l 742 813 l 742 783 q 654 756 671 783 l 417 388 q 496 122 496 224 q 459 26 496 65 q 364 -14 422 -14 q 240 125 240 -14 q 310 308 240 188 q 235 456 271 392 l 74 754 q -15 783 58 783 l -15 813 l 279 813 m 335 254 q 297 149 297 182 q 332 51 297 51 q 358 78 347 51 q 368 129 368 106 q 335 254 368 174 z "},"Ɩ":{"ha":403,"x_min":43,"x_max":381,"o":"m 258 813 l 258 117 q 273 51 258 72 q 308 31 288 31 q 341 40 326 31 q 356 64 356 50 l 381 64 q 352 7 381 25 q 253 -11 324 -11 q 131 156 131 -11 l 131 756 q 43 783 118 783 l 43 813 l 258 813 z "},"Ɨ":{"ha":457,"x_min":44,"x_max":411,"o":"m 83 0 l 83 29 q 171 57 158 29 l 171 385 l 44 385 l 44 432 l 171 432 l 171 756 q 83 783 158 783 l 83 813 l 386 813 l 386 783 q 299 756 311 783 l 299 432 l 411 432 l 411 385 l 299 385 l 299 57 q 386 29 311 29 l 386 0 l 83 0 z "},"Ƙ":{"ha":965,"x_min":19,"x_max":975,"o":"m 219 0 l 219 29 q 307 57 294 29 l 307 765 q 151 739 175 765 q 136 696 136 724 q 157 656 136 667 q 183 610 183 640 q 165 563 183 581 q 118 544 146 544 q 45 583 71 544 q 19 667 19 622 q 32 721 19 692 q 65 764 44 750 q 113 792 94 783 q 179 806 132 800 q 307 813 226 813 l 519 813 l 519 783 q 432 756 444 783 l 432 57 q 519 29 444 29 l 519 0 l 219 0 m 704 0 l 704 29 q 756 33 736 29 l 439 436 l 779 774 q 708 783 760 783 l 708 813 l 926 813 l 926 783 q 840 751 868 783 l 561 475 l 888 51 q 975 29 910 29 l 975 0 l 704 0 z "},"ƙ":{"ha":696,"x_min":29,"x_max":701,"o":"m 29 0 l 29 29 q 117 57 104 29 l 117 658 q 164 824 117 772 q 289 875 211 875 q 414 850 356 875 q 472 781 472 825 q 454 746 472 761 q 414 731 436 731 q 350 792 382 731 q 337 816 340 810 q 325 828 333 822 q 303 833 317 833 q 259 793 276 833 q 242 678 242 753 l 242 57 q 329 29 254 29 l 329 0 l 29 0 m 431 0 l 431 29 q 483 33 464 29 l 251 353 l 497 574 q 429 582 476 582 l 429 611 l 647 611 l 647 582 q 572 564 593 582 l 375 388 l 614 56 q 701 29 633 29 l 701 0 l 431 0 z "},"Ɲ":{"ha":872,"x_min":-87,"x_max":826,"o":"m 826 813 l 826 783 q 739 756 751 783 l 739 0 l 726 0 l 181 690 l 181 0 q 174 -122 181 -76 q 159 -185 167 -168 q 132 -232 151 -201 q 88 -265 117 -253 q 35 -278 60 -278 q -49 -252 -10 -278 q -87 -179 -87 -226 q -69 -133 -87 -151 q -22 -114 -51 -114 q 24 -140 8 -114 q 64 -161 35 -161 q 107 -146 92 -161 q 133 10 133 -122 l 133 756 q 46 783 121 783 l 46 813 l 232 813 l 692 244 l 692 756 q 604 783 679 783 l 604 813 l 826 813 z "},"Ɵ":{"ha":890,"x_min":61,"x_max":831,"o":"m 61 406 q 169 703 61 579 q 446 826 278 826 q 722 703 614 826 q 831 406 831 579 q 722 109 831 232 q 446 -14 613 -14 q 169 108 276 -14 q 61 406 61 231 m 200 433 l 690 433 q 615 675 681 571 q 440 779 550 779 q 265 675 325 779 q 200 433 204 571 m 692 386 l 201 386 q 233 222 206 299 q 317 89 260 144 q 451 33 374 33 q 588 90 532 33 q 667 224 644 147 q 692 386 690 300 z "},"Ơ":{"ha":914,"x_min":61,"x_max":890,"o":"m 61 406 q 169 703 61 579 q 446 826 278 826 q 628 780 546 826 q 761 651 710 733 q 824 738 824 675 q 810 747 824 747 q 800 746 807 747 q 788 744 793 744 q 724 806 724 744 q 742 850 724 832 q 781 868 761 868 q 860 835 831 868 q 890 750 890 803 q 778 622 890 654 q 831 406 831 521 q 722 109 831 232 q 446 -14 613 -14 q 169 108 276 -14 q 61 406 61 231 m 200 417 q 226 241 200 325 q 310 95 251 157 q 451 33 369 33 q 590 92 533 33 q 669 228 646 150 q 692 394 692 307 q 665 570 692 485 q 580 717 639 656 q 440 779 521 779 q 330 746 378 779 q 255 658 282 713 q 214 542 228 603 q 200 417 200 481 z "},"ơ":{"ha":783,"x_min":54,"x_max":789,"o":"m 385 -14 q 142 77 229 -14 q 54 317 54 168 q 133 538 54 451 q 375 625 213 625 q 665 476 588 625 q 722 561 722 501 q 708 571 722 571 q 699 569 706 571 q 686 568 692 568 q 622 629 622 568 q 641 674 622 656 q 679 692 660 692 q 759 659 729 692 q 789 574 789 626 q 679 446 789 478 q 703 300 703 385 q 624 76 703 165 q 385 -14 546 -14 m 188 344 q 248 107 188 186 q 403 28 308 28 q 524 95 478 28 q 569 268 569 163 q 351 582 569 582 q 233 512 278 582 q 188 344 188 442 z "},"Ƥ":{"ha":908,"x_min":19,"x_max":883,"o":"m 219 0 l 219 29 q 307 57 294 29 l 307 765 q 151 739 175 765 q 136 696 136 724 q 157 656 136 667 q 183 610 183 640 q 165 563 183 581 q 118 544 146 544 q 45 583 71 544 q 19 667 19 622 q 32 720 19 692 q 65 764 44 749 q 113 792 94 783 q 179 806 132 800 q 307 813 226 813 l 533 813 q 794 747 704 813 q 883 601 883 682 q 800 433 883 497 q 550 369 717 369 l 435 369 l 435 57 q 522 29 447 29 l 522 0 l 219 0 m 435 765 l 435 417 l 550 417 q 701 459 657 417 q 744 600 744 501 q 533 765 744 765 l 435 765 z "},"ƥ":{"ha":724,"x_min":7,"x_max":669,"o":"m 7 -267 l 7 -237 q 94 -210 82 -237 l 94 644 q 142 810 94 758 q 267 861 189 861 q 392 836 333 861 q 450 767 450 811 q 432 732 450 747 q 392 717 414 717 q 328 778 360 717 q 315 802 318 796 q 303 814 311 808 q 281 819 294 819 q 237 779 254 819 q 219 664 219 739 l 219 579 q 386 625 286 625 q 477 609 432 625 q 567 559 522 593 q 641 458 613 525 q 669 303 669 392 q 583 67 669 149 q 356 -14 497 -14 q 219 17 275 -14 l 219 -210 q 307 -237 232 -237 l 307 -267 l 7 -267 m 219 533 l 219 61 q 347 33 272 33 q 481 104 424 33 q 538 303 538 175 q 488 483 538 388 q 372 578 439 578 q 219 533 276 578 z "},"Ʃ":{"ha":653,"x_min":3,"x_max":614,"o":"m 561 683 l 532 683 q 504 771 532 758 l 219 771 l 450 464 l 157 81 l 507 81 q 585 169 567 106 l 614 169 l 564 0 l 3 0 l 326 421 l 31 813 l 561 813 l 561 683 z "},"ƪ":{"ha":371,"x_min":-72,"x_max":475,"o":"m 151 592 q 99 586 129 586 q -28 627 17 586 q -72 739 -72 668 q 104 875 -72 875 q 229 824 182 875 q 276 658 276 772 l 276 44 q 294 -71 276 -31 q 338 -111 311 -111 q 371 -78 364 -111 q 425 -31 383 -31 q 461 -47 447 -31 q 475 -83 475 -64 q 435 -133 475 -114 q 324 -153 394 -153 q 199 -101 246 -153 q 151 64 151 -50 l 151 592 m 85 628 q 151 722 151 628 q 134 803 151 772 q 90 833 117 833 q 53 801 74 833 q 32 733 32 768 q 47 658 32 689 q 85 628 63 628 z "},"Ƭ":{"ha":811,"x_min":22,"x_max":786,"o":"m 786 813 l 786 678 l 757 678 q 729 765 757 753 l 501 765 l 501 57 q 589 29 514 29 l 589 0 l 286 0 l 286 29 q 374 57 361 29 l 374 765 l 310 765 q 154 739 178 765 q 139 696 139 724 q 160 656 139 667 q 186 610 186 640 q 167 563 186 581 q 121 544 149 544 q 48 583 74 544 q 22 667 22 622 q 35 721 22 692 q 68 764 47 750 q 116 792 97 783 q 182 806 135 800 q 310 813 229 813 l 786 813 z "},"ƭ":{"ha":463,"x_min":19,"x_max":481,"o":"m 250 678 l 250 611 l 369 611 l 369 569 l 250 569 l 250 128 q 265 62 250 85 q 322 39 281 39 q 373 63 347 39 q 408 131 399 88 l 442 114 q 275 -14 413 -14 q 117 139 117 -14 l 117 569 l 19 569 l 19 611 q 67 619 47 611 q 97 633 88 626 q 115 661 107 640 q 125 691 124 682 q 132 728 126 700 q 297 875 157 875 q 422 850 364 875 q 481 781 481 825 q 463 746 481 761 q 422 731 444 731 q 358 792 390 731 q 345 816 349 810 q 333 828 342 822 q 311 833 325 833 q 267 793 285 833 q 250 678 250 753 z "},"Ʈ":{"ha":742,"x_min":22,"x_max":719,"o":"m 307 0 l 307 765 l 79 765 q 51 678 51 753 l 22 678 l 22 813 l 719 813 l 719 678 l 690 678 q 663 765 690 753 l 435 765 l 435 -19 q 451 -135 435 -96 q 493 -175 467 -175 q 520 -167 513 -175 q 540 -133 528 -158 q 604 -72 572 -72 q 644 -87 626 -72 q 663 -122 663 -103 q 604 -192 663 -167 q 479 -217 546 -217 q 354 -165 401 -217 q 307 0 307 -114 z "},"Ư":{"ha":860,"x_min":35,"x_max":931,"o":"m 736 783 l 736 344 q 656 75 736 164 q 456 -14 576 -14 q 122 344 122 -14 l 122 756 q 35 783 110 783 l 35 813 l 338 813 l 338 783 q 250 756 263 783 l 250 325 q 311 110 250 188 q 469 33 372 33 q 626 111 563 33 q 689 317 689 189 l 689 756 q 601 783 676 783 l 601 813 l 736 813 q 830 839 796 813 q 864 910 864 865 q 850 919 864 919 q 840 918 847 919 q 828 917 833 917 q 764 978 764 917 q 783 1022 764 1004 q 821 1040 801 1040 q 901 1008 871 1040 q 931 922 931 975 q 871 816 931 849 q 736 783 811 783 z "},"ư":{"ha":811,"x_min":24,"x_max":840,"o":"m 646 85 q 733 78 646 85 l 733 46 q 630 16 707 46 q 521 -14 553 -14 l 521 50 q 356 -14 446 -14 q 169 34 226 -14 q 111 183 111 82 l 111 554 q 24 582 99 582 l 24 611 l 236 611 l 236 174 q 364 33 236 33 q 521 94 451 33 l 521 554 q 433 582 508 582 l 433 611 l 646 611 l 646 464 q 740 490 706 464 q 774 561 774 517 q 760 571 774 571 q 750 569 757 571 q 738 568 743 568 q 674 629 674 568 q 692 674 674 656 q 731 692 711 692 q 810 659 781 692 q 840 574 840 626 q 781 467 840 500 q 646 435 721 435 l 646 85 z "},"Ʊ":{"ha":906,"x_min":68,"x_max":838,"o":"m 313 84 q 342 59 313 84 q 453 33 371 33 q 592 84 535 33 q 674 210 650 135 q 699 375 699 285 q 544 813 699 661 l 817 813 l 817 765 l 688 765 q 796 578 754 683 q 838 364 838 474 q 732 90 838 194 q 453 -14 626 -14 q 174 90 279 -14 q 68 364 68 194 q 110 578 68 474 q 218 765 151 683 l 89 765 l 89 813 l 361 813 q 207 375 207 661 q 231 210 207 285 q 313 84 256 135 z "},"Ʋ":{"ha":825,"x_min":35,"x_max":760,"o":"m 565 772 q 526 761 543 772 q 540 728 540 747 q 524 692 540 711 q 489 674 508 674 q 444 693 465 674 q 424 736 424 713 q 462 800 424 774 q 538 826 500 826 q 693 722 626 826 q 760 497 760 618 q 676 125 760 264 q 421 -14 592 -14 q 310 -1 357 -14 q 217 49 263 13 q 147 160 171 85 q 122 350 122 236 l 122 756 q 35 783 110 783 l 35 813 l 338 813 l 338 783 q 250 756 263 783 l 250 308 q 299 101 250 168 q 413 33 349 33 q 638 160 567 33 q 710 503 710 288 q 666 685 710 597 q 565 772 622 772 z "},"Ƴ":{"ha":953,"x_min":-12,"x_max":950,"o":"m 292 813 l 292 783 q 211 767 226 783 l 426 390 l 635 736 q 771 826 688 826 q 897 802 844 826 q 950 732 950 778 q 932 697 950 713 q 892 682 914 682 q 828 743 860 682 q 815 767 818 761 q 803 779 811 774 q 781 785 794 785 q 683 719 722 785 l 461 350 l 461 57 q 549 29 474 29 l 549 0 l 246 0 l 246 29 q 333 57 321 29 l 333 306 l 75 757 q -12 783 56 783 l -12 813 l 292 813 z "},"ƴ":{"ha":851,"x_min":-7,"x_max":846,"o":"m 263 611 l 263 582 q 204 576 222 582 l 369 169 l 497 490 q 567 588 521 550 q 663 625 613 625 q 791 600 736 625 q 846 531 846 575 q 828 496 846 511 q 788 481 810 481 q 724 542 756 481 q 710 566 714 560 q 699 578 707 572 q 676 583 690 583 q 603 547 632 583 q 538 419 574 511 l 313 -142 q 167 -256 267 -256 q 126 -241 146 -256 q 106 -206 106 -226 q 117 -168 106 -185 q 150 -151 129 -151 q 177 -163 161 -151 q 203 -175 193 -175 q 242 -150 232 -175 l 301 0 l 81 554 q -7 582 68 582 l -7 611 l 263 611 z "},"Ʒ":{"ha":678,"x_min":36,"x_max":624,"o":"m 408 494 q 563 416 501 475 q 624 261 624 357 q 540 68 624 150 q 306 -14 456 -14 q 107 45 178 -14 q 36 183 36 104 q 53 234 36 215 q 96 253 69 253 q 140 240 121 253 q 158 204 158 228 q 144 161 158 175 q 110 147 129 147 q 168 64 122 100 q 292 28 214 28 q 448 96 397 28 q 499 256 499 164 q 438 412 499 358 q 282 465 376 465 l 410 718 l 219 718 q 142 629 160 693 l 113 629 l 169 813 l 567 813 l 408 494 z "},"ǀ":{"ha":244,"x_min":94,"x_max":150,"o":"m 94 861 l 150 861 l 150 0 l 94 0 l 94 861 z "},"ǁ":{"ha":383,"x_min":94,"x_max":289,"o":"m 94 861 l 150 861 l 150 0 l 94 0 l 94 861 m 233 861 l 289 861 l 289 0 l 233 0 l 233 861 z "},"ǂ":{"ha":375,"x_min":35,"x_max":340,"o":"m 160 861 l 215 861 l 215 514 l 340 514 l 340 458 l 215 458 l 215 403 l 340 403 l 340 347 l 215 347 l 215 0 l 160 0 l 160 347 l 35 347 l 35 403 l 160 403 l 160 458 l 35 458 l 35 514 l 160 514 l 160 861 z "},"ǃ":{"ha":296,"x_min":65,"x_max":232,"o":"m 91 12 q 78 25 91 12 q 65 71 65 38 q 88 131 65 104 q 147 158 111 158 q 206 133 179 158 q 232 75 232 108 q 208 14 232 42 q 149 -14 185 -14 q 91 12 117 -14 m 179 353 q 147 258 167 258 q 115 353 128 258 q 95 571 111 379 q 79 813 79 763 q 98 859 79 843 q 147 875 117 875 q 197 859 178 875 q 215 813 215 843 q 199 569 215 763 q 179 353 183 376 z "},"Ǎ":{"ha":758,"x_min":-11,"x_max":771,"o":"m 350 861 l 219 1086 l 256 1086 l 385 965 l 514 1086 l 550 1086 l 419 861 l 350 861 m 467 0 l 467 29 q 547 46 531 29 l 469 258 l 203 258 l 131 54 q 217 29 144 29 l 217 0 l -11 0 l -11 29 q 76 58 67 29 l 346 813 l 413 813 l 682 58 q 771 29 692 29 l 771 0 l 467 0 m 335 628 l 219 304 l 453 304 l 335 628 z "},"ǎ":{"ha":671,"x_min":44,"x_max":683,"o":"m 275 715 l 144 940 l 181 940 l 310 819 l 439 940 l 475 940 l 344 715 l 275 715 m 156 508 q 190 494 175 508 q 204 451 204 481 q 185 415 204 428 q 142 403 167 403 q 99 422 115 403 q 82 472 82 440 q 142 585 82 544 q 311 625 201 625 q 501 561 440 625 q 561 392 561 497 l 561 117 q 576 51 561 72 q 611 31 590 31 q 644 40 629 31 q 658 64 658 50 l 683 64 q 655 7 683 25 q 556 -11 626 -11 q 457 46 486 -11 q 253 -14 375 -14 q 44 156 44 -14 q 70 221 44 192 q 144 269 96 250 q 236 301 193 289 q 344 327 279 313 q 436 350 408 342 q 406 521 436 467 q 297 575 375 575 q 156 508 172 575 m 444 81 q 436 156 436 111 l 436 319 q 384 304 421 314 q 324 288 347 294 q 269 267 301 281 q 219 239 238 253 q 188 202 201 225 q 174 153 174 179 q 199 60 174 86 q 276 33 225 33 q 444 81 368 33 z "},"Ǐ":{"ha":419,"x_min":43,"x_max":374,"o":"m 174 861 l 43 1086 l 79 1086 l 208 965 l 338 1086 l 374 1086 l 243 861 l 174 861 m 58 0 l 58 29 q 146 57 133 29 l 146 756 q 58 783 133 783 l 58 813 l 361 813 l 361 783 q 274 756 286 783 l 274 57 q 361 29 286 29 l 361 0 l 58 0 z "},"ǐ":{"ha":372,"x_min":32,"x_max":363,"o":"m 163 715 l 32 940 l 68 940 l 197 819 l 326 940 l 363 940 l 232 715 l 163 715 m 43 0 l 43 29 q 131 57 118 29 l 131 526 q 43 533 44 533 l 43 565 q 147 595 69 565 q 256 625 224 625 l 256 57 q 343 29 268 29 l 343 0 l 43 0 z "},"Ǒ":{"ha":890,"x_min":61,"x_max":831,"o":"m 413 861 l 282 1086 l 318 1086 l 447 965 l 576 1086 l 613 1086 l 482 861 l 413 861 m 200 417 q 226 241 200 325 q 310 95 251 157 q 451 33 369 33 q 590 92 533 33 q 669 228 646 150 q 692 394 692 307 q 665 570 692 485 q 580 717 639 656 q 440 779 521 779 q 330 746 378 779 q 255 658 282 713 q 214 542 228 603 q 200 417 200 481 m 61 406 q 169 703 61 579 q 446 826 278 826 q 722 703 614 826 q 831 406 831 579 q 722 109 831 232 q 446 -14 613 -14 q 169 108 276 -14 q 61 406 61 231 z "},"ǒ":{"ha":757,"x_min":54,"x_max":703,"o":"m 347 715 l 217 940 l 253 940 l 382 819 l 511 940 l 547 940 l 417 715 l 347 715 m 188 344 q 248 107 188 186 q 403 28 308 28 q 524 95 478 28 q 569 268 569 163 q 351 582 569 582 q 233 512 278 582 q 188 344 188 442 m 385 -14 q 142 77 229 -14 q 54 317 54 168 q 133 538 54 451 q 375 625 213 625 q 621 538 539 625 q 703 300 703 451 q 624 76 703 165 q 385 -14 546 -14 z "},"Ǔ":{"ha":858,"x_min":35,"x_max":824,"o":"m 433 861 l 303 1086 l 339 1086 l 468 965 l 597 1086 l 633 1086 l 503 861 l 433 861 m 469 33 q 626 111 563 33 q 689 317 689 189 l 689 756 q 601 783 676 783 l 601 813 l 824 813 l 824 783 q 736 756 749 783 l 736 344 q 656 75 736 164 q 456 -14 576 -14 q 122 344 122 -14 l 122 756 q 35 783 110 783 l 35 813 l 338 813 l 338 783 q 250 756 263 783 l 250 325 q 311 110 250 188 q 469 33 372 33 z "},"ǔ":{"ha":764,"x_min":24,"x_max":733,"o":"m 340 715 l 210 940 l 246 940 l 375 819 l 504 940 l 540 940 l 410 715 l 340 715 m 646 85 q 733 78 646 85 l 733 46 q 630 16 707 46 q 521 -14 553 -14 l 521 50 q 356 -14 446 -14 q 169 34 226 -14 q 111 183 111 82 l 111 554 q 24 582 99 582 l 24 611 l 236 611 l 236 174 q 364 33 236 33 q 521 94 451 33 l 521 554 q 433 582 508 582 l 433 611 l 646 611 l 646 85 z "},"Ǖ":{"ha":858,"x_min":35,"x_max":824,"o":"m 278 1115 l 644 1115 l 644 1054 l 278 1054 l 278 1115 m 547 881 q 536 891 547 881 q 526 929 526 901 q 547 977 526 957 q 594 997 567 997 q 642 977 622 997 q 663 929 663 957 q 642 881 663 901 q 594 861 622 861 q 547 881 567 861 m 291 881 q 281 891 291 881 q 271 929 271 901 q 291 977 271 957 q 339 997 311 997 q 387 977 367 997 q 407 929 407 957 q 387 881 407 901 q 339 861 367 861 q 291 881 311 861 m 469 33 q 626 111 563 33 q 689 317 689 189 l 689 756 q 601 783 676 783 l 601 813 l 824 813 l 824 783 q 736 756 749 783 l 736 344 q 656 75 736 164 q 456 -14 576 -14 q 122 344 122 -14 l 122 756 q 35 783 110 783 l 35 813 l 338 813 l 338 783 q 250 756 263 783 l 250 325 q 311 110 250 188 q 469 33 372 33 z "},"ǖ":{"ha":764,"x_min":24,"x_max":733,"o":"m 186 969 l 553 969 l 553 908 l 186 908 l 186 969 m 456 735 q 446 745 456 735 q 436 783 436 756 q 456 831 436 811 q 504 851 476 851 q 552 831 532 851 q 572 783 572 811 q 552 735 572 756 q 504 715 532 715 q 456 735 476 715 m 201 735 q 191 745 201 735 q 181 783 181 756 q 201 831 181 811 q 249 851 221 851 q 297 831 276 851 q 317 783 317 811 q 297 735 317 756 q 249 715 276 715 q 201 735 221 715 m 646 85 q 733 78 646 85 l 733 46 q 630 16 707 46 q 521 -14 553 -14 l 521 50 q 356 -14 446 -14 q 169 34 226 -14 q 111 183 111 82 l 111 554 q 24 582 99 582 l 24 611 l 236 611 l 236 174 q 364 33 236 33 q 521 94 451 33 l 521 554 q 433 582 508 582 l 433 611 l 646 611 l 646 85 z "},"Ǘ":{"ha":858,"x_min":35,"x_max":824,"o":"m 546 1233 l 693 1233 l 479 1008 l 443 1008 l 546 1233 m 547 881 q 536 891 547 881 q 526 929 526 901 q 547 977 526 957 q 594 997 567 997 q 642 977 622 997 q 663 929 663 957 q 642 881 663 901 q 594 861 622 861 q 547 881 567 861 m 291 881 q 281 891 291 881 q 271 929 271 901 q 291 977 271 957 q 339 997 311 997 q 387 977 367 997 q 407 929 407 957 q 387 881 407 901 q 339 861 367 861 q 291 881 311 861 m 469 33 q 626 111 563 33 q 689 317 689 189 l 689 756 q 601 783 676 783 l 601 813 l 824 813 l 824 783 q 736 756 749 783 l 736 344 q 656 75 736 164 q 456 -14 576 -14 q 122 344 122 -14 l 122 756 q 35 783 110 783 l 35 813 l 338 813 l 338 783 q 250 756 263 783 l 250 325 q 311 110 250 188 q 469 33 372 33 z "},"ǘ":{"ha":764,"x_min":24,"x_max":733,"o":"m 458 1086 l 606 1086 l 392 861 l 356 861 l 458 1086 m 456 735 q 446 745 456 735 q 436 783 436 756 q 456 831 436 811 q 504 851 476 851 q 552 831 532 851 q 572 783 572 811 q 552 735 572 756 q 504 715 532 715 q 456 735 476 715 m 201 735 q 191 745 201 735 q 181 783 181 756 q 201 831 181 811 q 249 851 221 851 q 297 831 276 851 q 317 783 317 811 q 297 735 317 756 q 249 715 276 715 q 201 735 221 715 m 646 85 q 733 78 646 85 l 733 46 q 630 16 707 46 q 521 -14 553 -14 l 521 50 q 356 -14 446 -14 q 169 34 226 -14 q 111 183 111 82 l 111 554 q 24 582 99 582 l 24 611 l 236 611 l 236 174 q 364 33 236 33 q 521 94 451 33 l 521 554 q 433 582 508 582 l 433 611 l 646 611 l 646 85 z "},"Ǚ":{"ha":858,"x_min":35,"x_max":824,"o":"m 433 1028 l 303 1253 l 339 1253 l 468 1132 l 597 1253 l 633 1253 l 503 1028 l 433 1028 m 547 881 q 536 891 547 881 q 526 929 526 901 q 547 977 526 957 q 594 997 567 997 q 642 977 622 997 q 663 929 663 957 q 642 881 663 901 q 594 861 622 861 q 547 881 567 861 m 291 881 q 281 891 291 881 q 271 929 271 901 q 291 977 271 957 q 339 997 311 997 q 387 977 367 997 q 407 929 407 957 q 387 881 407 901 q 339 861 367 861 q 291 881 311 861 m 469 33 q 626 111 563 33 q 689 317 689 189 l 689 756 q 601 783 676 783 l 601 813 l 824 813 l 824 783 q 736 756 749 783 l 736 344 q 656 75 736 164 q 456 -14 576 -14 q 122 344 122 -14 l 122 756 q 35 783 110 783 l 35 813 l 338 813 l 338 783 q 250 756 263 783 l 250 325 q 311 110 250 188 q 469 33 372 33 z "},"ǚ":{"ha":764,"x_min":24,"x_max":733,"o":"m 340 882 l 210 1107 l 246 1107 l 375 986 l 504 1107 l 540 1107 l 410 882 l 340 882 m 456 735 q 446 745 456 735 q 436 783 436 756 q 456 831 436 811 q 504 851 476 851 q 552 831 532 851 q 572 783 572 811 q 552 735 572 756 q 504 715 532 715 q 456 735 476 715 m 201 735 q 191 745 201 735 q 181 783 181 756 q 201 831 181 811 q 249 851 221 851 q 297 831 276 851 q 317 783 317 811 q 297 735 317 756 q 249 715 276 715 q 201 735 221 715 m 646 85 q 733 78 646 85 l 733 46 q 630 16 707 46 q 521 -14 553 -14 l 521 50 q 356 -14 446 -14 q 169 34 226 -14 q 111 183 111 82 l 111 554 q 24 582 99 582 l 24 611 l 236 611 l 236 174 q 364 33 236 33 q 521 94 451 33 l 521 554 q 433 582 508 582 l 433 611 l 646 611 l 646 85 z "},"Ǜ":{"ha":858,"x_min":35,"x_max":824,"o":"m 382 1233 l 485 1008 l 449 1008 l 235 1233 l 382 1233 m 547 881 q 536 891 547 881 q 526 929 526 901 q 547 977 526 957 q 594 997 567 997 q 642 977 622 997 q 663 929 663 957 q 642 881 663 901 q 594 861 622 861 q 547 881 567 861 m 291 881 q 281 891 291 881 q 271 929 271 901 q 291 977 271 957 q 339 997 311 997 q 387 977 367 997 q 407 929 407 957 q 387 881 407 901 q 339 861 367 861 q 291 881 311 861 m 469 33 q 626 111 563 33 q 689 317 689 189 l 689 756 q 601 783 676 783 l 601 813 l 824 813 l 824 783 q 736 756 749 783 l 736 344 q 656 75 736 164 q 456 -14 576 -14 q 122 344 122 -14 l 122 756 q 35 783 110 783 l 35 813 l 338 813 l 338 783 q 250 756 263 783 l 250 325 q 311 110 250 188 q 469 33 372 33 z "},"ǜ":{"ha":764,"x_min":24,"x_max":733,"o":"m 292 1086 l 394 861 l 358 861 l 144 1086 l 292 1086 m 456 735 q 446 745 456 735 q 436 783 436 756 q 456 831 436 811 q 504 851 476 851 q 552 831 532 851 q 572 783 572 811 q 552 735 572 756 q 504 715 532 715 q 456 735 476 715 m 201 735 q 191 745 201 735 q 181 783 181 756 q 201 831 181 811 q 249 851 221 851 q 297 831 276 851 q 317 783 317 811 q 297 735 317 756 q 249 715 276 715 q 201 735 221 715 m 646 85 q 733 78 646 85 l 733 46 q 630 16 707 46 q 521 -14 553 -14 l 521 50 q 356 -14 446 -14 q 169 34 226 -14 q 111 183 111 82 l 111 554 q 24 582 99 582 l 24 611 l 236 611 l 236 174 q 364 33 236 33 q 521 94 451 33 l 521 554 q 433 582 508 582 l 433 611 l 646 611 l 646 85 z "},"ǝ":{"ha":685,"x_min":53,"x_max":631,"o":"m 499 276 q 431 483 497 393 q 283 572 365 572 q 89 481 163 572 l 56 497 q 160 594 96 564 q 331 625 225 625 q 432 609 383 625 q 528 556 481 593 q 603 447 575 519 q 631 275 631 375 q 555 69 631 153 q 344 -14 479 -14 q 125 69 197 -14 q 53 276 53 151 l 499 276 m 497 233 l 189 233 q 231 81 197 133 q 350 28 265 28 q 444 85 399 28 q 497 233 489 142 z "},"Ǟ":{"ha":758,"x_min":-11,"x_max":771,"o":"m 192 1115 l 558 1115 l 558 1054 l 192 1054 l 192 1115 m 463 881 q 453 891 463 881 q 443 929 443 901 q 463 977 443 957 q 511 997 483 997 q 559 977 539 997 q 579 929 579 957 q 559 881 579 901 q 511 861 539 861 q 463 881 483 861 m 208 881 q 198 891 208 881 q 188 929 188 901 q 208 977 188 957 q 256 997 228 997 q 303 977 283 997 q 324 929 324 957 q 303 881 324 901 q 256 861 283 861 q 208 881 228 861 m 467 0 l 467 29 q 547 46 531 29 l 469 258 l 203 258 l 131 54 q 217 29 144 29 l 217 0 l -11 0 l -11 29 q 76 58 67 29 l 346 813 l 413 813 l 682 58 q 771 29 692 29 l 771 0 l 467 0 m 335 628 l 219 304 l 453 304 l 335 628 z "},"ǟ":{"ha":671,"x_min":44,"x_max":683,"o":"m 117 969 l 483 969 l 483 908 l 117 908 l 117 969 m 388 735 q 378 745 388 735 q 368 783 368 756 q 388 831 368 811 q 436 851 408 851 q 484 831 464 851 q 504 783 504 811 q 484 735 504 756 q 436 715 464 715 q 388 735 408 715 m 133 735 q 123 745 133 735 q 113 783 113 756 q 133 831 113 811 q 181 851 153 851 q 228 831 208 851 q 249 783 249 811 q 228 735 249 756 q 181 715 208 715 q 133 735 153 715 m 156 508 q 190 494 175 508 q 204 451 204 481 q 185 415 204 428 q 142 403 167 403 q 99 422 115 403 q 82 472 82 440 q 142 585 82 544 q 311 625 201 625 q 501 561 440 625 q 561 392 561 497 l 561 117 q 576 51 561 72 q 611 31 590 31 q 644 40 629 31 q 658 64 658 50 l 683 64 q 655 7 683 25 q 556 -11 626 -11 q 457 46 486 -11 q 253 -14 375 -14 q 44 156 44 -14 q 70 221 44 192 q 144 269 96 250 q 236 301 193 289 q 344 327 279 313 q 436 350 408 342 q 406 521 436 467 q 297 575 375 575 q 156 508 172 575 m 444 81 q 436 156 436 111 l 436 319 q 384 304 421 314 q 324 288 347 294 q 269 267 301 281 q 219 239 238 253 q 188 202 201 225 q 174 153 174 179 q 199 60 174 86 q 276 33 225 33 q 444 81 368 33 z "},"Ǧ":{"ha":857,"x_min":56,"x_max":835,"o":"m 442 861 l 311 1086 l 347 1086 l 476 965 l 606 1086 l 642 1086 l 511 861 l 442 861 m 492 779 q 286 667 372 779 q 200 397 200 556 q 225 228 200 301 q 292 113 250 154 q 379 53 333 72 q 472 33 425 33 q 619 60 550 33 l 619 344 q 532 372 607 372 l 532 401 l 835 401 l 835 372 q 747 344 760 372 l 747 111 q 652 26 724 67 q 469 -14 581 -14 q 169 107 283 -14 q 56 394 56 228 q 186 707 56 588 q 490 826 317 826 q 590 806 531 826 q 658 785 650 785 q 675 813 675 785 l 707 813 l 721 636 l 690 636 q 629 738 682 697 q 492 779 576 779 z "},"ǧ":{"ha":722,"x_min":54,"x_max":628,"o":"m 342 715 l 211 940 l 247 940 l 376 819 l 506 940 l 542 940 l 411 715 l 342 715 m 628 625 l 628 40 q 559 -190 628 -103 q 358 -278 490 -278 q 169 -237 240 -278 q 97 -153 97 -197 q 114 -102 97 -121 q 157 -83 131 -83 q 201 -96 182 -83 q 219 -132 219 -108 q 185 -190 219 -176 q 344 -228 222 -228 q 501 28 488 -228 q 338 -14 438 -14 q 247 1 292 -14 q 156 49 201 15 q 83 148 111 82 q 54 303 54 214 q 141 542 54 458 q 368 625 228 625 q 521 581 456 625 q 628 625 592 625 m 503 74 l 503 90 l 503 549 q 376 578 453 578 q 243 505 300 578 q 186 303 186 432 q 232 107 186 181 q 351 33 278 33 q 503 74 443 33 z "},"Ǫ":{"ha":890,"x_min":60,"x_max":829,"o":"m 63 406 l 60 406 q 168 703 60 579 q 444 826 276 826 q 721 703 613 826 q 829 406 829 579 q 736 127 829 246 q 496 -11 643 8 q 467 -82 467 -51 q 504 -190 467 -150 q 589 -231 542 -231 q 608 -225 597 -231 q 625 -214 619 -219 l 632 -208 l 647 -233 q 638 -246 644 -239 q 602 -265 631 -253 q 538 -278 574 -278 q 434 -242 469 -278 q 399 -143 399 -207 q 451 -14 399 -72 l 447 -14 q 170 108 278 -14 q 63 406 63 231 m 199 417 q 224 241 199 325 q 309 95 250 157 q 450 33 368 33 q 588 92 532 33 q 667 228 644 150 q 690 394 690 307 q 664 570 690 485 q 578 717 638 656 q 439 779 519 779 q 328 746 376 779 q 253 658 281 713 q 213 542 226 603 q 199 417 199 481 z "},"ǫ":{"ha":757,"x_min":54,"x_max":703,"o":"m 188 344 q 248 107 188 186 q 403 28 308 28 q 524 95 478 28 q 569 268 569 163 q 351 582 569 582 q 233 512 278 582 q 188 344 188 442 m 396 -14 l 396 -15 q 368 -83 368 -54 q 406 -192 368 -151 q 490 -232 443 -232 q 510 -226 499 -232 q 528 -215 521 -221 l 533 -210 l 549 -235 q 539 -247 546 -240 q 503 -267 532 -254 q 439 -279 475 -279 q 335 -244 371 -279 q 300 -144 300 -208 q 354 -14 300 -71 q 133 85 213 -4 q 54 315 54 174 q 133 537 54 450 q 375 624 213 624 q 621 537 539 624 q 703 299 703 450 q 627 78 703 167 q 396 -14 551 -11 z "},"Ǹ":{"ha":886,"x_min":58,"x_max":839,"o":"m 375 1086 l 478 861 l 442 861 l 228 1086 l 375 1086 m 58 0 l 58 29 q 146 57 133 29 l 146 756 q 58 783 133 783 l 58 813 l 244 813 l 704 244 l 704 756 q 617 783 692 783 l 617 813 l 839 813 l 839 783 q 751 756 764 783 l 751 0 l 739 0 l 193 690 l 193 57 q 281 29 206 29 l 281 0 l 58 0 z "},"ǹ":{"ha":776,"x_min":43,"x_max":753,"o":"m 333 942 l 436 717 l 400 717 l 186 942 l 333 942 m 43 0 l 43 29 q 131 57 118 29 l 131 526 q 43 533 44 533 l 43 565 q 147 595 69 565 q 256 625 224 625 l 256 561 q 421 625 331 625 q 608 577 550 625 q 665 428 665 529 l 665 57 q 753 29 678 29 l 753 0 l 453 0 l 453 29 q 540 57 528 29 l 540 438 q 413 578 540 578 q 256 517 325 578 l 256 57 q 343 29 268 29 l 343 0 l 43 0 z "},"Ǿ":{"ha":890,"x_min":61,"x_max":831,"o":"m 531 1086 l 678 1086 l 464 861 l 428 861 l 531 1086 m 600 696 q 440 779 533 779 q 330 746 378 779 q 255 658 282 713 q 214 542 228 603 q 200 417 200 481 q 263 157 200 265 l 600 696 m 629 653 l 292 114 q 451 33 356 33 q 590 92 533 33 q 669 228 646 150 q 692 394 692 307 q 629 653 692 544 m 61 406 q 169 703 61 579 q 446 826 278 826 q 646 769 556 826 l 696 850 l 736 825 l 683 740 q 792 594 753 682 q 831 406 831 507 q 722 109 831 232 q 446 -14 613 -14 q 247 42 335 -14 l 196 -39 l 156 -14 l 208 71 q 100 217 139 129 q 61 406 61 304 z "},"ǿ":{"ha":757,"x_min":54,"x_max":703,"o":"m 465 940 l 613 940 l 399 715 l 363 715 l 465 940 m 500 524 q 351 582 447 582 q 233 512 278 582 q 188 344 188 442 q 229 138 188 217 l 500 524 m 528 483 l 257 96 q 403 28 315 28 q 524 95 478 28 q 569 268 569 163 q 528 483 569 408 m 586 567 q 703 300 703 485 q 624 76 703 165 q 385 -14 546 -14 q 208 26 282 -14 l 156 -49 l 118 -21 l 169 51 q 54 317 54 142 q 133 538 54 451 q 375 625 213 625 q 546 590 474 625 l 594 660 l 632 632 l 586 567 z "},"Ș":{"ha":664,"x_min":71,"x_max":619,"o":"m 338 -174 q 267 -112 267 -174 q 281 -73 267 -87 q 308 -56 296 -58 q 331 -53 321 -53 q 421 -85 383 -53 q 458 -174 458 -118 q 286 -344 458 -290 l 286 -306 q 358 -267 321 -301 q 394 -190 394 -233 q 392 -160 394 -165 q 381 -156 389 -156 q 365 -165 376 -156 q 338 -174 353 -174 m 346 -14 q 207 7 278 -14 q 133 28 136 28 q 114 19 125 28 q 103 0 103 11 l 71 0 l 71 193 l 101 193 q 184 72 117 110 q 338 33 251 33 q 458 67 411 33 q 506 167 506 100 q 492 222 506 197 q 452 269 479 247 q 400 305 425 290 q 335 341 375 319 q 275 375 296 363 q 203 422 226 406 q 142 469 179 438 q 89 536 106 501 q 72 611 72 571 q 147 760 72 693 q 315 826 222 826 q 415 806 356 826 q 483 785 475 785 q 500 813 500 785 l 532 813 l 546 636 l 515 636 q 454 738 507 697 q 317 779 401 779 q 215 738 253 779 q 176 656 176 697 q 189 606 176 629 q 228 564 201 583 q 278 530 254 544 q 341 494 301 515 q 401 461 381 474 q 483 410 458 426 q 548 358 508 393 q 603 287 588 324 q 619 206 619 250 q 536 44 619 103 q 346 -14 453 -14 z "},"ș":{"ha":563,"x_min":63,"x_max":517,"o":"m 250 -174 q 179 -112 179 -174 q 194 -73 179 -87 q 221 -56 208 -58 q 243 -53 233 -53 q 333 -85 296 -53 q 371 -174 371 -118 q 199 -344 371 -290 l 199 -306 q 270 -267 233 -301 q 307 -190 307 -233 q 305 -160 307 -165 q 293 -156 303 -156 q 277 -165 289 -156 q 250 -174 265 -174 m 288 28 q 373 53 326 28 q 419 128 419 78 q 254 267 419 208 q 188 293 214 281 q 132 328 163 306 q 86 382 101 350 q 71 457 71 414 q 128 580 71 535 q 265 625 185 625 q 362 604 313 625 q 418 583 411 583 q 435 611 435 583 l 467 611 l 467 444 l 436 444 q 380 543 428 503 q 269 583 332 583 q 195 563 225 583 q 165 506 165 542 q 174 467 165 485 q 190 440 182 450 q 222 417 199 429 q 256 399 244 404 q 299 383 268 394 q 342 368 331 372 q 465 290 414 340 q 517 172 517 239 q 449 37 517 88 q 276 -14 381 -14 q 179 10 226 -14 q 126 33 132 33 q 107 22 118 33 q 96 0 96 11 l 63 0 l 63 196 l 93 196 q 159 76 103 125 q 288 28 215 28 z "},"Ț":{"ha":744,"x_min":24,"x_max":721,"o":"m 379 -174 q 308 -112 308 -174 q 323 -73 308 -87 q 350 -56 338 -58 q 372 -53 363 -53 q 463 -85 425 -53 q 500 -174 500 -118 q 328 -344 500 -290 l 328 -306 q 399 -267 363 -301 q 436 -190 436 -233 q 433 -160 436 -165 q 422 -156 431 -156 q 406 -165 418 -156 q 379 -174 394 -174 m 24 813 l 721 813 l 721 678 l 692 678 q 664 765 692 753 l 436 765 l 436 57 q 524 29 449 29 l 524 0 l 221 0 l 221 29 q 308 57 296 29 l 308 765 l 81 765 q 53 678 53 753 l 24 678 l 24 813 z "},"ț":{"ha":463,"x_min":19,"x_max":442,"o":"m 261 -174 q 190 -112 190 -174 q 205 -73 190 -87 q 232 -56 219 -58 q 254 -53 244 -53 q 344 -85 307 -53 q 382 -174 382 -118 q 210 -344 382 -290 l 210 -306 q 281 -267 244 -301 q 318 -190 318 -233 q 316 -160 318 -165 q 304 -156 314 -156 q 288 -165 300 -156 q 261 -174 276 -174 m 250 813 l 250 611 l 369 611 l 369 569 l 250 569 l 250 128 q 265 62 250 85 q 322 39 281 39 q 373 63 347 39 q 408 131 399 88 l 442 114 q 275 -14 413 -14 q 117 139 117 -14 l 117 569 l 19 569 l 19 611 q 138 665 85 611 q 190 813 190 719 l 250 813 z "},"Ȩ":{"ha":704,"x_min":58,"x_max":681,"o":"m 58 0 l 58 29 q 146 57 133 29 l 146 756 q 58 783 133 783 l 58 813 l 618 813 l 618 678 l 589 678 q 561 765 589 753 l 274 765 l 274 446 l 468 446 q 496 533 496 458 l 525 533 l 525 311 l 496 311 q 468 399 496 386 l 274 399 l 274 47 l 590 47 q 653 135 625 63 l 681 135 l 647 0 l 388 0 l 367 -76 q 458 -99 411 -76 q 506 -169 506 -122 q 353 -276 506 -276 q 250 -267 307 -276 l 250 -243 q 285 -246 275 -246 q 361 -226 338 -246 q 385 -181 385 -206 q 300 -119 385 -119 l 335 0 l 58 0 z "},"ȩ":{"ha":686,"x_min":56,"x_max":633,"o":"m 189 378 l 497 378 q 455 531 489 478 q 336 583 421 583 q 242 526 288 583 q 189 378 197 469 m 188 335 q 255 128 189 218 q 403 39 321 39 q 597 131 524 39 l 631 114 q 386 -14 557 -7 l 369 -76 q 461 -99 414 -76 q 508 -169 508 -122 q 356 -276 508 -276 q 253 -267 310 -276 l 253 -243 q 288 -246 278 -246 q 364 -226 340 -246 q 388 -181 388 -206 q 303 -119 388 -119 l 333 -12 q 237 9 282 -10 q 149 65 192 28 q 81 172 106 103 q 56 336 56 242 q 131 542 56 458 q 342 625 207 625 q 561 542 489 625 q 633 335 633 460 l 188 335 z "},"Ȫ":{"ha":890,"x_min":61,"x_max":831,"o":"m 257 1115 l 624 1115 l 624 1054 l 257 1054 l 257 1115 m 526 881 q 516 891 526 881 q 506 929 506 901 q 526 977 506 957 q 574 997 546 997 q 622 977 601 997 q 642 929 642 957 q 622 881 642 901 q 574 861 601 861 q 526 881 546 861 m 270 881 q 260 891 270 881 q 250 929 250 901 q 270 977 250 957 q 318 997 290 997 q 366 977 346 997 q 386 929 386 957 q 366 881 386 901 q 318 861 346 861 q 270 881 290 861 m 200 417 q 226 241 200 325 q 310 95 251 157 q 451 33 369 33 q 590 92 533 33 q 669 228 646 150 q 692 394 692 307 q 665 570 692 485 q 580 717 639 656 q 440 779 521 779 q 330 746 378 779 q 255 658 282 713 q 214 542 228 603 q 200 417 200 481 m 61 406 q 169 703 61 579 q 446 826 278 826 q 722 703 614 826 q 831 406 831 579 q 722 109 831 232 q 446 -14 613 -14 q 169 108 276 -14 q 61 406 61 231 z "},"ȫ":{"ha":757,"x_min":54,"x_max":703,"o":"m 192 969 l 558 969 l 558 908 l 192 908 l 192 969 m 460 735 q 450 745 460 735 q 440 783 440 756 q 460 831 440 811 q 508 851 481 851 q 556 831 536 851 q 576 783 576 811 q 556 735 576 756 q 508 715 536 715 q 460 735 481 715 m 205 735 q 195 745 205 735 q 185 783 185 756 q 205 831 185 811 q 253 851 225 851 q 301 831 281 851 q 321 783 321 811 q 301 735 321 756 q 253 715 281 715 q 205 735 225 715 m 188 344 q 248 107 188 186 q 403 28 308 28 q 524 95 478 28 q 569 268 569 163 q 351 582 569 582 q 233 512 278 582 q 188 344 188 442 m 385 -14 q 142 77 229 -14 q 54 317 54 168 q 133 538 54 451 q 375 625 213 625 q 621 538 539 625 q 703 300 703 451 q 624 76 703 165 q 385 -14 546 -14 z "},"ȷ":{"ha":338,"x_min":-124,"x_max":243,"o":"m 118 526 q 31 533 118 526 l 31 565 q 134 595 57 565 q 243 625 211 625 l 243 -61 q 190 -226 243 -174 q 57 -278 136 -278 q -124 -157 -124 -278 q -105 -117 -124 -132 q -64 -101 -86 -101 q -26 -117 -42 -101 q -10 -156 -10 -132 q -24 -189 -10 -175 q -4 -224 -24 -212 q 43 -236 15 -236 q 94 -195 71 -236 q 118 -81 118 -154 l 118 526 z "},"Ɂ":{"ha":617,"x_min":39,"x_max":578,"o":"m 453 586 q 278 785 453 785 q 113 665 143 785 q 147 651 132 665 q 161 608 161 638 q 142 572 161 585 q 99 560 124 560 q 56 578 72 560 q 39 629 39 597 q 102 769 39 711 q 292 826 165 826 q 505 759 432 826 q 578 611 578 692 q 556 539 578 572 q 501 481 533 506 q 438 432 469 456 q 385 381 407 408 q 363 325 363 354 l 363 57 q 450 29 375 29 l 450 0 l 147 0 l 147 29 q 235 57 222 29 l 235 306 q 269 392 235 351 q 344 456 303 432 q 419 515 385 481 q 453 586 453 550 z "},"ɂ":{"ha":554,"x_min":35,"x_max":515,"o":"m 390 385 q 353 528 390 474 q 251 583 315 583 q 157 548 193 583 q 108 464 121 513 q 142 450 128 464 q 157 407 157 436 q 138 371 157 383 q 94 358 119 358 q 51 377 68 358 q 35 428 35 396 q 97 566 35 507 q 265 625 158 625 q 452 558 389 625 q 515 410 515 490 q 497 328 515 364 q 451 268 478 292 q 398 224 425 244 q 352 177 371 203 q 333 121 333 151 l 333 57 q 421 29 346 29 l 421 0 l 128 0 l 128 29 q 215 57 203 29 q 235 155 217 115 q 278 216 253 194 q 329 257 304 238 q 372 308 354 276 q 390 385 390 339 z "},"Ƀ":{"ha":775,"x_min":49,"x_max":725,"o":"m 58 0 l 58 29 q 146 57 133 29 l 146 196 l 49 196 l 49 243 l 146 243 l 146 756 q 58 783 133 783 l 58 813 l 314 813 q 576 756 488 813 q 664 621 664 699 q 517 429 664 479 q 673 352 621 406 q 725 238 725 299 q 641 66 725 132 q 392 0 557 0 l 58 0 m 274 765 l 274 443 l 331 443 q 525 619 525 443 q 314 765 525 765 l 274 765 m 274 196 l 274 47 l 392 47 q 586 236 586 47 q 538 352 586 301 q 375 403 489 403 l 274 403 l 274 243 l 415 243 l 415 196 l 274 196 z "},"Ʉ":{"ha":858,"x_min":35,"x_max":824,"o":"m 250 494 l 689 494 l 689 756 q 601 783 676 783 l 601 813 l 824 813 l 824 783 q 736 756 749 783 l 736 494 l 786 494 l 786 447 l 736 447 l 736 344 q 656 75 736 164 q 456 -14 576 -14 q 122 344 122 -14 l 122 447 l 81 447 l 81 494 l 122 494 l 122 756 q 35 783 110 783 l 35 813 l 338 813 l 338 783 q 250 756 263 783 l 250 494 m 469 33 q 626 111 563 33 q 689 317 689 189 l 689 447 l 250 447 l 250 325 q 311 110 250 188 q 469 33 372 33 z "},"Ʌ":{"ha":758,"x_min":-11,"x_max":771,"o":"m 467 0 l 467 29 q 547 46 531 29 l 335 628 l 131 54 q 217 29 144 29 l 217 0 l -11 0 l -11 29 q 74 51 67 29 l 346 813 l 413 813 l 682 58 q 771 29 692 29 l 771 0 l 467 0 z "},"Ɋ":{"ha":846,"x_min":58,"x_max":982,"o":"m 751 -81 q 769 -196 751 -156 q 813 -236 786 -236 q 840 -228 832 -236 q 860 -194 847 -219 q 924 -133 892 -133 q 964 -149 946 -133 q 982 -183 982 -164 q 924 -253 982 -228 q 799 -278 865 -278 q 674 -226 721 -278 q 626 -61 626 -175 l 626 24 q 432 -14 536 -14 q 351 -6 393 -14 q 254 30 308 3 q 158 101 200 57 q 88 223 117 144 q 58 403 58 301 q 86 580 58 503 q 156 702 114 657 q 255 776 199 747 q 362 816 311 806 q 463 826 413 826 q 653 788 544 826 q 751 826 718 826 l 751 -81 m 626 68 l 626 753 q 471 779 542 779 q 413 774 442 779 q 341 746 383 768 q 267 686 299 724 q 213 575 236 649 q 190 403 190 501 q 219 217 190 296 q 292 102 249 139 q 375 49 336 65 q 446 33 414 33 q 626 68 542 33 z "},"ɋ":{"ha":726,"x_min":54,"x_max":863,"o":"m 632 -81 q 649 -196 632 -156 q 693 -236 667 -236 q 720 -228 713 -236 q 740 -194 728 -219 q 804 -133 772 -133 q 844 -149 826 -133 q 863 -183 863 -164 q 804 -253 863 -228 q 679 -278 746 -278 q 554 -226 601 -278 q 507 -61 507 -175 l 507 32 q 338 -14 440 -14 q 247 1 292 -14 q 156 49 201 15 q 83 148 111 82 q 54 303 54 214 q 141 542 54 458 q 368 625 228 625 q 524 579 461 625 q 632 625 596 625 l 632 -81 m 507 76 l 507 546 q 376 578 457 578 q 243 505 300 578 q 186 303 186 432 q 232 107 186 181 q 351 33 278 33 q 507 76 447 33 z "},"Ɍ":{"ha":808,"x_min":26,"x_max":818,"o":"m 390 417 q 543 460 501 417 q 585 606 585 503 q 538 724 585 682 q 374 765 492 765 l 275 765 l 275 417 l 390 417 m 60 0 l 60 29 q 147 57 135 29 l 147 369 l 26 369 l 26 417 l 147 417 l 147 756 q 60 783 135 783 l 60 813 l 374 813 q 635 750 546 813 q 724 607 724 688 q 678 473 724 531 q 542 389 632 415 l 726 58 q 818 29 742 29 l 818 0 l 758 0 q 632 11 661 0 q 574 72 603 22 l 406 369 l 275 369 l 275 57 q 363 29 288 29 l 363 0 l 60 0 z "},"ɍ":{"ha":551,"x_min":46,"x_max":543,"o":"m 46 0 l 46 29 q 133 57 121 29 l 133 289 l 46 289 l 46 336 l 133 336 l 133 526 q 46 533 47 533 l 46 565 q 149 595 72 565 q 258 625 226 625 l 258 564 q 396 625 328 625 q 501 601 458 625 q 543 549 543 578 q 488 499 543 499 q 435 538 458 499 q 381 578 411 578 q 258 518 326 578 l 258 336 l 413 336 l 413 289 l 258 289 l 258 57 q 346 29 271 29 l 346 0 l 46 0 z "},"ɐ":{"ha":693,"x_min":10,"x_max":649,"o":"m 538 103 q 503 117 518 103 q 489 160 489 131 q 508 196 489 183 q 551 208 526 208 q 594 190 578 208 q 611 139 611 171 q 551 26 611 67 q 382 -14 492 -14 q 192 50 253 -14 q 132 219 132 114 l 132 494 q 117 560 132 539 q 82 581 103 581 q 49 571 64 581 q 35 547 35 561 l 10 547 q 38 604 10 586 q 138 622 67 622 q 236 565 208 622 q 440 625 318 625 q 649 456 649 625 q 623 390 649 419 q 549 342 597 361 q 457 310 500 322 q 349 284 414 299 q 257 261 285 269 q 288 90 257 144 q 396 36 318 36 q 538 103 521 36 m 249 531 q 257 456 257 500 l 257 292 q 309 307 272 297 q 369 324 346 317 q 424 344 392 331 q 474 372 456 358 q 506 409 492 386 q 519 458 519 432 q 494 551 519 525 q 417 578 468 578 q 249 531 325 578 z "},"ɑ":{"ha":750,"x_min":54,"x_max":719,"o":"m 524 579 q 632 625 596 625 l 632 85 q 719 78 632 85 l 719 46 q 616 16 693 46 q 507 -14 539 -14 l 507 32 q 338 -14 440 -14 q 247 1 292 -14 q 156 49 201 15 q 83 148 111 82 q 54 303 54 214 q 141 542 54 458 q 368 625 228 625 q 524 579 461 625 m 507 546 q 376 578 457 578 q 243 505 300 578 q 186 303 186 432 q 232 107 186 181 q 351 33 278 33 q 507 76 447 33 l 507 546 z "},"ɒ":{"ha":750,"x_min":31,"x_max":696,"o":"m 226 32 q 118 -14 154 -14 l 118 526 q 31 533 118 526 l 31 565 q 134 595 57 565 q 243 625 211 625 l 243 579 q 413 625 310 625 q 503 610 458 625 q 594 563 549 596 q 667 463 639 529 q 696 308 696 397 q 609 69 696 153 q 382 -14 522 -14 q 226 32 289 -14 m 243 65 q 374 33 293 33 q 507 106 450 33 q 564 308 564 179 q 518 504 564 431 q 399 578 472 578 q 243 535 303 578 l 243 65 z "},"ɓ":{"ha":726,"x_min":94,"x_max":672,"o":"m 450 781 q 432 746 450 761 q 392 731 414 731 q 328 792 360 731 q 315 816 318 810 q 303 828 311 822 q 281 833 294 833 q 237 793 254 833 q 219 678 219 753 l 219 582 q 389 631 286 631 q 480 615 435 631 q 570 565 525 599 q 644 464 615 531 q 672 308 672 397 q 585 69 672 153 q 358 -14 499 -14 q 203 32 265 -14 q 94 -14 131 -14 l 94 658 q 142 824 94 772 q 267 875 189 875 q 392 850 333 875 q 450 781 450 825 m 219 538 l 219 65 q 350 33 269 33 q 483 106 426 33 q 540 308 540 179 q 494 507 540 431 q 375 583 449 583 q 219 538 279 583 z "},"ɔ":{"ha":676,"x_min":46,"x_max":622,"o":"m 299 28 q 438 104 385 28 q 490 321 490 181 q 433 497 490 422 q 294 572 376 572 q 188 552 232 572 q 103 481 143 532 l 69 497 q 173 594 110 564 q 342 625 236 625 q 440 608 392 625 q 529 558 488 592 q 597 464 571 524 q 622 326 622 404 q 539 78 622 169 q 313 -14 456 -14 q 117 41 188 -14 q 46 174 46 96 q 63 224 46 206 q 106 243 79 243 q 149 231 131 243 q 168 194 168 218 q 153 151 168 165 q 119 138 139 138 q 183 62 131 96 q 299 28 236 28 z "},"ɕ":{"ha":651,"x_min":51,"x_max":604,"o":"m 157 53 q 51 336 51 142 q 137 541 51 457 q 361 625 222 625 q 531 588 471 625 q 590 478 590 550 q 574 427 590 446 q 531 408 557 408 q 487 421 506 408 q 468 457 468 433 q 483 500 468 486 q 517 514 497 514 q 375 583 499 583 q 236 518 289 583 q 183 342 183 453 q 239 146 183 236 q 464 236 347 236 q 562 211 519 236 q 604 142 604 186 q 351 -14 604 -14 q 194 26 264 -14 q 169 -69 169 -17 l 122 -69 q 157 53 122 -6 m 264 111 q 399 39 325 39 q 506 67 463 39 q 549 144 549 96 q 525 186 549 171 q 464 201 501 201 q 365 176 419 201 q 264 111 310 151 z "},"ɖ":{"ha":724,"x_min":54,"x_max":860,"o":"m 504 597 l 504 776 q 417 783 504 776 l 417 815 q 520 845 443 815 q 629 875 597 875 l 629 -19 q 647 -135 629 -94 q 690 -175 664 -175 q 717 -167 710 -175 q 738 -133 725 -158 q 801 -72 769 -72 q 842 -87 824 -72 q 860 -122 860 -103 q 801 -192 860 -167 q 676 -217 743 -217 q 551 -165 599 -217 q 504 0 504 -114 l 504 32 q 338 -14 438 -14 q 247 2 292 -14 q 156 52 201 18 q 83 153 111 86 q 54 308 54 219 q 141 547 54 464 q 368 631 228 631 q 504 597 447 631 m 504 78 l 504 553 q 376 583 451 583 q 243 510 300 583 q 186 308 186 436 q 235 128 186 224 q 351 33 285 33 q 504 78 447 33 z "},"ɗ":{"ha":746,"x_min":54,"x_max":860,"o":"m 504 597 l 504 658 q 551 824 504 772 q 676 875 599 875 q 801 850 743 875 q 860 781 860 825 q 842 746 860 761 q 801 731 824 731 q 738 792 769 731 q 724 816 728 810 q 713 828 721 822 q 690 833 704 833 q 647 793 664 833 q 629 678 629 753 l 629 85 l 717 78 l 717 46 q 613 16 690 46 q 504 -14 536 -14 l 504 32 q 338 -14 438 -14 q 247 2 292 -14 q 156 52 201 18 q 83 153 111 86 q 54 308 54 219 q 141 547 54 464 q 368 631 228 631 q 504 597 447 631 m 504 553 q 376 583 451 583 q 243 510 300 583 q 186 308 186 436 q 235 128 186 224 q 351 33 285 33 q 504 78 447 33 l 504 553 z "},"ɘ":{"ha":685,"x_min":53,"x_max":631,"o":"m 499 335 l 53 335 q 125 542 53 460 q 344 625 197 625 q 555 542 479 625 q 631 336 631 458 q 603 164 631 236 q 528 55 575 92 q 432 2 481 18 q 331 -14 383 -14 q 160 17 225 -14 q 56 114 96 47 l 89 131 q 283 39 163 39 q 431 128 365 39 q 499 335 497 218 m 497 378 q 444 526 489 469 q 350 583 399 583 q 231 531 265 583 q 189 378 197 478 l 497 378 z "},"ə":{"ha":685,"x_min":53,"x_max":631,"o":"m 499 276 q 431 483 497 393 q 283 572 365 572 q 89 481 163 572 l 56 497 q 160 594 96 564 q 331 625 225 625 q 432 609 383 625 q 528 556 481 593 q 603 447 575 519 q 631 275 631 375 q 555 69 631 153 q 344 -14 479 -14 q 125 69 197 -14 q 53 276 53 151 l 499 276 m 497 233 l 189 233 q 231 81 197 133 q 350 28 265 28 q 444 85 399 28 q 497 233 489 142 z "},"ɚ":{"ha":878,"x_min":51,"x_max":874,"o":"m 496 233 l 188 233 q 230 81 196 133 q 349 28 264 28 q 442 85 397 28 q 496 233 488 142 m 497 276 l 499 278 q 431 484 497 394 q 283 574 365 574 q 89 482 163 574 l 56 499 q 160 596 96 565 q 331 626 225 626 q 547 536 467 626 l 718 636 q 737 544 718 582 q 778 506 756 506 q 828 574 808 506 l 874 560 q 837 486 861 514 q 778 458 813 458 q 685 542 715 458 l 585 483 q 629 275 629 401 q 553 69 629 153 q 343 -14 478 -14 q 124 69 196 -14 q 51 276 51 151 l 497 276 z "},"ɛ":{"ha":629,"x_min":56,"x_max":593,"o":"m 501 431 q 465 447 479 431 q 450 488 450 463 q 481 531 450 519 q 434 570 460 557 q 360 583 408 583 q 204 456 204 583 q 251 376 204 407 q 381 344 299 344 l 381 292 q 237 262 286 292 q 188 153 188 232 q 242 68 188 97 q 378 39 297 39 q 560 131 486 39 l 593 114 q 497 16 551 46 q 346 -14 442 -14 q 56 158 56 -14 q 190 319 56 275 q 72 450 72 364 q 140 577 72 529 q 346 625 208 625 q 508 588 449 625 q 568 492 568 550 q 549 448 568 465 q 501 431 531 431 z "},"ɜ":{"ha":629,"x_min":36,"x_max":574,"o":"m 128 431 q 80 448 99 431 q 61 492 61 465 q 121 588 61 550 q 283 625 181 625 q 489 577 421 625 q 557 450 557 529 q 439 319 557 364 q 574 158 574 275 q 283 -14 574 -14 q 133 16 188 -14 q 36 114 78 46 l 69 131 q 251 39 143 39 q 387 68 332 39 q 442 153 442 97 q 392 262 442 232 q 249 292 343 292 l 249 344 q 378 376 331 344 q 425 456 425 407 q 269 583 425 583 q 195 570 221 583 q 149 531 169 557 q 179 488 179 519 q 165 447 179 463 q 128 431 150 431 z "},"ɝ":{"ha":825,"x_min":36,"x_max":819,"o":"m 128 431 q 80 448 99 431 q 61 492 61 465 q 121 588 61 550 q 283 625 181 625 q 519 551 453 625 l 664 636 q 683 544 664 582 q 724 506 701 506 q 774 574 754 506 l 819 560 q 783 486 807 514 q 724 458 758 458 q 631 542 661 458 l 551 494 q 557 450 557 476 q 439 319 557 364 q 574 158 574 275 q 283 -14 574 -14 q 133 16 188 -14 q 36 114 78 46 l 69 131 q 251 39 143 39 q 387 68 332 39 q 442 153 442 97 q 392 262 442 232 q 249 292 343 292 l 249 344 q 378 376 331 344 q 425 456 425 407 q 269 583 425 583 q 195 570 221 583 q 149 531 169 557 q 179 488 179 519 q 165 447 179 463 q 128 431 150 431 z "},"ɞ":{"ha":674,"x_min":57,"x_max":610,"o":"m 57 306 q 121 538 57 450 q 329 625 185 625 q 539 589 468 625 q 610 465 610 553 q 493 315 610 354 q 610 158 610 272 q 329 -14 610 -14 q 127 72 197 -14 q 57 306 57 157 m 294 344 q 434 368 390 344 q 478 471 478 392 q 442 549 478 526 q 335 572 407 572 q 171 497 231 572 q 111 306 111 422 q 174 116 111 193 q 335 39 238 39 q 478 153 478 39 q 433 263 478 233 q 294 292 388 292 l 294 344 z "},"ɟ":{"ha":394,"x_min":-96,"x_max":375,"o":"m 146 526 q 58 533 146 526 l 58 565 q 162 595 85 565 q 271 625 239 625 l 271 47 l 375 47 l 375 0 l 271 0 l 271 -61 q 217 -226 271 -174 q 85 -278 164 -278 q -96 -157 -96 -278 q -77 -117 -96 -132 q -36 -101 -58 -101 q 2 -117 -14 -101 q 18 -156 18 -132 q 4 -189 18 -175 q 24 -224 4 -212 q 71 -236 43 -236 q 122 -195 99 -236 q 146 -81 146 -154 l 146 0 l 33 0 l 33 47 l 146 47 l 146 526 z "}}}
